<?xml version="1.0" standalone="no"?>
<!DOCTYPE svg PUBLIC "-//W3C//DTD SVG 1.1//EN" "http://www.w3.org/Graphics/SVG/1.1/DTD/svg11.dtd" >
<svg xmlns="http://www.w3.org/2000/svg">
<metadata></metadata>
<defs>
<font id="futura_bdcn_huregular" horiz-adv-x="901" >
<font-face units-per-em="2048" ascent="1638" descent="-410" />
<missing-glyph horiz-adv-x="451" />
<glyph horiz-adv-x="2048" />
<glyph horiz-adv-x="2048" />
<glyph unicode="&#xd;" horiz-adv-x="2048" />
<glyph unicode=" "  horiz-adv-x="451" />
<glyph unicode="&#x09;" horiz-adv-x="451" />
<glyph unicode="&#xa0;" horiz-adv-x="451" />
<glyph unicode="!" horiz-adv-x="563" d="M106 158q0 76 51 125q51 51 126 51q74 0 125 -51t51 -125q0 -76 -50 -126q-49 -47 -126 -49q-74 -2 -126 49q-51 51 -51 126zM145 428v1032h275v-1032h-275z" />
<glyph unicode="&#x22;" horiz-adv-x="643" d="M86 879v557h164v-557h-164zM395 879v557h164v-557h-164z" />
<glyph unicode="#" horiz-adv-x="1575" d="M70 428l61 172h297l90 252h-315l61 172h316l155 436h191l-154 -436h250l156 436h190l-154 -436h291l-59 -172h-293l-90 -252h309l-61 -172h-307l-156 -433h-191l156 433h-252l-158 -433h-190l156 433h-299zM618 598h256l91 254h-256z" />
<glyph unicode="$" d="M37 172l117 203q124 -130 252 -133q79 -1 131 46q53 48 53 126q0 112 -187 211q-21 12 -73 41q-285 164 -285 399q0 133 63 229q66 101 189 142v184h86v-168h6q15 0 37 2l16 2q11 0 21 -2q10 0 24 -2v168h86v-178q143 -35 234 -139l-137 -197q-109 101 -228 104 q-61 2 -100 -34.5t-39 -96.5q0 -99 193 -196q13 -5 24 -13q201 -109 260 -190q68 -92 68 -246q0 -144 -68 -253q-74 -117 -207 -156v-206h-86v191q-43 -8 -69 -8h-23q-6 0 -12 2v-185h-86v199q-142 17 -260 154z" />
<glyph unicode="%" horiz-adv-x="1677" d="M74 1038q0 441 291 441q290 0 290 -441q0 -438 -290 -438q-291 0 -291 438zM276 1042q0 -254 89 -254q86 0 86 254q0 114 -6 151q-16 103 -80 105q-89 2 -89 -256zM385 -17l725 1496h162l-721 -1496h-166zM1008 420q0 435 290 440q162 2 235 -148q56 -114 56 -292 q0 -433 -291 -437q-162 -1 -235 146q-55 110 -55 291zM1212 418q0 -112 6 -150q17 -104 80 -104t81 104q5 31 7 150q2 111 -6 152q-18 106 -82 106t-80 -106q-6 -37 -6 -152z" />
<glyph unicode="&#x26;" horiz-adv-x="1116" d="M66 420q0 225 229 385q-113 191 -113 307q0 152 98 238q92 82 248 82q140 0 228 -82q90 -82 90 -220q0 -210 -234 -380l185 -293l145 155l148 -206l-166 -150l163 -256h-288l-64 102q-119 -110 -270 -111q-179 -2 -290 126q-109 124 -109 303zM326 428q0 -74 41 -123 q41 -50 116 -53q23 0 60 10q21 5 71 33l-182 289q-106 -67 -106 -156zM418 1110q0 -30 8 -51q3 -21 20 -49l43 -70l31 27q78 67 78 151q0 38 -20 67q-23 32 -60 32q-39 0 -74 -29q-26 -31 -26 -78z" />
<glyph unicode="'" horiz-adv-x="334" d="M86 879v557h164v-557h-164z" />
<glyph unicode="(" horiz-adv-x="567" d="M80 555q-3 528 229 1001l223 -61q-208 -431 -208 -940q0 -482 208 -937l-223 -61q-226 474 -229 998z" />
<glyph unicode=")" horiz-adv-x="567" d="M33 -382q157 334 196 696q13 117 13 241q0 337 -91 640q-49 163 -118 300l225 61q227 -469 227 -1001q0 -521 -227 -998z" />
<glyph unicode="*" d="M111 987l227 119l-227 119l65 114l219 -135l-10 256h131l-10 -256l217 135l68 -114l-230 -119l227 -119l-65 -115l-217 138l10 -258h-131l10 258l-217 -138z" />
<glyph unicode="+" horiz-adv-x="1706" d="M254 528v166h514v527h170v-527h514v-166h-514v-528h-170v528h-514z" />
<glyph unicode="," horiz-adv-x="451" d="M0 -280l162 606h289l-248 -606h-203z" />
<glyph unicode="-" horiz-adv-x="668" d="M76 332v317h516v-317h-516z" />
<glyph unicode="." horiz-adv-x="451" d="M49 166q0 74 51 125t125 51t125 -51t51 -125q0 -75 -50 -127q-49 -50 -126 -50t-126 50q-50 52 -50 127z" />
<glyph unicode="/" horiz-adv-x="627" d="M0 -189l451 1668h176l-451 -1668h-176z" />
<glyph unicode="0" d="M53 729q0 250 46 412q22 77 57 145q100 193 295 193q233 0 331 -279q66 -188 66 -471q0 -286 -65 -470q-97 -276 -332 -276q-234 0 -332 276q-66 186 -66 470zM330 727q0 -216 6 -270q23 -209 115 -211q89 -2 111 212q7 60 7 269q0 217 -6 272q-23 212 -112 215 q-34 1 -57.5 -25t-37.5 -79q-26 -99 -26 -383z" />
<glyph unicode="1" d="M197 1219v241h419v-1460h-280v1219h-139z" />
<glyph unicode="2" d="M63 0l359 698q137 266 137 416q0 140 -106 143q-93 3 -118 -109q-11 -52 -11 -185h-238q0 12 -2 22v37q0 457 385 457q161 0 256 -99t96 -262q1 -138 -81 -333q-41 -97 -158 -308l-125 -225h327v-252h-721z" />
<glyph unicode="3" d="M47 379v18q0 13 2 21h244v-17q0 -174 115 -174q129 0 129 211q0 107 -38 157q-43 55 -147 58q-2 0 -16 -2h-19v240h19q109 0 160 36q60 44 61 148q2 63 -24 107q-30 53 -89 53q-52 0 -84 -41q-28 -44 -28 -125v-16h-236v34q0 392 363 392q175 0 262 -115q78 -104 78 -283 q0 -273 -217 -303v-18q262 -52 262 -342q0 -201 -111 -318q-112 -119 -313 -119q-373 0 -373 398z" />
<glyph unicode="4" d="M59 362v220l383 878h281v-878h119v-220h-119v-362h-244v362h-420zM246 582h243v413l11 195q-46 -168 -99 -279z" />
<glyph unicode="5" d="M57 39l37 264q110 -64 211 -65q112 -2 169 56.5t58 178.5q3 264 -354 270q-27 -4 -59 -4h-15l101 721h569v-248h-366l-37 -266h10q209 0 323 -118q113 -118 115 -328q2 -234 -121 -371q-127 -144 -358 -146q-172 -2 -283 56z" />
<glyph unicode="6" d="M53 487q0 239 189 629l16 33l150 311h280l-233 -459q-15 -32 -41 -75l-37 -60q92 70 182 70q158 0 233 -139q60 -109 60 -281q0 -223 -84 -364q-103 -171 -311 -171q-404 0 -404 506zM350 446q0 -205 105 -208q109 -3 112 225q3 226 -104 229q-113 3 -113 -246z" />
<glyph unicode="7" d="M90 0l461 1219h-440v241h798l-530 -1460h-289z" />
<glyph unicode="8" d="M59 410q0 319 226 383v12q-185 42 -185 309q0 365 351 365q170 0 260 -95t90 -270q0 -265 -185 -309v-12q226 -64 226 -383q0 -196 -96 -308q-101 -117 -295 -119q-192 -2 -295 119q-97 112 -97 308zM332 451q-2 -210 119 -213q115 -3 118 206q3 207 -118 207 q-117 0 -119 -200zM352 1102q0 -96 23 -131q19 -39 76 -39q52 0 73 37q25 34 25 123q0 159 -100 159q-97 0 -97 -149z" />
<glyph unicode="9" d="M49 952q0 229 85 363q104 164 319 164q206 0 306 -160q85 -133 85 -350q0 -233 -178 -629l-13 -29l-141 -311h-283l226 457l4 10q24 55 69 125q-95 -74 -186 -74q-157 0 -234 146q-59 115 -59 288zM332 993q-3 -226 108 -229q55 -1 82 56t27 173q0 228 -109 228 q-105 0 -108 -228z" />
<glyph unicode=":" horiz-adv-x="563" d="M106 166q0 76 51 125q51 51 126 51q74 0 125 -51t51 -125q0 -75 -50 -127q-49 -50 -126 -50q-76 0 -126 50q-51 53 -51 127zM106 754q0 76 51 125q51 51 126 51q74 0 125 -51t51 -125q0 -76 -50 -128q-49 -51 -126 -51q-75 0 -126 51q-51 52 -51 128z" />
<glyph unicode=";" horiz-adv-x="563" d="M-28 -280l163 606h289l-248 -606h-204zM106 754q0 76 51 125q51 51 126 51q74 0 125 -51t51 -125q0 -76 -50 -128q-49 -51 -126 -51q-75 0 -126 51q-51 52 -51 128z" />
<glyph unicode="&#x3c;" horiz-adv-x="1706" d="M264 530v160l1178 486v-185l-934 -381l934 -381v-182z" />
<glyph unicode="=" horiz-adv-x="1706" d="M254 322v165h1198v-165h-1198zM254 733v168h1198v-168h-1198z" />
<glyph unicode="&#x3e;" horiz-adv-x="1706" d="M264 47v182l934 381l-934 381v185l1178 -486v-160z" />
<glyph unicode="?" horiz-adv-x="883" d="M45 1053v34q0 392 373 392q284 0 361 -254q24 -79 24 -195q0 -318 -240 -375v-194h-274v340q213 11 213 229q0 184 -99 184q-88 0 -88 -151v-10h-270zM250 158q-2 75 50 125q51 51 126 51q74 0 125 -51t51 -125q0 -76 -50 -126q-49 -47 -126 -49q-76 -1 -126 47 q-48 48 -50 128z" />
<glyph unicode="@" horiz-adv-x="2048" d="M98 522q0 335 205 586q297 365 813 365q347 0 570 -173q264 -206 264 -536q0 -335 -250 -539q-135 -111 -318 -112q-208 -3 -208 166v4q-98 -165 -304 -168q-157 -2 -235 82t-78 254q0 219 124 380q135 177 347 177q170 0 248 -142l55 107h154l-148 -586q0 -4 -2 -12 q-6 -28 -6 -37q0 -82 96 -84q107 -2 213 115q148 161 148 393q0 252 -187 412q-121 104 -300 138q-90 17 -189 19q-241 2 -435 -103q-203 -110 -315 -314q-98 -178 -98 -394q0 -331 223 -515q208 -170 545 -170q342 0 615 190l67 -98q-296 -227 -674 -227q-384 0 -632 190 q-308 234 -308 632zM741 444q0 -201 174 -204q96 -2 171 73q68 68 92 166l55 228q-26 176 -184 176q-145 0 -234 -153q-74 -130 -74 -286z" />
<glyph unicode="A" horiz-adv-x="952" d="M-7 0l339 1460h305l324 -1460h-291l-49 256h-293l-45 -256h-290zM381 483h194q-37 191 -55 320q-20 144 -41 354q-14 -111 -47 -334z" />
<glyph unicode="B" horiz-adv-x="999" d="M115 0v1460h284q252 0 370 -68q153 -88 153 -321q0 -232 -185 -319q207 -74 207 -334q0 -100 -33 -180q-69 -166 -247 -215q-84 -23 -279 -23h-270zM397 260q7 0 21 -2h20q213 0 213 188q0 108 -57 154q-52 41 -162 41h-35v-381zM397 854h31q217 0 217 183q0 91 -53 141 q-58 45 -166 45h-29v-369z" />
<glyph unicode="C" horiz-adv-x="932" d="M68 717q0 315 147 524q166 238 469 238q98 0 182 -35v-273q-81 31 -159 33h-6q-163 0 -250 -159q-72 -133 -72 -317q0 -177 75 -302q92 -152 259 -152q75 0 153 35v-293q-90 -33 -170 -33q-301 0 -472 222q-156 203 -156 512z" />
<glyph unicode="D" horiz-adv-x="1102" d="M115 0v1460h250q666 0 671 -731v-7q0 -426 -252 -613q-93 -68 -215 -92q-90 -17 -235 -17h-219zM403 270h23q316 0 319 455v9q0 460 -323 460h-19v-924z" />
<glyph unicode="E" horiz-adv-x="811" d="M115 0v1460h614v-270h-332v-295h301v-268h-301v-342h332v-285h-614z" />
<glyph unicode="F" horiz-adv-x="799" d="M115 0v1460h630v-270h-348v-303h318v-269h-318v-618h-282z" />
<glyph unicode="G" horiz-adv-x="1139" d="M66 729q0 297 110 499q137 251 412 251q332 0 446 -375l-262 -121q-31 217 -190 217q-226 0 -226 -471q0 -473 226 -473q200 0 206 311h-260v258h543v-34q0 -23 2 -33q0 -309 -99 -510q-130 -264 -407 -265h-4q-264 0 -394 253q-103 199 -103 493z" />
<glyph unicode="H" horiz-adv-x="1133" d="M115 0v1460h288v-540h326v540h291v-1460h-291v635h-326v-635h-288z" />
<glyph unicode="I" horiz-adv-x="553" d="M127 0v1460h297v-1460h-297z" />
<glyph unicode="J" horiz-adv-x="645" d="M6 14v265q47 -27 111 -35q99 0 122 126q5 32 5 203v887h295v-1018q0 -251 -70 -336q-100 -120 -285 -125h-6q-32 0 -92 10q-48 8 -80 23z" />
<glyph unicode="K" horiz-adv-x="975" d="M115 2v1458h282v-637l285 637h303l-301 -665l311 -793h-311l-287 711v-711h-282z" />
<glyph unicode="L" horiz-adv-x="735" d="M115 0v1460h288v-1175h332v-285h-620z" />
<glyph unicode="M" horiz-adv-x="1366" d="M43 0l143 1460h375l76 -557q35 -261 47 -471q13 145 31 305l6 56q7 67 14 110l94 557h371l123 -1460h-295l-31 678l-4 72q-12 208 -12 436l-190 -1186h-211l-179 1194q0 -144 -18 -426l-6 -94l-45 -674h-289z" />
<glyph unicode="N" horiz-adv-x="1135" d="M115 0v1460h295l295 -786l36 -117q13 -39 28 -91l26 -93q-15 103 -31 264l-2 20q-12 120 -12 242v561h270v-1460h-270l-320 817q-9 23 -43 150l-25 94q14 -120 17 -193q4 -91 4 -254v-614h-268z" />
<glyph unicode="O" horiz-adv-x="1157" d="M66 729q0 299 105 498q134 252 407 252q278 0 411 -262q103 -202 103 -508q0 -289 -110 -485q-136 -240 -404 -241h-4q-275 0 -405 248q-103 194 -103 498zM356 729q0 -469 222 -469q223 0 223 469q0 471 -223 471q-222 0 -222 -471z" />
<glyph unicode="P" horiz-adv-x="932" d="M115 0v1460h303q475 0 475 -424q0 -204 -113 -319q-113 -113 -317 -113h-39q-13 0 -27 2v-606h-282zM397 827q7 0 15 -2h16q190 0 190 211q0 199 -190 199h-16q-9 0 -15 -2v-406z" />
<glyph unicode="Q" horiz-adv-x="1157" d="M66 752q0 292 108 486q135 241 404 241q280 0 412 -259q102 -200 102 -509q0 -355 -138 -516l150 -164l-158 -136l-137 150q-85 -56 -231 -58h-5q-238 0 -372 199q-88 130 -118 340q-17 122 -17 226zM354 702q0 -448 221 -448q11 0 21 2q11 0 25 2l-154 170l158 131 l137 -151q39 135 39 319q0 475 -223 475q-224 0 -224 -500z" />
<glyph unicode="R" horiz-adv-x="940" d="M115 0v1460h303q232 0 346 -87q129 -99 129 -324q0 -303 -231 -383l280 -666h-307l-238 604v-604h-282zM397 827q7 0 17 -2h16q191 0 191 209q0 201 -185 201h-22q-9 0 -17 -2v-406z" />
<glyph unicode="S" horiz-adv-x="786" d="M47 1057q0 183 99 299q106 123 286 123q123 0 246 -72v-258q-129 64 -195 65h-6q-57 0 -95 -38q-42 -43 -42 -108q0 -97 170 -245q78 -67 105 -96q126 -132 126 -315q0 -203 -109 -315q-110 -113 -310 -114h-8q-143 0 -244 68v303q110 -96 215 -96q159 0 159 148 q0 82 -114 178q-4 4 -20.5 17t-28.5 24q-123 114 -170 190q-64 104 -64 242z" />
<glyph unicode="T" horiz-adv-x="797" d="M29 1190v270h739v-270h-223v-1190h-293v1190h-223z" />
<glyph unicode="U" horiz-adv-x="1124" d="M106 543v917h291v-940q0 -175 35 -231q39 -51 131 -51q113 0 147 91q19 50 19 191v940h289v-917q0 -177 -10 -240q-10 -71 -33 -115q-105 -202 -412 -205h-9q-300 0 -404 205q-44 86 -44 355z" />
<glyph unicode="V" horiz-adv-x="995" d="M-38 1460h294l172 -661q24 -93 41 -207q24 -159 29 -232q12 219 65 433l168 667h303l-413 -1460h-244z" />
<glyph unicode="W" horiz-adv-x="1497" d="M2 1460h295l104 -659q17 -115 25 -201q1 -13 20 -244l191 1104h242l190 -1104q0 190 33 404l108 700h287l-293 -1460h-256l-155 805q-16 84 -21 143l-12 185l-21 -195q-6 -74 -18 -131l-162 -807h-262z" />
<glyph unicode="X" horiz-adv-x="864" d="M-52 0l337 739l-307 721h305l110 -307q14 -39 21 -68l24 -108l25 102q11 42 22 74l109 307h301l-307 -721l330 -739h-316l-115 297q-10 26 -32 100q-9 32 -25 115q-18 -118 -51 -215l-100 -297h-331z" />
<glyph unicode="Y" horiz-adv-x="801" d="M-83 1460h306l96 -264l23 -62l27 -79q11 -34 24 -80l17 -64q33 150 82 277l106 272h285l-340 -774v-686h-289v686z" />
<glyph unicode="Z" horiz-adv-x="877" d="M-15 0l470 1192h-402v268h795l-465 -1175h424v-285h-822z" />
<glyph unicode="[" horiz-adv-x="567" d="M66 -396v1903h464v-207h-188v-1489h188v-207h-464z" />
<glyph unicode="\" horiz-adv-x="627" d="M0 1479h176l451 -1668h-176z" />
<glyph unicode="]" horiz-adv-x="567" d="M35 -189h190v1489h-190v207h465v-1903h-465v207z" />
<glyph unicode="^" horiz-adv-x="2048" d="M418 899l497 561h218l495 -561h-207l-397 397l-399 -397h-207z" />
<glyph unicode="_" horiz-adv-x="1024" d="M0 -310h1024v-172h-1024v172z" />
<glyph unicode="`" horiz-adv-x="1024" d="M229 1485h246l187 -371h-134z" />
<glyph unicode="a" horiz-adv-x="928" d="M61 489q0 195 52 321q74 180 239 181h3q123 0 216 -160v150h254v-981h-254v145q-82 -160 -221 -162h-4q-165 0 -235 181q-50 129 -50 325zM330 504v-13q0 -266 119 -266t122 281v11q0 249 -129 253h-2q-107 0 -110 -266z" />
<glyph unicode="b" horiz-adv-x="928" d="M102 0v1550h260v-708q83 148 213 149h4q140 -1 211 -129q72 -130 74 -393v-7q0 -176 -52 -304q-73 -177 -230 -177q-149 0 -220 162v-143h-260zM360 506q0 -283 119 -283q117 0 117 287q0 259 -113 262h-3q-120 0 -120 -266z" />
<glyph unicode="c" horiz-adv-x="651" d="M53 492q0 204 83 341q101 165 292 166h5q96 0 181 -38v-259q-26 21 -61 35q-39 11 -61 11q-91 0 -134 -85q-34 -66 -36 -165v-8q0 -240 178 -244h4q59 0 110 51v-258q-81 -54 -186 -56h-7q-188 0 -286 164q-82 137 -82 345z" />
<glyph unicode="d" horiz-adv-x="928" d="M61 489q0 195 52 321q74 180 239 181h3q126 0 208 -149v708h262v-1550h-262v143q-77 -161 -219 -162h-3q-158 0 -230 185q-50 132 -50 323zM330 504v-9q0 -272 119 -272q78 0 103 112q11 52 11 171q0 266 -121 266q-74 0 -99 -106q-11 -50 -13 -162z" />
<glyph unicode="e" horiz-adv-x="877" d="M47 489q0 213 91 349q106 160 308 161h4q388 0 388 -534v-47h-527v-8q0 -228 150 -228q46 0 78 29q30 22 53 84h233q-28 -144 -130 -229q-99 -81 -249 -83h-5q-196 0 -301 158q-93 139 -93 348zM311 573h289q-6 208 -145 211h-5q-68 0 -103 -51q-36 -53 -36 -160z" />
<glyph unicode="f" horiz-adv-x="530" d="M25 774v207h98v260q0 169 53 234q78 94 232 94q43 0 104 -10v-232h-12q-9 0 -19 2q-68 0 -83 -62q-5 -22 -5 -120v-166h119v-207h-119v-774h-270v774h-98z" />
<glyph unicode="g" horiz-adv-x="928" d="M61 492q0 194 52 319q74 179 239 180h3q65 0 114 -41q54 -35 94 -119v150h262v-907q0 -271 -59 -378q-82 -148 -326 -148q-169 0 -263 85q-99 89 -99 255v15h229q0 -142 129 -142q71 0 99 37q28 35 28 129v202q-95 -137 -213 -138h-5q-163 0 -234 179q-50 129 -50 322z M330 504v-13q0 -268 119 -268q78 0 103 112q11 52 11 171q0 108 -14 164q-25 100 -107 102h-2q-53 0 -80 -66q-28 -66 -30 -202z" />
<glyph unicode="h" horiz-adv-x="915" d="M96 0v1550h271v-688q106 127 251 129h3q134 0 176 -98q26 -61 26 -223v-670h-270v594q0 73 -11 99q-18 46 -77 48h-3q-47 0 -73 -36q-22 -38 -22 -123v-582h-271z" />
<glyph unicode="i" horiz-adv-x="483" d="M86 1243q0 64 43 113q49 45 113 45q67 0 110 -46q44 -45 45 -112v-5q0 -61 -44 -103.5t-111 -44.5h-6q-64 0 -106 42q-44 44 -44 111zM106 0v981h271v-981h-271z" />
<glyph unicode="j" horiz-adv-x="483" d="M86 1243q0 64 43 113q49 45 113 45q67 0 110 -46q44 -45 45 -112v-5q0 -62 -44 -104t-111 -44h-6q-64 0 -106 42q-44 44 -44 111zM106 -394v1375h271v-1375h-271z" />
<glyph unicode="k" horiz-adv-x="858" d="M100 0v1550h271v-972q10 30 45 100l12 24l139 279h305l-245 -408l264 -573h-301l-219 535v-535h-271z" />
<glyph unicode="l" horiz-adv-x="483" d="M106 0v1550h271v-1550h-271z" />
<glyph unicode="m" horiz-adv-x="1343" d="M98 0v981h250v-152q104 161 258 162h4q159 0 193 -162q113 161 256 162h4q131 0 169 -133q19 -64 19 -246v-612h-266v594q0 83 -18 115q-17 30 -62 32h-3q-47 0 -73 -34q-22 -38 -22 -125v-582h-264v594q0 147 -80 149h-4q-97 0 -97 -161v-582h-264z" />
<glyph unicode="n" horiz-adv-x="915" d="M96 0v981h252v-152q104 161 270 162h5q130 0 173 -99q27 -62 27 -222v-670h-270v594q0 73 -11 99q-18 46 -77 48h-3q-47 0 -73 -36q-22 -38 -22 -123v-582h-271z" />
<glyph unicode="o" horiz-adv-x="909" d="M47 492q0 215 94 350q109 156 314 157h5q200 0 308 -157q96 -140 96 -350q0 -213 -96 -351q-109 -158 -313 -158q-206 0 -314 157q-94 136 -94 352zM305 494q0 -275 150 -275q149 0 151 275v13q0 93 -27 160q-39 101 -124 101q-150 0 -150 -274z" />
<glyph unicode="p" horiz-adv-x="928" d="M102 -394v1375h254v-150q91 160 219 160q165 0 238 -183q51 -127 51 -323q0 -194 -49 -322q-70 -185 -233 -185q-146 0 -220 165v-537h-260zM362 506q0 -283 117 -283t117 287q0 257 -113 260h-3q-118 0 -118 -264z" />
<glyph unicode="q" horiz-adv-x="928" d="M61 485q0 501 291 506h3q123 0 216 -160v150h254v-1375h-262v537q-79 -165 -219 -165q-163 0 -233 185q-50 132 -50 322zM330 502v-13q0 -266 119 -266q78 0 103 112q11 52 11 171q0 109 -14 163q-26 99 -107 101h-2q-53 0 -80 -66q-28 -66 -30 -202z" />
<glyph unicode="r" horiz-adv-x="588" d="M100 0v981h252v-174q67 186 221 192v-258h-18q-125 0 -162 -82q-22 -48 -22 -198v-461h-271z" />
<glyph unicode="s" horiz-adv-x="686" d="M27 84l112 199q30 -20 86 -50q36 -14 68 -14q31 0 51 21q21 18 21 49q0 49 -101 114q-3 1 -39 25q-174 117 -174 272q0 142 89 222q86 77 229 77q149 0 268 -84l-115 -194q-70 59 -135 65q-35 0 -53 -18q-21 -16 -21 -47q0 -43 93 -100q135 -81 190 -166q41 -64 41 -152 q0 -146 -98 -235q-92 -83 -242 -85h-6q-146 0 -264 101z" />
<glyph unicode="t" horiz-adv-x="526" d="M20 770v211h107v283h270v-283h107v-211h-107v-770h-270v770h-107z" />
<glyph unicode="u" horiz-adv-x="903" d="M92 473v508h264v-631q0 -67 15 -94q19 -37 80 -37q53 0 73 29q23 26 23 102v631h264v-508q0 -257 -54 -354q-75 -135 -304 -136h-7q-225 0 -300 135q-54 98 -54 355z" />
<glyph unicode="v" horiz-adv-x="772" d="M2 981h262l84 -442q17 -91 37 -289q17 185 37 289l86 442h262l-252 -981h-264z" />
<glyph unicode="w" horiz-adv-x="1186" d="M-3 981h261l74 -418l24 -184l15 -109q3 58 16 158q6 50 21 131l77 422h213l80 -422q5 -23 17 -117q8 -55 18 -172l21 170l18 123l76 418h262l-258 -981h-234l-71 408q-13 73 -20 159l-15 168l-4 -49q-19 -223 -29 -278l-72 -408h-233z" />
<glyph unicode="x" horiz-adv-x="758" d="M-11 0l249 526l-234 455h260l82 -164q5 -10 25 -59q8 -35 10 -53q4 44 37 114l76 162h268l-248 -451l256 -530h-270l-88 223q-12 37 -19 60q-3 9 -12 73q-7 -49 -14 -71q-7 -25 -21 -60l-96 -225h-261z" />
<glyph unicode="y" horiz-adv-x="758" d="M2 981h266l94 -434q21 -97 21 -185q9 109 29 201l90 418h266l-369 -1375h-264l121 394z" />
<glyph unicode="z" horiz-adv-x="674" d="M18 0l283 762h-260v219h610l-278 -745h258v-236h-613z" />
<glyph unicode="{" horiz-adv-x="1024" d="M162 442v179q10 0 20 -3h23q129 0 183 68q48 61 48 193v247q0 117 12 168q29 119 149 159q74 24 232 24h45v-179h-24q-13 0 -23 2q-114 0 -153 -52q-33 -44 -33 -163v-241q0 -144 -34 -205q-43 -78 -169 -109q122 -29 167 -110q36 -64 36 -203v-239q0 -122 33 -166 q39 -51 155 -51h23q14 0 22 2v-176h-63q-149 0 -222 26q-111 40 -140 156q-13 52 -13 166v247q0 134 -47 193q-52 66 -184 69q-1 0 -23 -2h-20z" />
<glyph unicode="|" horiz-adv-x="1024" d="M424 -482v2047h178v-2047h-178z" />
<glyph unicode="}" horiz-adv-x="1024" d="M152 -237q8 0 22 -2h23q117 0 154 51q32 44 32 166v239q0 139 36 204q46 81 169 109q-126 32 -169 109q-36 65 -36 205v241q0 135 -39 172q-37 43 -145 43q-7 0 -23 -2h-24v179h45q106 0 180 -13q148 -25 188 -133q23 -63 23 -205v-247q0 -133 47 -194q52 -67 184 -67h21 q10 3 22 3v-179h-22q-15 0 -21 2q-130 0 -184 -68q-47 -61 -47 -194v-247q0 -117 -12 -166q-28 -118 -148 -158q-72 -24 -231 -24h-45v176z" />
<glyph unicode="~" horiz-adv-x="1706" d="M178 434v187q206 143 387 143q110 0 293 -59q16 -8 43 -17q156 -56 250 -57q170 -3 379 153v-184q-200 -136 -381 -141q-86 -1 -191 35l-75 26q-213 74 -320 74q-162 0 -385 -160z" />
<glyph unicode="&#xa2;" d="M59 748q0 404 310 483v194h129v-194q69 0 131 -35v-250q-40 24 -70 31q-25 6 -59 10q-171 0 -172 -235q-3 -263 172 -263q32 0 59 11q23 4 70 30v-254q-80 -31 -131 -38v-205h-129v205q-169 17 -248 187q-62 133 -62 323z" />
<glyph unicode="&#xa3;" d="M-7 154q96 99 212 104q2 0 12 -2h14q17 77 17 147q0 29 -6 74q-3 26 -19 74h-176v139h127q-106 202 -108 375q-1 198 114 307q113 107 312 107q370 0 370 -349v-30l-223 -68v15q0 182 -154 182q-150 0 -153 -193q-1 -73 53 -223q8 -20 43 -123h264v-139h-237 q7 -42 12 -78q2 -22 2 -49q0 -99 -49 -188q64 -40 151 -43q123 -5 238 118l113 -192q-136 -133 -334 -136q-57 -1 -167 28q-116 33 -163 34q-64 1 -168 -62z" />
<glyph unicode="&#xa5;" horiz-adv-x="989" d="M20 1460h277l106 -274q69 -178 99 -285q2 9 13 52.5t18.5 70t23 72.5t33.5 88l119 276h260l-207 -475h205v-84h-242l-70 -158h312v-84h-336v-659h-273v659h-333v84h311l-70 158h-241v84h204z" />
<glyph unicode="&#xa8;" horiz-adv-x="1024" d="M229 1296q0 47 36 83t83 36q46 0 84 -36q37 -36 37 -83q0 -51 -33.5 -84.5t-87.5 -35.5q-42 -1 -84 34q-35 41 -35 86zM557 1296q0 47 36 83t83 36q46 0 84 -36q37 -36 37 -83q0 -51 -33.5 -84.5t-87.5 -35.5q-50 -2 -85 34q-34 35 -34 86z" />
<glyph unicode="&#xa9;" horiz-adv-x="1706" d="M113 731q-3 297 221 524q212 215 518 215q313 0 526 -213q214 -214 215 -526q2 -311 -215 -526q-215 -214 -526 -214q-308 0 -522 215q-214 217 -217 525zM223 731q0 -261 185 -446t446 -185q254 0 449 189q182 176 182 442q0 271 -180 451t-451 180q-133 0 -244 -47 q-244 -105 -340 -342q-47 -117 -47 -242zM457 725q-1 198 98 322q109 133 303 133q139 0 234 -68q103 -73 114 -209h-166q-9 71 -59 115q-57 39 -131 39q-208 0 -211 -326q-3 -312 221 -317q160 -3 189 168h165q-6 -145 -114 -224q-98 -74 -246 -75q-195 -2 -299 126 q-96 116 -98 316z" />
<glyph unicode="&#xab;" horiz-adv-x="834" d="M33 500l252 428l149 -84l-198 -344l198 -365l-149 -84zM401 500l252 428l148 -84l-197 -344l197 -365l-148 -84z" />
<glyph unicode="&#xae;" horiz-adv-x="1706" d="M113 731q-3 307 223 529q212 207 516 210q309 3 525 -213t216 -526q0 -312 -214 -525q-213 -212 -527 -215q-227 -2 -412 126q-183 125 -272 336q-53 126 -55 278zM223 731q0 -261 181 -446q182 -185 440 -185q265 0 451 177q190 180 190 444q0 271 -180 456 q-179 185 -451 185q-260 0 -440 -180q-191 -191 -191 -451zM551 330v829h319q351 0 351 -225q0 -185 -185 -229l185 -375h-199l-164 346h-129v-346h-178zM729 786h117q189 0 192 127q3 134 -200 134h-109v-261z" />
<glyph unicode="&#xb4;" horiz-adv-x="1024" d="M362 1114l187 371h246l-299 -371h-134z" />
<glyph unicode="&#xb8;" horiz-adv-x="1024" d="M274 -308q58 -22 117 -33q36 -7 94 -10q83 -5 86 73q2 36 -26 54q-24 16 -82 16h-27q-8 0 -16 -2v210h96v-89h12q197 0 199 -191q1 -98 -55.5 -148t-171.5 -52q-95 -2 -226 43v129z" />
<glyph unicode="&#xbb;" horiz-adv-x="834" d="M33 135l196 365l-196 344l149 84l252 -428l-252 -449zM401 135l197 365l-197 344l150 84l250 -428l-250 -449z" />
<glyph unicode="&#xc1;" horiz-adv-x="952" d="M-7 0l339 1460h305l324 -1460h-291l-49 256h-293l-45 -256h-290zM336 1593l186 371h246l-299 -371h-133zM381 483h194q-37 191 -55 320q-20 144 -41 354q-14 -111 -47 -334z" />
<glyph unicode="&#xc9;" horiz-adv-x="811" d="M115 0v1460h614v-270h-332v-295h301v-268h-301v-342h332v-285h-614zM268 1593l187 371h245l-299 -371h-133z" />
<glyph unicode="&#xcd;" horiz-adv-x="553" d="M127 0v1460h297v-1460h-297zM127 1593l186 371h246l-299 -371h-133z" />
<glyph unicode="&#xd3;" horiz-adv-x="1157" d="M66 729q0 299 105 498q134 252 407 252q278 0 411 -262q103 -202 103 -508q0 -289 -110 -485q-136 -240 -404 -241q-278 -2 -409 248q-103 194 -103 498zM356 729q0 -469 222 -469q223 0 223 469q0 471 -223 471q-222 0 -222 -471zM430 1593l186 371h246l-299 -371h-133z " />
<glyph unicode="&#xd6;" horiz-adv-x="1157" d="M66 729q0 299 105 498q134 252 407 252q278 0 411 -262q103 -202 103 -508q0 -289 -110 -485q-136 -240 -404 -241q-278 -2 -409 248q-103 194 -103 498zM297 1776q0 48 35 83q37 35 84 35t84 -35q37 -34 37 -83q0 -51 -34.5 -85t-86.5 -36q-49 -1 -84 35q-35 37 -35 86z M356 729q0 -469 222 -469q223 0 223 469q0 471 -223 471q-222 0 -222 -471zM625 1776q0 48 35 83t83 35t85 -35q36 -34 36 -83q0 -51 -34.5 -85t-86.5 -36q-49 -1 -84 35q-34 35 -34 86z" />
<glyph unicode="&#xda;" horiz-adv-x="1124" d="M106 543v917h291v-940q0 -175 35 -231q39 -51 131 -51q113 0 147 91q19 50 19 191v940h289v-917q0 -177 -10 -240q-10 -71 -33 -115q-105 -202 -412 -205t-413 205q-44 86 -44 355zM414 1593l186 371h246l-299 -371h-133z" />
<glyph unicode="&#xdc;" horiz-adv-x="1124" d="M106 543v917h291v-940q0 -175 35 -231q39 -51 131 -51q113 0 147 91q19 50 19 191v940h289v-917q0 -177 -10 -240q-10 -71 -33 -115q-105 -202 -412 -205t-413 205q-44 86 -44 355zM281 1776q0 49 34 83q35 35 84 35q47 0 84 -35q37 -34 37 -83q0 -51 -34.5 -85 t-86.5 -36q-49 -1 -84 35q-34 35 -34 86zM608 1776q0 48 35 83q37 35 84 35q48 0 85 -35q36 -34 36 -83q0 -51 -34.5 -85t-86.5 -36q-49 -1 -84 35q-35 37 -35 86z" />
<glyph unicode="&#xe1;" horiz-adv-x="928" d="M61 489q0 195 52 321q74 180 239 181q125 2 219 -160v150h254v-981h-254v145q-82 -160 -221 -162q-168 -2 -239 181q-50 129 -50 325zM330 504q-3 -279 119 -279q119 0 122 281q3 260 -129 264q-109 3 -112 -266zM354 1114l187 371h245l-299 -371h-133z" />
<glyph unicode="&#xe9;" horiz-adv-x="877" d="M47 489q0 213 91 349q106 160 308 161q392 3 392 -534v-47h-527v-8q0 -228 150 -228q46 0 78 29q30 22 53 84h233q-28 -144 -130 -229q-99 -81 -249 -83q-200 -2 -306 158q-93 139 -93 348zM295 1114l186 371h246l-299 -371h-133zM311 573h289q-6 208 -145 211 q-72 2 -108 -51t-36 -160z" />
<glyph unicode="&#xed;" horiz-adv-x="483" d="M92 1114l187 371h245l-299 -371h-133zM106 0v981h271v-981h-271z" />
<glyph unicode="&#xf3;" horiz-adv-x="909" d="M47 492q0 215 94 350q109 156 314 157q204 2 313 -157q96 -140 96 -350q0 -213 -96 -351q-109 -158 -313 -158q-206 0 -314 157q-94 136 -94 352zM305 494q0 -275 150 -275q149 0 151 275q2 101 -27 173q-39 101 -124 101q-150 0 -150 -274zM305 1114l187 371h245 l-299 -371h-133z" />
<glyph unicode="&#xf6;" horiz-adv-x="909" d="M47 492q0 215 94 350q109 156 314 157q204 2 313 -157q96 -140 96 -350q0 -213 -96 -351q-109 -158 -313 -158q-206 0 -314 157q-94 136 -94 352zM172 1296q0 47 36 83t83 36t84 -36t37 -83q0 -51 -33.5 -84.5t-87.5 -35.5q-50 -2 -85 34q-34 35 -34 86zM305 494 q0 -275 150 -275q149 0 151 275q2 101 -27 173q-39 101 -124 101q-150 0 -150 -274zM500 1296q0 46 35 83q36 36 83 36q48 0 85 -35q36 -34 36 -84q0 -116 -121 -120q-49 -1 -84 34q-34 35 -34 86z" />
<glyph unicode="&#xfa;" horiz-adv-x="903" d="M92 473v508h264v-631q0 -67 15 -94q19 -37 80 -37q53 0 73 29q23 26 23 102v631h264v-508q0 -257 -54 -354q-75 -135 -304 -136q-231 -2 -307 135q-54 98 -54 355zM303 1114l186 371h246l-299 -371h-133z" />
<glyph unicode="&#xfc;" horiz-adv-x="903" d="M92 473v508h264v-631q0 -67 15 -94q19 -37 80 -37q53 0 73 29q23 26 23 102v631h264v-508q0 -257 -54 -354q-75 -135 -304 -136q-231 -2 -307 135q-54 98 -54 355zM170 1296q0 47 36 83t83 36t84 -36t37 -83q0 -51 -33.5 -84.5t-87.5 -35.5q-49 -2 -85 34q-34 35 -34 86z M498 1296q0 48 35 83q35 36 83 36q46 0 84 -36q37 -36 37 -83q0 -51 -33.5 -84.5t-87.5 -35.5q-42 -1 -84 34q-34 38 -34 86z" />
<glyph unicode="&#x150;" horiz-adv-x="1157" d="M66 729q0 299 105 498q134 252 407 252q278 0 411 -262q103 -202 103 -508q0 -289 -110 -485q-136 -240 -404 -241q-278 -2 -409 248q-103 194 -103 498zM244 1593l186 371h246l-299 -371h-133zM356 729q0 -469 222 -469q223 0 223 469q0 471 -223 471q-222 0 -222 -471z M629 1593l186 371h246l-299 -371h-133z" />
<glyph unicode="&#x151;" horiz-adv-x="909" d="M47 492q0 215 94 350q109 156 314 157q204 2 313 -157q96 -140 96 -350q0 -213 -96 -351q-109 -158 -313 -158q-206 0 -314 157q-94 136 -94 352zM162 1114l186 371h248l-299 -371h-135zM305 494q0 -275 150 -275q149 0 151 275q2 101 -27 173q-39 101 -124 101 q-150 0 -150 -274zM481 1114l187 371h245l-299 -371h-133z" />
<glyph unicode="&#x170;" horiz-adv-x="1124" d="M106 543v917h291v-940q0 -175 35 -231q39 -51 131 -51q113 0 147 91q19 50 19 191v940h289v-917q0 -177 -10 -240q-10 -71 -33 -115q-105 -202 -412 -205t-413 205q-44 86 -44 355zM244 1593l186 371h246l-299 -371h-133zM629 1593l186 371h246l-299 -371h-133z" />
<glyph unicode="&#x171;" horiz-adv-x="903" d="M92 473v508h264v-631q0 -67 15 -94q19 -37 80 -37q53 0 73 29q23 26 23 102v631h264v-508q0 -257 -54 -354q-75 -135 -304 -136q-231 -2 -307 135q-54 98 -54 355zM207 1114l186 371h246l-299 -371h-133zM524 1114l189 371h245l-299 -371h-135z" />
<glyph unicode="&#x2c6;" horiz-adv-x="1024" d="M244 1114l168 371h200l168 -371h-121l-147 217l-147 -217h-121z" />
<glyph unicode="&#x2da;" horiz-adv-x="1024" d="M248 1362q-1 112 75 187q75 75 189 77q111 1 188 -76t78 -188q1 -112 -76 -189q-75 -75 -190 -77q-115 -1 -189 74q-73 76 -75 192zM387 1360q0 -122 125 -125q52 -1 89 36q38 38 38 89t-38 89t-89 38t-89 -38q-36 -37 -36 -89z" />
<glyph unicode="&#x2dc;" horiz-adv-x="1024" d="M244 1161q35 236 174 236q23 0 35 -4q24 -3 39 -11l75 -24l23 -6q10 0 20 -2q30 0 47 20q17 16 31 66h92q-17 -113 -43 -161q-44 -80 -133 -83q-27 -1 -61 10l-76 27q-26 9 -40 10h-15q-52 0 -74 -78h-94z" />
<glyph unicode="&#x2013;" horiz-adv-x="2048" d="M0 367v247h2048v-247h-2048z" />
<glyph unicode="&#x2014;" horiz-adv-x="1024" d="M0 367v247h1024v-247h-1024z" />
<glyph unicode="&#x2018;" horiz-adv-x="516" d="M33 854l248 606h202l-164 -606h-286z" />
<glyph unicode="&#x2019;" horiz-adv-x="516" d="M33 854l164 606h286l-247 -606h-203z" />
<glyph unicode="&#x201a;" horiz-adv-x="516" d="M33 -280l164 606h286l-247 -606h-203z" />
<glyph unicode="&#x201c;" d="M33 854l248 606h202l-164 -606h-286zM416 854l250 606h202l-163 -606h-289z" />
<glyph unicode="&#x201d;" d="M33 854l162 606h288l-247 -606h-203zM416 854l164 606h288l-247 -606h-205z" />
<glyph unicode="&#x201e;" d="M33 -280l162 606h288l-247 -606h-203zM416 -280l164 606h288l-247 -606h-205z" />
<glyph unicode="&#x2026;" horiz-adv-x="2048" d="M166 166q0 74 51 125t125 51t125 -51t51 -125q0 -75 -50 -127q-49 -50 -126 -50t-126 50q-50 52 -50 127zM848 166q0 74 51 125t125 51t125 -51t51 -125q0 -75 -50 -127q-49 -50 -126 -50t-126 50q-50 52 -50 127zM1532 166q0 74 51 125t125 51t125 -51t51 -125 q0 -75 -50 -127q-49 -50 -126 -50t-126 50q-50 52 -50 127z" />
<glyph unicode="&#x2039;" horiz-adv-x="463" d="M31 500l252 428l149 -84l-199 -344l199 -365l-149 -84z" />
<glyph unicode="&#x203a;" horiz-adv-x="463" d="M31 135l196 365l-196 344l149 84l252 -428l-252 -449z" />
<glyph unicode="&#x2122;" horiz-adv-x="1706" d="M225 1366v94h467v-94h-168v-448h-129v448h-170zM809 918v542h170l141 -360l133 360h170v-542h-114v428l-160 -428h-59l-166 428v-428h-115z" />
<glyph unicode="&#xe000;" horiz-adv-x="980" d="M0 0v980h980v-980h-980z" />
</font>
</defs>
</svg>
