<?xml version="1.0" standalone="no"?>
<!DOCTYPE svg PUBLIC "-//W3C//DTD SVG 1.1//EN" "http://www.w3.org/Graphics/SVG/1.1/DTD/svg11.dtd" >
<svg>
<metadata>
Created by FontForge 20090914 at Fri May 11 16:56:45 2012
 By www-data
Copyright 1990-1992 as an unpublished work by Bitstream Inc.  All rights reserved.  Confidential.
</metadata>
<defs>
<font id="HSwiss721ThinNormal" horiz-adv-x="500" >
  <font-face 
    font-family="HSwiss 721 Thin"
    font-weight="400"
    font-stretch="normal"
    units-per-em="1000"
    panose-1="0 0 0 0 0 0 0 0 0 0"
    ascent="800"
    descent="-200"
    x-height="519"
    cap-height="719"
    bbox="-168 -236 1075 963"
    underline-thickness="21"
    underline-position="-93"
    unicode-range="U+0020-U+F002"
  />
<missing-glyph 
d="M63 0v963h375v-963h-375zM125 63h250v838h-250v-838z" />
    <glyph glyph-name=".notdef" 
d="M63 0v963h375v-963h-375zM125 63h250v838h-250v-838z" />
    <glyph glyph-name="space" unicode=" " horiz-adv-x="260" 
 />
    <glyph glyph-name="exclam" unicode="!" horiz-adv-x="307" 
d="M143 179l-9 539h37l-4 -539h-24zM138 0v88h34v-88h-34z" />
    <glyph glyph-name="quotedbl" unicode="&#x22;" horiz-adv-x="259" 
d="M50 700h34v-270h-34v270zM175 700h34v-270h-34v270z" />
    <glyph glyph-name="numbersign" unicode="#" horiz-adv-x="769" 
d="M400 709h47l-88 -248h134l88 248h46l-87 -248h159l-11 -36h-162l-50 -142h174l-11 -36h-175l-87 -246h-47l88 246h-135l-88 -246h-46l87 246h-166l11 36h167l52 142h-182l11 36h183zM346 425l-49 -142h133l49 142h-133z" />
    <glyph glyph-name="dollar" unicode="$" horiz-adv-x="521" 
d="M241 373v298.999c-44.667 0 -80.167 -12.5 -106.5 -37.5s-39.5 -59.5 -39.5 -103.5c0 -44.667 13.667 -80 41 -106c22.667 -21.333 57.667 -38.666 105 -51.999zM241 -83.001l-0.000976562 69.001c-64 6 -112.833 27.833 -146.5 65.5s-50.5 88.5 -50.5 152.5l32 3
c0 -112 55 -174.667 165 -188v320c-119.333 31.333 -179 94.333 -179 189c0 54 16.333 96.667 49 128s76 47 130 47v45h30v-45c58.667 0 104.834 -14.333 138.501 -43s50.5 -72 50.5 -130h-29c0 94.667 -52.333 142 -157 142l-3 -306c137.333 -24 206 -86.667 206 -188
c0 -62.667 -18.5 -110.334 -55.5 -143.001s-87.167 -49 -150.5 -49v-69h-30zM270.999 19c114 10.667 171 63 171 157c0 80.667 -57 132.667 -171 156v-313z" />
    <glyph glyph-name="percent" unicode="%" horiz-adv-x="727" 
d="M71 565c0 -33.333 11.999 -62 35.999 -86s52.667 -36 86 -36c34.667 0 63.834 11.667 87.501 35s35.5 52.333 35.5 87c0 34 -12 62.833 -36 86.5s-53 35.5 -87 35.5s-62.833 -11.833 -86.5 -35.5s-35.5 -52.5 -35.5 -86.5zM39.999 566
c0 42.667 14.832 78.833 44.499 108.5s65.834 44.5 108.501 44.5c43.333 0 79.5 -14.667 108.5 -44s43.5 -65.666 43.5 -108.999c0 -42.667 -14.667 -78.834 -44 -108.501s-65.333 -44.5 -108 -44.5c-42 0 -78 15 -108 45s-45 66 -45 108zM145.998 -16.001l399 735h35
l-400 -735h-34zM380.998 135.999c0 42.667 14.8311 78.834 44.498 108.501s65.834 44.5 108.501 44.5s78.834 -14.833 108.501 -44.5s44.5 -65.834 44.5 -108.501c0 -43.333 -14.667 -79.5 -44 -108.5s-65.666 -43.5 -108.999 -43.5c-42.667 0 -78.834 14.667 -108.501 44
s-44.5 65.333 -44.5 108zM411.996 135.999c0 -33.333 12 -62 36 -86s52.667 -36 86 -36c34 0 62.833 11.833 86.5 35.5s35.5 52.5 35.5 86.5s-11.833 62.833 -35.5 86.5s-52.5 35.5 -86.5 35.5s-62.833 -11.833 -86.5 -35.5s-35.5 -52.5 -35.5 -86.5z" />
    <glyph glyph-name="ampersand" unicode="&#x26;" horiz-adv-x="609" 
d="M265 430c88.667 38.667 133 90 133 154c0 32 -10.5 57.833 -31.5 77.5s-47.5 29.5 -79.5 29.5c-29.333 0 -54.333 -9.5 -75 -28.5s-31 -42.833 -31 -71.5c0 -46 28 -99.667 84 -161zM471 124l-216 267c-111.333 -39.333 -167 -105 -167 -197c0 -52 17 -95.667 51 -131
s76.667 -53 128 -53c83.333 0 151.333 38 204 114zM571 0l-79.001 95.999c-62 -77.333 -134 -116 -216 -116c-64.667 0 -117.667 19.333 -159 58s-62 90.334 -62 155.001c0 96 59.667 170.667 179 224c-57.333 72 -86 128.333 -86 169c0 41.333 13.333 73.833 40 97.5
s61 35.5 103 35.5c40.667 0 73.834 -12.333 99.501 -37s38.5 -57.334 38.5 -98.001c0 -74.667 -48.333 -134 -145 -178l205 -255c26 50.667 39 108.334 39 173.001h31c0 -78 -16 -144.333 -48 -199l101 -125h-41z" />
    <glyph glyph-name="quotesingle" unicode="'" horiz-adv-x="134" 
d="M50 700h34v-270h-34v270z" />
    <glyph glyph-name="parenleft" unicode="(" horiz-adv-x="288" 
d="M285 -220l-34 0.000976562c-102.667 153.333 -154 312.666 -154 477.999c0 164 47.667 316.667 143 458h35c-96.667 -136 -145 -287.333 -145 -454c0 -168 51.667 -328.667 155 -482z" />
    <glyph glyph-name="parenright" unicode=")" horiz-adv-x="288" 
d="M6 -220c104 154 156 314.667 156 482c0 166.667 -48.333 318 -145 454h35c95.333 -141.333 143 -294 143 -458s-51.667 -323.333 -155 -478h-34z" />
    <glyph glyph-name="asterisk" unicode="*" 
d="M169 436l-26 20l87 109l-128 35l12 34l123 -45l-4 130h34l-4 -130l122 45l13 -34l-128 -35l86 -109l-25 -20l-82 112z" />
    <glyph glyph-name="plus" unicode="+" horiz-adv-x="833" 
d="M402 596h30v-283h277v-30h-277v-283h-30v283h-278v30h278v283z" />
    <glyph glyph-name="comma" unicode="," horiz-adv-x="260" 
d="M67 -105l71 191h34l-71 -191h-34z" />
    <glyph glyph-name="hyphen" unicode="-" horiz-adv-x="343" 
d="M38 244v28h266v-28h-266z" />
    <glyph glyph-name="hyphen" unicode="&#x2010;" horiz-adv-x="343" 
d="M38 244v28h266v-28h-266z" />
    <glyph glyph-name="period" unicode="." horiz-adv-x="260" 
d="M114 0v87h32v-87h-32z" />
    <glyph glyph-name="slash" unicode="/" horiz-adv-x="292" 
d="M270 738h34l-283 -822h-34z" />
    <glyph glyph-name="zero" unicode="0" horiz-adv-x="521" 
d="M39 340c0 96 13.332 174 39.999 234c36.667 83.333 97 125 181 125c83.333 0 143.666 -41.667 180.999 -125c27.333 -60.667 41 -138.667 41 -234s-13.667 -173.333 -41 -234c-37.333 -84 -97.666 -126 -180.999 -126s-143.666 42 -180.999 126
c-26.667 60 -40 138 -40 234zM72.999 340c0 -86.667 10.666 -157 31.999 -211c31.333 -79.333 83.333 -119 156 -119s124.334 39.667 155.001 119c21.333 54.667 32 125 32 211c0 219.333 -62.333 329 -187 329c-125.333 0 -188 -109.667 -188 -329z" />
    <glyph glyph-name="one" unicode="1" horiz-adv-x="521" 
d="M275 0v593c-40 -46 -95 -69 -165 -69h-9v29c102.667 0 160.667 42 174 126h33v-679h-33z" />
    <glyph glyph-name="two" unicode="2" horiz-adv-x="521" 
d="M50 0v49.001c0 45.333 8 80.666 24 105.999c24.667 39.333 72.334 80.333 143.001 123l95 56c31.333 18.667 55.333 36.667 72 54c32 32.667 48 72.667 48 120c0 48 -14.5 86.5 -43.5 115.5s-67.5 43.5 -115.5 43.5c-52 0 -93 -15.333 -123 -46s-45 -72 -45 -124v-11h-35
v9c0 62.667 18.167 112.167 54.5 148.5s85.833 54.5 148.5 54.5c57.333 0 104.166 -16.833 140.499 -50.5s54.5 -79.167 54.5 -136.5c0 -51.333 -15 -94.333 -45 -129c-22.667 -26.667 -64.667 -58 -126 -94c-144 -85.333 -216 -161.666 -216 -228.999
c0 -12.667 0.666992 -22.334 2 -29.001h381v-30h-414z" />
    <glyph glyph-name="three" unicode="3" horiz-adv-x="521" 
d="M46 206l34 0.00390625c0 -58.667 14 -104.667 42 -138c30 -36 73.667 -54 131 -54c54.667 0 99 14.667 133 44c36.667 31.333 55 73.666 55 126.999c0 105.333 -70 158 -210 158h-20v29l23 -1c53.333 -2 97 9.66699 131 35c36.667 28 55 68 55 120
c0 47.333 -14.5 82.666 -43.5 105.999s-67.5 35 -115.5 35c-52 0 -92.333 -15 -121 -45s-43 -71.333 -43 -124v-5h-31c0 65.333 17.333 115.666 52 150.999s84.667 53 150 53c54.667 0 99.5 -15 134.5 -45s52.5 -71.667 52.5 -125c0 -38.667 -10.167 -73.334 -30.5 -104.001
s-48.833 -51.667 -85.5 -63c43.333 -9.33301 77 -29 101 -59s36 -67.333 36 -112c0 -64 -21.333 -115 -64 -153c-40 -36 -92.667 -54 -158 -54c-67.333 0 -118.833 19.5 -154.5 58.5s-53.5 92.5 -53.5 160.5v5z" />
    <glyph glyph-name="four" unicode="4" horiz-adv-x="521" 
d="M367 211v412l-286 -412h286zM366 0v181h-319v32l322 466h29v-468h77v-30h-77v-181h-32z" />
    <glyph glyph-name="five" unicode="5" horiz-adv-x="521" 
d="M48 175h32.001c10.667 -110 67.667 -165 171 -165c59.333 0 105.5 18 138.5 54s49.5 84 49.5 144c0 56.667 -16.333 102.167 -49 136.5s-77.334 51.5 -134.001 51.5c-66.667 0 -119 -24 -157 -72h-27l56 355h317v-30h-291l-43 -272c40 32 90.333 48 151 48
c64.667 0 116 -20.5 154 -61.5s57 -94.167 57 -159.5c0 -68 -19.833 -122.5 -59.5 -163.5s-93.167 -61.5 -160.5 -61.5c-60.667 0 -108.5 17.333 -143.5 52s-55.5 82.667 -61.5 144z" />
    <glyph glyph-name="six" unicode="6" horiz-adv-x="521" 
d="M466 529h-31.999c-13.333 91.333 -65 137 -155 137c-136.667 0 -202.667 -111.667 -198 -335l1 -50c26 106.667 89.333 160 190 160c66 0 117 -22.333 153 -67c33.333 -41.333 50 -95.666 50 -162.999c0 -66 -17 -120 -51 -162c-36.667 -46 -87 -69 -151 -69
c-150.667 0 -226 114.333 -226 343c0 249.333 79.333 374 238 374c52.667 0 94.667 -14.833 126 -44.5s49.666 -70.834 54.999 -123.501zM440.001 211c0 57.333 -13.667 104 -41 140c-30 40 -72.667 60 -128 60s-98.333 -20 -129 -60c-28 -36 -42 -82.333 -42 -139
s13.333 -103 40 -139c29.333 -40.667 71.333 -61 126 -61c56.667 0 100.667 19.333 132 58c28 36 42 83 42 141z" />
    <glyph glyph-name="seven" unicode="7" horiz-adv-x="521" 
d="M154 0c34 240.667 123.333 456.333 268 647h-364v32h405v-33c-141.333 -168 -233.333 -383.333 -276 -646h-33z" />
    <glyph glyph-name="eight" unicode="8" horiz-adv-x="521" 
d="M176 373c-69.333 29.333 -104.001 79.667 -104.001 151c0 54.667 18 97.667 54 129c34 30 78.667 45 134 45c56 0 101 -14.667 135 -44c35.333 -31.333 53 -74.666 53 -129.999c0 -70 -34.333 -120.333 -103 -151c88 -29.333 132 -89.333 132 -180
c0 -66 -20 -117.833 -60 -155.5s-93.333 -56.5 -160 -56.5c-63.333 0 -114.666 19 -153.999 57s-59 88.333 -59 151c0 91.333 44 152.666 132 183.999zM107.999 527.001c0 -44 14.167 -78.5 42.5 -103.5s64.833 -37.5 109.5 -37.5s81.334 12.5 110.001 37.5
s43 59.5 43 103.5s-14.333 78.667 -43 104s-65.334 38 -110.001 38s-80.667 -12.333 -108 -37c-29.333 -26 -44 -61 -44 -105zM78.999 194.001c0 -53.333 16.833 -96.498 50.5 -129.498s77.167 -49.5 130.5 -49.5c54 0 97.833 16.167 131.5 48.5s50.5 75.166 50.5 128.499
c0 54 -17.333 95.333 -52 124c-32 26.667 -75.333 40 -130 40c-54 0 -97 -13.333 -129 -40c-34.667 -28.667 -52 -69.334 -52 -122.001z" />
    <glyph glyph-name="nine" unicode="9" horiz-adv-x="521" 
d="M55 148l31.999 -0.000976562c13.333 -91.333 65 -137 155 -137c136.667 0 202.667 111.667 198 335l-1 50c-26 -106.667 -89.333 -160 -190 -160c-65.333 0 -116 22.667 -152 68c-33.333 41.333 -50 95.333 -50 162c0 65.333 16.667 119.333 50 162
c36.667 46 87 69 151 69c151.333 0 227 -114.333 227 -343c0 -249.333 -79.667 -374 -239 -374c-52.667 0 -94.667 14.833 -126 44.5s-49.666 70.834 -54.999 123.501zM80.999 465.999c0 -57.333 13.667 -104 41 -140c30 -40 72.667 -60 128 -60c54.667 0 97.667 20 129 60
c28.667 36.667 43 83 43 139c0 56.667 -13.333 103 -40 139c-30 40.667 -72.333 61 -127 61c-56.667 0 -100.667 -19.333 -132 -58c-28 -36 -42 -83 -42 -141z" />
    <glyph glyph-name="colon" unicode=":" horiz-adv-x="284" 
d="M125 0v87h33v-87h-33zM125 400v87h33v-87h-33z" />
    <glyph glyph-name="semicolon" unicode=";" horiz-adv-x="284" 
d="M64 -105l70 191h35l-72 -191h-33zM136 400v87h32v-87h-32z" />
    <glyph glyph-name="less" unicode="&#x3c;" horiz-adv-x="833" 
d="M704 543v-34l-522 -211l522 -211v-34l-575 235v20z" />
    <glyph glyph-name="equal" unicode="=" horiz-adv-x="833" 
d="M124 400h585v-30h-585v30zM124 227h585v-30h-585v30z" />
    <glyph glyph-name="greater" unicode="&#x3e;" horiz-adv-x="833" 
d="M129 543l575 -235v-20l-575 -235v34l521 211l-521 211v34z" />
    <glyph glyph-name="question" unicode="?" horiz-adv-x="463" 
d="M204 177c0 63.333 9.33496 110.998 28.002 142.998c10 16.667 25.667 35.334 47 56.001l45 42c50 48 75 94.333 75 139c0 49.333 -16 86.333 -48 111c-28.667 22.667 -68.334 34 -119.001 34c-56 0 -98 -16.5 -126 -49.5s-42 -77.833 -42 -134.5l-33 -3
c0 68 17.667 121.5 53 160.5s86.666 58.5 153.999 58.5c57.333 0 103.333 -14.333 138 -43c38 -30.667 57 -74 57 -130c0 -58.667 -28.667 -114.667 -86 -168l-46 -42c-14 -13.333 -25.333 -25.666 -34 -36.999c-12 -16 -21 -45.333 -27 -88c-2.66699 -20 -4 -36.333 -4 -49
h-32zM201.002 -0.00195312v86h39v-86h-39z" />
    <glyph glyph-name="at" unicode="@" horiz-adv-x="1000" 
d="M631 353c-15.333 68 -55.001 102.001 -119.001 102.001c-57.333 0 -102.666 -26.333 -135.999 -79c-28.667 -44.667 -43 -97.334 -43 -158.001c0 -82.667 36.333 -124 109 -124c40 0 74 12.667 102 38c26.667 23.333 45 55 55 95zM582.999 155.001
c-32.667 -61.333 -79.6709 -92 -141.004 -92c-102.667 0 -154 52.667 -154 158c0 70 19.667 130.333 59 181c42.667 56 98 84 166 84c64 0 106 -28.667 126 -86l30 66h32l-67 -267c-8 -32 -12 -51.667 -12 -59c0 -30.667 20.333 -46 61 -46c44 0 84 16.667 120 50
c32 29.333 56.333 66.333 73 111c14.667 38.667 22 80.334 22 125.001c0 96 -37 170.667 -111 224c-65.333 48 -147.666 72 -246.999 72c-109.333 0 -201.666 -30.667 -276.999 -92c-104.667 -84.667 -157 -196.667 -157 -336c0 -112.667 39 -201 117 -265
c72 -58.667 165.667 -88 281 -88c111.333 0 214 31.333 308 94l11 -17c-94 -70 -198.667 -105 -314 -105c-124 0 -224.333 29.333 -301 88c-97.333 74.667 -146 175 -146 301c0 106 32 198 96 276c94.667 115.333 223.334 173 386.001 173c108.667 0 198 -27 268 -81
c84 -64.667 126 -146.334 126 -245.001c0 -112 -39 -199 -117 -261c-45.333 -36 -94.666 -54 -147.999 -54c-61.333 0 -92 23 -92 69z" />
    <glyph glyph-name="A" unicode="A" horiz-adv-x="574" 
d="M134 275h311l-154 405zM-6 0l278 719h38l273 -719h-33l-93 245h-335l-94 -245h-34z" />
    <glyph glyph-name="B" unicode="B" horiz-adv-x="618" 
d="M116 30l178 0.000976562c79.333 0 133.333 6 162 18c58.667 24.667 88 74.667 88 150c0 65.333 -27.333 110.666 -82 135.999c-38 18 -93.667 27 -167 27h-179v-331zM116 387.001l167.001 0.000976562c150 0 225 52 225 156c0 61.333 -24 102.666 -72 123.999
c-32.667 14.667 -84.334 22 -155.001 22h-165v-302zM82.001 0.00195312v719.001h197c88.667 0 150.667 -10.333 186 -31c51.333 -30 77 -79 77 -147c0 -79.333 -41 -134 -123 -164c106.667 -20.667 160 -82.334 160 -185.001c0 -71.333 -26.667 -123.333 -80 -156
c-39.333 -24 -105.333 -36 -198 -36h-219z" />
    <glyph glyph-name="C" unicode="C" horiz-adv-x="681" 
d="M628 238c0 -79.333 -27 -141.999 -81 -187.999c-50.667 -43.333 -116.334 -65 -197.001 -65c-102.667 0 -180 38 -232 114c-44.667 65.333 -67 151.666 -67 258.999c0 109.333 22.667 197 68 263c53.333 76 132.333 114 237 114c71.333 0 131.666 -19.667 180.999 -59
c52.667 -41.333 82.334 -96.666 89.001 -165.999h-34c-10 63.333 -36.5 111.666 -79.5 144.999s-97.167 50 -162.5 50c-90 0 -158.333 -37 -205 -111c-39.333 -62 -59 -140.667 -59 -236c0 -96.667 18.667 -175 56 -235c44.667 -72.667 112.334 -109 203.001 -109
c72.667 0 131.667 19 177 57c48.667 40 73 95.667 73 167h33z" />
    <glyph glyph-name="D" unicode="D" horiz-adv-x="689" 
d="M82 0v719h165c107.333 0 184.333 -11.667 231 -35c106 -52.667 159 -161 159 -325c0 -166 -53 -274 -159 -324c-49.333 -23.333 -126.333 -35 -231 -35h-165zM116 30l139 -0.000976562c97.333 0 168.666 12 213.999 36c88.667 46.667 133 144.334 133 293.001
c0 122 -31.667 211 -95 267c-30 26 -69.667 43.667 -119 53c-33.333 6 -77.666 9 -132.999 9h-139v-658z" />
    <glyph glyph-name="E" unicode="E" horiz-adv-x="567" 
d="M82 0v719h439v-32h-405v-297h370v-31h-370v-327h415v-32h-449z" />
    <glyph glyph-name="F" unicode="F" horiz-adv-x="523" 
d="M82 0v719h420v-32h-386v-297h341v-31h-341v-359h-34z" />
    <glyph glyph-name="G" unicode="G" horiz-adv-x="709" 
d="M625 0l0.00292969 141.001c-51.333 -104.667 -138.333 -157 -261 -157c-104 0 -183.667 37.667 -239 113c-48.667 67.333 -73 154.666 -73 261.999s24.667 194.666 74 261.999c55.333 76 134.666 114 237.999 114c76 0 138 -17.667 186 -53
c52 -38 83.333 -93.667 94 -167h-34c-12 62.667 -40.333 110.334 -85 143.001c-42 31.333 -95.667 47 -161 47c-93.333 0 -164.333 -35.667 -213 -107c-42.667 -62 -64 -141.667 -64 -239c0 -98 21 -177.667 63 -239c49.333 -70.667 120.666 -106 213.999 -106
c81.333 0 144.666 24.333 189.999 73s68 114 68 196v31h-237v30h269v-344h-29z" />
    <glyph glyph-name="H" unicode="H" horiz-adv-x="686" 
d="M82 0v719h34v-320h455v320h33v-719h-33v369h-455v-369h-34z" />
    <glyph glyph-name="I" unicode="I" horiz-adv-x="207" 
d="M87 0v719h33v-719h-33z" />
    <glyph glyph-name="J" unicode="J" horiz-adv-x="473" 
d="M39 224h31.001l-1 -29c-4 -121.333 45.333 -182 148 -182c59.333 0 100.333 20.667 123 62c16.667 30.667 25 78.667 25 144v500h33v-510c0 -72 -12.333 -126 -37 -162c-29.333 -42.667 -78.333 -64 -147 -64c-58.667 0 -103.667 18.667 -135 56
c-28.667 35.333 -42.334 83 -41.001 143z" />
    <glyph glyph-name="K" unicode="K" horiz-adv-x="582" 
d="M82 0v719h34v-405l399 405h43l-284 -288l327 -431h-40l-309 408l-136 -138v-270h-34z" />
    <glyph glyph-name="L" unicode="L" horiz-adv-x="509" 
d="M83 0v719h34v-687h381v-32h-415z" />
    <glyph glyph-name="M" unicode="M" horiz-adv-x="773" 
d="M82 0v719h48l257 -677l257 677h47v-719h-30v677l-259 -677h-32l-258 677v-677h-30z" />
    <glyph glyph-name="N" unicode="N" horiz-adv-x="682" 
d="M82 0v719h34l451 -662v662h33v-719h-33l-452 661v-661h-33z" />
    <glyph glyph-name="O" unicode="O" horiz-adv-x="741" 
d="M52 359c0 109.333 25 197.333 75 264c56 74.667 137 112 243 112s187 -37.333 243 -112c50.667 -66.667 76 -154.667 76 -264c0 -110 -25 -198 -75 -264c-56 -74 -137.333 -111 -244 -111s-187.667 37 -243 111c-50 66 -75 154 -75 264zM87 359
c0 -100 21.667 -180.331 65 -240.998c49.333 -69.333 122 -104 218 -104s169 34.667 219 104c43.333 61.333 65 141.666 65 240.999s-22 179.666 -66 240.999c-50 70 -122.667 105 -218 105s-168 -35 -218 -105c-43.333 -62 -65 -142.333 -65 -241z" />
    <glyph glyph-name="P" unicode="P" horiz-adv-x="575" 
d="M254 689l-138 -0.000976562v-327h163c66 0 113 6.33301 141 19c54.667 24.667 82 75 82 151c0 60.667 -24 104.334 -72 131.001c-31.333 17.333 -90 26 -176 26zM278 718.999c78.667 0 138.333 -11.667 179 -35c53.333 -30 80 -81.667 80 -155
c0 -46 -11.333 -85.333 -34 -118c-24 -35.333 -57.667 -58 -101 -68c-32 -7.33301 -74.333 -11 -127 -11h-159v-332h-34v719h196z" />
    <glyph glyph-name="Q" unicode="Q" horiz-adv-x="741" 
d="M442 125l20 23.002l91 -72c67.333 61.333 101 155.666 101 282.999c0 99.333 -22 179.666 -66 240.999c-50 70 -122.667 105 -218 105s-168 -35 -218 -105c-43.333 -62 -65 -142.333 -65 -241c0 -100 21.333 -180.333 64 -241c49.333 -68.667 122.333 -103 219 -103
c64.667 0 116.667 13.667 156 41zM653 -47.998l-101 83c-46 -34 -109 -51 -189 -51c-104 0 -183.333 38 -238 114c-48.667 66.667 -73 153.667 -73 261c0 109.333 25 197.333 75 264c56 74.667 137 112 243 112c104 0 184.333 -36.333 241 -109c52 -66 78 -152.333 78 -259
c0 -135.333 -37.333 -239.333 -112 -312l97 -79z" />
    <glyph glyph-name="R" unicode="R" horiz-adv-x="622" 
d="M116 370h222c130 0 195 52.667 195 158c0 36.667 -9 68.667 -27 96c-19.333 30 -46 48.667 -80 56c-24.667 5.33301 -59.667 8 -105 8h-205v-318zM82 0l-0.000976562 719h239c78.667 0 136.667 -11.333 174 -34c48 -28.667 72 -80 72 -154
c0 -91.333 -43.333 -150.333 -130 -177c62.667 -12 96.334 -53.333 101.001 -124l11 -168c2 -25.333 9.33301 -46 22 -62h-37c-15.333 18.667 -23 67.667 -23 147c0 72.667 -10.333 122 -31 148c-24 30 -71.333 45 -142 45h-222v-340h-34z" />
    <glyph glyph-name="S" unicode="S" horiz-adv-x="573" 
d="M45 219l33.002 0.000976562c0 -63.333 19.667 -113.333 59 -150s90.666 -55 153.999 -55c55.333 0 102 14 140 42c42.667 30.667 64 72.667 64 126c0 51.333 -17.333 89.666 -52 114.999c-25.333 18.667 -78.333 39.334 -159 62.001
c-50.667 14 -80.334 22.667 -89.001 26c-37.333 13.333 -64.333 27.666 -81 42.999c-34 31.333 -51 71 -51 119c0 60.667 21.333 107.667 64 141c39.333 31.333 90 47 152 47c68 0 122.667 -18 164 -54c44 -38 66 -90.333 66 -157h-32c0 57.333 -19.333 102.666 -58 135.999
c-36 31.333 -83.333 47 -142 47c-54 0 -97 -13 -129 -39c-35.333 -28 -53 -68.333 -53 -121c0 -37.333 14.667 -69.666 44 -96.999c18.667 -17.333 70.667 -38 156 -62c88.667 -25.333 147 -48.333 175 -69c39.333 -29.333 59 -72 59 -128
c0 -67.333 -23.667 -119.333 -71 -156c-43.333 -34 -99.333 -51 -168 -51c-72.667 0 -131.667 21.167 -177 63.5s-68 99.5 -68 171.5z" />
    <glyph glyph-name="T" unicode="T" horiz-adv-x="509" 
d="M240 0v688h-228v31h486v-31h-224v-688h-34z" />
    <glyph glyph-name="U" unicode="U" horiz-adv-x="671" 
d="M77 719l33 0.000976562v-452c0 -168.667 75.333 -253 226 -253s226 84.333 226 253v452h33v-468c0 -82.667 -22.667 -147.834 -68 -195.501s-109 -71.5 -191 -71.5c-83.333 0 -147.333 23.5 -192 70.5s-67 112.5 -67 196.5v468z" />
    <glyph glyph-name="V" unicode="V" horiz-adv-x="525" 
d="M246 0l-249 719h35l231 -670l230 670h35l-250 -719h-32z" />
    <glyph glyph-name="W" unicode="W" horiz-adv-x="824" 
d="M200 0l-192 719h34l176 -659l174 659h41l174 -659l175 659h34l-192 -719h-34l-178 672l-178 -672h-34z" />
    <glyph glyph-name="X" unicode="X" horiz-adv-x="530" 
d="M1 0l244 368l-233 351h39l214 -323l213 323h37l-230 -350l244 -369h-38l-228 339l-225 -339h-37z" />
    <glyph glyph-name="Y" unicode="Y" horiz-adv-x="530" 
d="M248 0v318l-247 401h38l227 -367l224 367h38l-247 -403v-316h-33z" />
    <glyph glyph-name="Z" unicode="Z" horiz-adv-x="529" 
d="M9 0v33l462 655h-423v31h459v-34l-462 -655h474v-30h-510z" />
    <glyph glyph-name="bracketleft" unicode="[" horiz-adv-x="302" 
d="M284 -206h-169v924h169v-30h-134v-864h134v-30z" />
    <glyph glyph-name="backslash" unicode="\" horiz-adv-x="292" 
d="M-13 738h34l283 -822h-34z" />
    <glyph glyph-name="bracketright" unicode="]" horiz-adv-x="302" 
d="M22 -206v30h134v864h-134v30h169v-924h-169z" />
    <glyph glyph-name="asciicircum" unicode="^" horiz-adv-x="1000" 
d="M475 711h48l268 -270h-53l-238 236l-239 -236h-53z" />
    <glyph glyph-name="underscore" unicode="_" 
d="M0 -206h500v-30h-500v30z" />
    <glyph glyph-name="grave" unicode="`" 
d="M306 584h-31l-124 160h53z" />
    <glyph glyph-name="a" unicode="a" horiz-adv-x="507" 
d="M494 -3l-28 -2.99902c-45.333 0 -68 31.333 -68 94c-43.333 -67.333 -113 -101 -209 -101c-45.333 0 -82.5 13.167 -111.5 39.5s-43.5 61.833 -43.5 106.5c0 53.333 22.333 92.666 67 117.999c30.667 17.333 77.334 30.333 140.001 39c31.333 3.33301 62.666 7 93.999 11
c42 8.66699 63 25 63 49v44c0 72.667 -46.667 109 -140 109c-48 0 -87 -9.33301 -117 -28c-36 -22 -54 -55.667 -54 -101h-30c0 52 20.667 92 62 120c36 24.667 81.333 37 136 37c96 0 152.333 -32.333 169 -97c3.33301 -12.667 5 -36 5 -70v-253
c0 -30 1.33301 -49.667 4 -59c6 -20.667 20 -31 42 -31l19 2v-26zM398 297.001c-8.66699 -10 -56.667 -20.667 -144 -32c-55.333 -6.66699 -96.333 -16.667 -123 -30c-42.667 -20.667 -64 -53 -64 -97c0 -38.667 12 -68.334 36 -89.001s55.667 -31 95 -31
c60.667 0 110 17 148 51c22 19.333 36.667 42 44 68c5.33301 18.667 8 46.334 8 83.001v77z" />
    <glyph glyph-name="b" unicode="b" horiz-adv-x="572" 
d="M69 0v718h32v-317c36.667 86 102 129 196 129c76.667 0 135 -27 175 -81c36 -48 54 -111.667 54 -191s-18 -143 -54 -191c-40 -54 -98.333 -81 -175 -81c-90.667 0 -156 41.333 -196 124v-110h-32zM101 258c0 -69.333 14.999 -125.667 44.999 -169
c34 -50 84.333 -75 151 -75s117.334 25 152.001 75c30 43.333 45 99.666 45 168.999c0 68.667 -15.333 125 -46 169c-34.667 50 -85 75 -151 75c-66.667 0 -117 -25 -151 -75c-30 -43.333 -45 -99.666 -45 -168.999z" />
    <glyph glyph-name="c" unicode="c" horiz-adv-x="519" 
d="M474 167c-6 -56 -27.5 -100.171 -64.5 -132.504s-83.833 -48.5 -140.5 -48.5c-74.667 0 -132 27.667 -172 83c-35.333 48.667 -53 111.667 -53 189c0 78.667 17.667 142.334 53 191.001c40.667 54 99 81 175 81c54 0 98.5 -14 133.5 -42s56.167 -68.333 63.5 -121h-32
c-7.33301 42.667 -25.833 75.834 -55.5 99.501s-66.167 35.5 -109.5 35.5c-66.667 0 -117 -25 -151 -75c-30 -43.333 -45 -99.666 -45 -168.999s15 -125.666 45 -168.999c34 -50 84.333 -75 151 -75c46 0 84.667 14 116 42s50 65 56 111h30z" />
    <glyph glyph-name="d" unicode="d" horiz-adv-x="572" 
d="M502 718v-718h-31v115c-34 -86 -99.333 -129 -196 -129c-76.667 0 -135 27 -175 81c-36 48 -54 111.667 -54 191s18 143 54 191c40 54 98.333 81 175 81c98 0 163.333 -41.667 196 -125v313h31zM471 258c0 69.333 -14.999 125.667 -44.999 169c-34 50 -84.333 75 -151 75
s-117.334 -25 -152.001 -75c-30 -43.333 -45 -99.666 -45 -168.999c0 -68.667 15.333 -125 46 -169c34.667 -50 85 -75 151 -75c66.667 0 117 25 151 75c30 43.333 45 99.666 45 168.999z" />
    <glyph glyph-name="e" unicode="e" horiz-adv-x="523" 
d="M471 152c-11.333 -50.667 -35.833 -91.0039 -73.5 -121.004s-82.5 -45 -134.5 -45c-74 0 -130.333 28 -169 84c-34 48.667 -51 111.334 -51 188.001s17 139.334 51 188.001c38.667 56 95 84 169 84c73.333 0 129 -25 167 -75c34 -44.667 51 -104.667 51 -180v-19h-405v-8
c0 -63.333 15 -116.666 45 -159.999c34 -49.333 81.333 -74 142 -74c44 0 81.5 12.333 112.5 37s52.5 58.334 64.5 101.001h31zM77 284.996h370c0 60 -14.333 110 -43 150c-32 44.667 -77 67 -135 67c-61.333 0 -109.333 -21.333 -144 -64c-32 -39.333 -48 -90.333 -48 -153
z" />
    <glyph glyph-name="f" unicode="f" horiz-adv-x="243" 
d="M222 696l-18 1c-31.333 2 -52 -7.66699 -62 -29c-6 -13.333 -9 -38.333 -9 -75v-74h87v-29h-87v-490h-31v490h-72v29h72v73c0 45.333 5 77 15 95c13.333 26 40.333 38 81 36l24 -1v-26z" />
    <glyph glyph-name="g" unicode="g" horiz-adv-x="572" 
d="M471 111c-36 -84 -102.003 -125.998 -198.003 -125.998c-75.333 0 -133 27.667 -173 83c-36 48.667 -54 112 -54 190c0 79.333 18 143 54 191c40 54 98.333 81 175 81c44.667 0 84.834 -11 120.501 -33s60.834 -53.333 75.501 -94v116h31v-491
c0 -37.333 -1.33301 -63 -4 -77c-4.66699 -24.667 -14.334 -48 -29.001 -70c-40.667 -60 -110 -90 -208 -90c-54 0 -98.333 11.667 -133 35c-40.667 27.333 -61 66.666 -61 117.999h30c0 -43.333 18.667 -76 56 -98c30.667 -18 69.334 -27 116.001 -27
c86.667 0 146.334 29.333 179.001 88c15.333 27.333 23 77.666 23 150.999v53zM470.997 258.002c0 69.333 -14.999 125.667 -44.999 169c-34 50 -84.333 75 -151 75s-117.334 -25 -152.001 -75c-30 -43.333 -45 -99.666 -45 -168.999c0 -68.667 15.333 -125 46 -169
c34.667 -50 85 -75 151 -75c66.667 0 117 25 151 75c30 43.333 45 99.666 45 168.999z" />
    <glyph glyph-name="h" unicode="h" horiz-adv-x="521" 
d="M69 0v718h32v-284c33.333 64 91.666 96 174.999 96c118.667 0 178 -62 178 -186v-344h-32v334c0 55.333 -10 96 -30 122c-23.333 30 -61.666 45 -114.999 45c-98 0 -155 -44.333 -171 -133c-3.33301 -18.667 -5 -48.667 -5 -90v-278h-32z" />
    <glyph glyph-name="i" unicode="i" horiz-adv-x="175" 
d="M72 634v84h31v-84h-31zM72 0v519h31v-519h-31z" />
    <glyph glyph-name="j" unicode="j" horiz-adv-x="175" 
d="M73 519l31 -0.000976562v-600c0 -49.333 -5 -81.666 -15 -96.999c-12.667 -19.333 -38.667 -29 -78 -29h-18v30h11c32 0 52 7.66699 60 23c6 11.333 9 39.333 9 84v589zM73 633.999v84h31v-84h-31z" />
    <glyph glyph-name="k" unicode="k" horiz-adv-x="458" 
d="M69 0v718h32v-495l299 296h39l-189 -189l219 -330h-36l-205 308l-127 -123v-185h-32z" />
    <glyph glyph-name="l" unicode="l" horiz-adv-x="175" 
d="M72 0v718h31v-718h-31z" />
    <glyph glyph-name="m" unicode="m" horiz-adv-x="817" 
d="M69 0l-0.000976562 518.998h32v-85c34 64 88 96 162 96c82.667 0 134 -35.333 154 -106c35.333 70.667 91.666 106 168.999 106c109.333 0 164 -62 164 -186v-344h-32v312c0 58.667 -5 99.334 -15 122.001c-19.333 44.667 -58.666 67 -117.999 67
c-62 0 -105.667 -22.667 -131 -68c-19.333 -34.667 -29 -85.667 -29 -153v-280h-31v312c0 58.667 -5 99.334 -15 122.001c-19.333 44.667 -58.666 67 -117.999 67c-62 0 -105.667 -22.667 -131 -68c-19.333 -34.667 -29 -85.667 -29 -153v-280h-32z" />
    <glyph glyph-name="n" unicode="n" horiz-adv-x="521" 
d="M69 0v519h32v-85c33.333 64 91.666 96 174.999 96c118.667 0 178 -62 178 -186v-344h-32v334c0 55.333 -10 96 -30 122c-23.333 30 -61.666 45 -114.999 45c-98 0 -155 -44.333 -171 -133c-3.33301 -18.667 -5 -48.667 -5 -90v-278h-32z" />
    <glyph glyph-name="o" unicode="o" horiz-adv-x="545" 
d="M44 258c0 78.667 17.667 142.333 53 191c40.667 54 99 81 175 81c76.667 0 135 -27 175 -81c36 -48 54 -111.667 54 -191s-18 -143 -54 -191c-40 -54 -98.333 -81 -175 -81c-76 0 -134 27.333 -174 82c-36 48.667 -54 112 -54 190zM76 257.999
c0 -69.333 14.999 -125.667 44.999 -169c34 -50 84.333 -75 151 -75s117.334 25 152.001 75c30 43.333 45 99.666 45 168.999c0 68.667 -15.333 125 -46 169c-34.667 50 -85 75 -151 75c-66.667 0 -117 -25 -151 -75c-30 -43.333 -45 -99.666 -45 -168.999z" />
    <glyph glyph-name="p" unicode="p" horiz-adv-x="572" 
d="M69 -206v725h32v-119c33.333 86.667 98.666 130 195.999 130c76.667 0 135 -27 175 -81c36 -48 54 -111.667 54 -191s-18 -143 -54 -191c-40 -54 -98.333 -81 -175 -81c-97.333 0 -162.666 42 -195.999 126v-318h-32zM101 258c0 -69.333 14.999 -125.667 44.999 -169
c34 -50 84.333 -75 151 -75s117.334 25 152.001 75c30 43.333 45 99.666 45 168.999c0 68.667 -15.333 125 -46 169c-34.667 50 -85 75 -151 75c-66.667 0 -117 -25 -151 -75c-30 -43.333 -45 -99.666 -45 -168.999z" />
    <glyph glyph-name="q" unicode="q" horiz-adv-x="572" 
d="M471 112c-33.333 -84 -98.666 -126 -195.999 -126c-76.667 0 -135 27 -175 81c-36 48 -54 111.667 -54 191s18 143 54 191c40 54 98.333 81 175 81c97.333 0 162.666 -43.333 195.999 -130v119h31v-725h-31v318zM78 258c0 -68.667 15.334 -124.999 46.001 -168.999
c34.667 -50 85 -75 151 -75c66.667 0 117 25 151 75c30 43.333 45 99.666 45 168.999s-15 125.666 -45 168.999c-34 50 -84.333 75 -151 75s-117.334 -25 -152.001 -75c-30 -43.333 -45 -99.666 -45 -168.999z" />
    <glyph glyph-name="r" unicode="r" horiz-adv-x="263" 
d="M69 0v518.999h32v-93c26 69.333 77.667 104 155 104v-31c-64.667 0 -108.667 -27 -132 -81c-15.333 -35.333 -23 -90.666 -23 -165.999v-252h-32z" />
    <glyph glyph-name="s" unicode="s" horiz-adv-x="481" 
d="M81 154c17.333 -92 72.6641 -138 165.997 -138c42 0 76.667 9 104 27c32.667 21.333 49 51.666 49 90.999c0 43.333 -27 74.333 -81 93l-133 37c-81.333 24.667 -122 67.667 -122 129c0 45.333 19 80.333 57 105c32.667 21.333 73 32 121 32s88 -13 120 -39
s50.333 -62.667 55 -110h-31c-11.333 80.667 -60.666 121 -147.999 121c-36 0 -67.333 -8.33301 -94 -25c-31.333 -19.333 -47 -46 -47 -80c0 -35.333 14.667 -61.666 44 -78.999c18.667 -11.333 60.334 -25.333 125.001 -42c60.667 -16 102.334 -32.667 125.001 -50
c28 -22 42 -53 42 -93c0 -47.333 -19.667 -84.333 -59 -111c-34.667 -24 -76.667 -36 -126 -36c-56 0 -101.333 14 -136 42c-36.667 29.333 -57.667 71.333 -63 126h32z" />
    <glyph glyph-name="t" unicode="t" horiz-adv-x="243" 
d="M128 115c0 -34 1 -55 3 -63c6 -23.333 20.333 -35 43 -35c12.667 0 28.667 2.66699 48 8v-29c-21.333 -5.33301 -39 -8 -53 -8c-28.667 0 -48.667 9 -60 27c-8.66699 14 -13 36.333 -13 67v409h-65v28h65v142h32v-142h94v-28h-94v-376z" />
    <glyph glyph-name="u" unicode="u" horiz-adv-x="521" 
d="M451 519l-0.000976562 -519h-31v81c-32.667 -63.333 -91 -95 -175 -95c-118.667 0 -178 62 -178 186v347h31v-337c0 -55.333 10.333 -96 31 -122c22.667 -30 61 -45 115 -45c96.667 0 153.334 42.333 170.001 127c4 20 6 52 6 96v281h31z" />
    <glyph glyph-name="v" unicode="v" horiz-adv-x="444" 
d="M201 0l-193 519h33l178 -482l185 482h33l-200 -519h-36z" />
    <glyph glyph-name="w" unicode="w" horiz-adv-x="669" 
d="M178 0l-165 519h33l148 -470l124 470h29l127 -470l150 470h32l-166 -519h-32l-126 463l-122 -463h-32z" />
    <glyph glyph-name="x" unicode="x" horiz-adv-x="410" 
d="M32 0h-37l190 268l-182 251h38l164 -225l160 225h37l-179 -251l192 -268h-37l-174 243z" />
    <glyph glyph-name="y" unicode="y" horiz-adv-x="437" 
d="M203 -79c-15.333 -40.667 -28.666 -69 -39.999 -85c-20.667 -29.333 -46.334 -44 -77.001 -44c-16 0 -28 2 -36 6v30c14 -4 26.333 -6 37 -6c30 0 52.667 20 68 60l44 114l-193 523h31l179 -482l179 482h34z" />
    <glyph glyph-name="z" unicode="z" horiz-adv-x="437" 
d="M17 0v37l358 451h-338v31h372v-37l-358 -451h369v-31h-403z" />
    <glyph glyph-name="braceleft" unicode="{" 
d="M412 721v-33.998h-18c-48 0 -80 -10.667 -96 -32c-13.333 -18 -20 -52 -20 -102v-118c0 -49.333 -4.66699 -85.333 -14 -108c-13.333 -32.667 -40 -55.334 -80 -68.001c40 -12.667 66.667 -35.334 80 -68.001c9.33301 -23.333 14 -59.333 14 -108v-118
c0 -49.333 6.66699 -83 20 -101c16 -22 48 -33 96 -33h18v-33h-16c-65.333 0 -109 15 -131 45c-18 24.667 -27 71.667 -27 141v116c0 49.333 -8.66699 85 -26 107c-20 25.333 -54 37 -102 35l-22 -1v36l25 -1c46.667 -2 80 10 100 36c16.667 22 25 57.333 25 106v116
c0 69.333 9 116.333 27 141c22 30.667 65.667 46 131 46h16z" />
    <glyph glyph-name="bar" unicode="|" 
d="M232 764h36v-1000h-36v1000z" />
    <glyph glyph-name="braceright" unicode="}" 
d="M89 721l16.001 0.000976562c64.667 0 108 -15.333 130 -46c18 -25.333 27 -72.333 27 -141v-116c0 -49.333 8.66699 -85 26 -107c19.333 -25.333 52.666 -37 99.999 -35l25 1v-36l-22 1c-47.333 2 -81.333 -9.66699 -102 -35c-18 -22 -27 -57.667 -27 -107v-116
c0 -68.667 -9 -115.334 -27 -140.001c-22 -30.667 -65.333 -46 -130 -46h-16v34h19c48 0 79.667 10.667 95 32c12.667 17.333 19 51 19 101v118c0 50.667 4.66699 87 14 109c13.333 32 40.333 54.333 81 67c-40.667 12.667 -67.667 35 -81 67
c-9.33301 22 -14 58.333 -14 109v118c0 50.667 -6.33301 84.667 -19 102c-16 21.333 -48 32 -96 32h-18v34z" />
    <glyph glyph-name="asciitilde" unicode="~" horiz-adv-x="833" 
d="M747 356l0.000976562 -35c-68.667 -48.667 -131.667 -73 -189 -73c-24.667 0 -49.334 3.33301 -74.001 10c-46.667 17.333 -92.667 33.333 -138 48c-24.667 8 -48 12 -70 12c-50 0 -113 -26.333 -189 -79v36c66.667 48.667 129.667 73 189 73
c26.667 0 58 -6.33301 94 -19l97 -34c32 -11.333 62.333 -17 91 -17c50.667 0 113.667 26 189 78z" />
    <glyph glyph-name="nonbreakingspace" unicode="&#xa0;" 
 />
    <glyph glyph-name="exclamdown" unicode="&#xa1;" horiz-adv-x="307" 
d="M163 538l9 -538h-37l4 538h24zM168 718v-88h-34v88h34z" />
    <glyph glyph-name="cent" unicode="&#xa2;" horiz-adv-x="521" 
d="M113 -140l50 149.001c-82 47.333 -123 128.666 -123 243.999c0 80.667 18.333 145.667 55 195c40.667 56 100 84 178 84c20 0 40 -2.66699 60 -8l40 117h30l-42 -126c62.667 -24.667 98.667 -73 108 -145h-31c-13.333 59.333 -42 98 -86 116l-153 -457
c27.333 -8.66699 51.333 -13 72 -13c46 0 85 13.833 117 41.5s50.667 64.167 56 109.5h32c-6 -54.667 -27.667 -98.667 -65 -132s-83.333 -50 -138 -50c-26 0 -53.667 4 -83 12l-47 -137h-30zM173 42.001l151 453c-16 4.66699 -34.333 7 -55 7
c-64 0 -113.333 -24.667 -148 -74c-31.333 -44 -47 -99 -47 -165c0 -109.333 33 -183 99 -221z" />
    <glyph glyph-name="sterling" unicode="&#xa3;" horiz-adv-x="521" 
d="M33 27c86 59.333 129 128.336 129 207.003c0 27.333 -6.66699 58.333 -20 93h-113v29h97c-46.667 79.333 -70 136.666 -70 171.999c0 54.667 20.667 98 62 130c38 28.667 85 43 141 43c66.667 0 117.5 -18.833 152.5 -56.5s52.5 -90.167 52.5 -157.5h-31
c0 56.667 -14 101 -42 133c-30 34 -73 51 -129 51c-46 0 -85 -11.667 -117 -35c-34.667 -26.667 -52 -62.334 -52 -107.001c0 -34.667 24.333 -92.334 73 -173.001h143v-29h-130c12 -31.333 18 -61 18 -89c0 -65.333 -30.667 -128 -92 -188c27.333 7.33301 48.333 11 63 11
c19.333 0 48.833 -7.33301 88.5 -22s67.834 -22 84.501 -22c50 0 93 21.333 129 64l21 -25c-48 -48 -97.667 -72 -149 -72c-20.667 0 -44.334 4.33301 -71.001 13c-63.333 20.667 -102 31 -116 31c-29.333 0 -62.333 -10.333 -99 -31z" />
    <glyph glyph-name="currency" unicode="&#xa4;" horiz-adv-x="606" 
d="M74 689l100.999 -101c38.667 30.667 81.334 46 128.001 46c47.333 0 90.333 -15.333 129 -46l100 101l29 -29l-101 -100c30 -38 45 -80.667 45 -128s-15 -90 -45 -128l101 -100l-29 -29l-100 101c-38 -30 -81 -45 -129 -45c-47.333 0 -90 15 -128 45l-101 -101l-28 29
l101 100c-30 38 -45 80.667 -45 128s15 90 45 128l-101 100zM303.999 594c-45.333 0 -83.668 -15.498 -115.001 -46.498s-47 -69.167 -47 -114.5c0 -44.667 15.833 -82.834 47.5 -114.501s69.834 -47.5 114.501 -47.5c45.333 0 83.666 15.667 114.999 47
s47 69.666 47 114.999s-15.667 83.5 -47 114.5s-69.666 46.5 -114.999 46.5z" />
    <glyph glyph-name="yen" unicode="&#xa5;" horiz-adv-x="530" 
d="M248 0v296h-247v25h235l-50 77h-185v25h167l-167 257h37l228 -350l225 350h37l-166 -257h166v-25h-184l-50 -77h234v-25h-247v-296h-33z" />
    <glyph glyph-name="brokenbar" unicode="&#xa6;" 
d="M232 699h36v-370h-36v370zM232 199h36v-370h-36v370z" />
    <glyph glyph-name="section" unicode="&#xa7;" 
d="M166 245l160 -78.001c58.667 34.667 88 73.667 88 117c0 52.667 -35 95.334 -105 128.001l-132 61c-60.667 -24 -91 -62.333 -91 -115c0 -49.333 26.667 -87 80 -113zM84 70.999h29.001v-13c0 -84.667 42 -127 126 -127c39.333 0 70.333 9 93 27c25.333 20 38 49 38 87
c0 45.333 -27 81.333 -81 108l-131 64c-68.667 33.333 -103 79 -103 137c0 62 31.667 108.667 95 140c-32.667 26.667 -49 60.334 -49 101.001c0 42.667 14.667 77 44 103c27.333 24.667 62.666 37 105.999 37c103.333 0 155 -55 155 -165h-31c0 90 -40 135 -120 135
c-34.667 0 -63.667 -9.66699 -87 -29s-35 -46 -35 -80c0 -29.333 10.667 -54 32 -74c13.333 -12.667 37.333 -27 72 -43l77 -36c86.667 -40.667 130 -92 130 -154c0 -58.667 -32 -105.334 -96 -140.001c34.667 -25.333 52 -61.333 52 -108c0 -44 -15.667 -78.667 -47 -104
c-28.667 -23.333 -65.667 -35 -111 -35c-48 0 -86.333 12.333 -115 37c-31.333 27.333 -46 64.333 -44 111z" />
    <glyph glyph-name="dieresis" unicode="&#xa8;" 
d="M150 626v56h45v-56h-45zM304 626v56h46v-56h-46z" />
    <glyph glyph-name="copyright" unicode="&#xa9;" horiz-adv-x="833" 
d="M416 706c100 0 184.333 -34.167 253 -102.5s103 -152.5 103 -252.5s-34.333 -184.333 -103 -253s-153 -103 -253 -103c-98 0 -181.667 34.667 -251 104s-104 153.333 -104 252s34.5 182.5 103.5 251.5s152.833 103.5 251.5 103.5zM416 675
c-90 0 -166.501 -31.501 -229.501 -94.501s-94.5 -139.5 -94.5 -229.5c0 -88.667 31.833 -165 95.5 -229s139.834 -96 228.501 -96c89.333 0 165.833 31.833 229.5 95.5s95.5 140.167 95.5 229.5c0 90.667 -31.5 167.334 -94.5 230.001s-139.833 94 -230.5 94z
M576.999 449.999l-39.0029 -0.000976562c-15.333 60.667 -55.666 91 -120.999 91c-50 0 -87.333 -20.333 -112 -61c-20 -33.333 -30 -76.666 -30 -129.999c0 -51.333 10.667 -94 32 -128c24.667 -40 61.334 -60 110.001 -60c32.667 0 60.834 9 84.501 27s38.167 43 43.5 75
h36c-3.33301 -42 -22 -75.333 -56 -100c-31.333 -23.333 -68.666 -35 -111.999 -35c-60 0 -106 22.667 -138 68c-28.667 40 -43 91 -43 153c0 64 15 116 45 156c33.333 44.667 81 67 143 67c39.333 0 74.166 -11 104.499 -33s47.833 -52 52.5 -90z" />
    <glyph glyph-name="ordfeminine" unicode="&#xaa;" horiz-adv-x="380" 
d="M371 354l-20.998 -2.00195c-34 0 -51 22 -51 66c-32.667 -47.333 -85 -71 -157 -71c-33.333 0 -61 8.83301 -83 26.5s-33 42.834 -33 75.501c0 60.667 51.667 97.334 155 110.001c23.333 2.66699 46.666 5 69.999 7c32 6 48 17.667 48 35v31c0 50.667 -35 76 -105 76
c-34.667 0 -63.334 -6.33301 -86.001 -19c-28.667 -16 -43 -39.667 -43 -71h-22c0 38 16 66.667 48 86c26 16 59.333 24 100 24c80 0 123 -27.333 129 -82c1.33301 -9.33301 2 -21 2 -35v-177c0 -21.333 1 -35.333 3 -42c4.66699 -15.333 15 -22.333 31 -21l15 1v-18z
M299.002 563.998c-6.66699 -7.33301 -40.333 -14.668 -101 -22.001c-45.333 -5.33301 -77 -11.666 -95 -18.999c-35.333 -14 -53 -37.333 -53 -70c0 -56 33 -84 99 -84c100 0 150 47 150 141v54z" />
    <glyph glyph-name="guillemotleft" unicode="&#xab;" horiz-adv-x="370" 
d="M290 102l-125 158l125 150h41l-123 -150l123 -158h-41zM168 102l-125 158l125 150h40l-122 -150l122 -158h-40z" />
    <glyph glyph-name="logicalnot" unicode="&#xac;" horiz-adv-x="833" 
d="M124 417h585v-245h-30v215h-555v30z" />
    <glyph glyph-name="minus" unicode="&#xad;" horiz-adv-x="343" 
d="M38 244v28h266v-28h-266z" />
    <glyph glyph-name="minus" unicode="&#x2212;" horiz-adv-x="343" 
d="M38 244v28h266v-28h-266z" />
    <glyph glyph-name="registered" unicode="&#xae;" horiz-adv-x="833" 
d="M416 706c100 0 184.333 -34.167 253 -102.5s103 -152.5 103 -252.5c0 -99.333 -34.5 -183.5 -103.5 -252.5s-153.167 -103.5 -252.5 -103.5c-98 0 -181.667 34.667 -251 104s-104 153.333 -104 252s34.5 182.5 103.5 251.5s152.833 103.5 251.5 103.5zM416 675
c-90.667 0 -167.333 -31.332 -230 -93.999s-94 -139.334 -94 -230.001c0 -88.667 32 -165 96 -229s140 -96 228 -96c90 0 166.667 31.667 230 95s95 140 95 230s-31.667 166.5 -95 229.5s-140 94.5 -230 94.5zM280.001 564.001h148c112.667 0 169 -38.333 169 -115
c0 -29.333 -9.5 -53.5 -28.5 -72.5s-43.167 -30.167 -72.5 -33.5l94 -194h-51l-89 187h-127v-187h-43v415zM323.001 529.001v-158h93c43.333 0 73 3.33301 89 10c28 11.333 42 35 42 71c0 51.333 -43.333 77 -130 77h-94z" />
    <glyph glyph-name="macron" unicode="&#xaf;" 
d="M141 637v35h218v-35h-218z" />
    <glyph glyph-name="macron" unicode="&#x2c9;" 
d="M141 637v35h218v-35h-218z" />
    <glyph glyph-name="degree" unicode="&#xb0;" horiz-adv-x="329" 
d="M165 707c36.667 0 67.667 -12.833 93 -38.5s38 -56.834 38 -93.501s-12.833 -67.667 -38.5 -93s-56.834 -38 -93.501 -38s-67.667 12.667 -93 38s-38 56.333 -38 93s12.833 67.834 38.5 93.501s56.834 38.5 93.501 38.5zM165 682c-30 0 -55.333 -10.333 -76 -31
s-31 -46 -31 -76s10.333 -55.333 31 -76s46 -31 76 -31s55.167 10.333 75.5 31s30.5 46 30.5 76s-10.167 55.333 -30.5 76s-45.5 31 -75.5 31z" />
    <glyph glyph-name="plusminus" unicode="&#xb1;" horiz-adv-x="833" 
d="M402 562h30v-174h277v-30h-277v-175h-30v175h-278v30h278v174zM124 65h585v-30h-585v30z" />
    <glyph glyph-name="twosuperior" unicode="&#xb2;" horiz-adv-x="344" 
d="M33 272l-0.000976562 28.999c0 27.333 5.66699 49 17 65c16 22.667 48 47.334 96 74.001l60 33c20.667 11.333 36.334 22 47.001 32c21.333 20 32 44 32 72c0 30.667 -9.66699 54.167 -29 70.5s-44.666 24.5 -75.999 24.5c-32.667 0 -59.334 -9 -80.001 -27
s-31 -43 -31 -75v-6h-23v5c0 38.667 13 69 39 91c24 20.667 55.667 31 95 31c36.667 0 66.667 -9.33301 90 -28c26 -20.667 39 -48.667 39 -84c0 -30.667 -10 -56.667 -30 -78c-14 -15.333 -41.667 -34 -83 -56c-95.333 -51.333 -143 -97.333 -143 -138
c0 -7.33301 0.666992 -13 2 -17h251v-18h-273z" />
    <glyph glyph-name="threesuperior" unicode="&#xb3;" horiz-adv-x="344" 
d="M53 396c0 -77.333 38.002 -116.002 114.002 -116.002c34.667 0 63.334 8.33301 86.001 25c25.333 18.667 38 44.667 38 78c0 63.333 -46.333 95 -139 95h-13v17h15c82 0 123 31 123 93c0 56 -35 84 -105 84c-32.667 0 -58.834 -8.83301 -78.501 -26.5
s-29.5 -42.5 -29.5 -74.5l-20 -3c0 81.333 44.333 122 133 122c34 0 62.333 -8.33301 85 -25c25.333 -18.667 38 -44.334 38 -77.001c0 -51.333 -25.333 -84.666 -76 -99.999c60 -11.333 90 -45.666 90 -102.999c0 -39.333 -15 -70.333 -45 -93
c-26.667 -20.667 -60.334 -31 -101.001 -31c-42.667 0 -76.334 11.333 -101.001 34s-37 55.334 -37 98.001z" />
    <glyph glyph-name="acute" unicode="&#xb4;" 
d="M194 584l102 160h53l-124 -160h-31z" />
    <glyph glyph-name="mu" unicode="&#xb5;" horiz-adv-x="508" 
d="M98 516l33 0.00195312l-60 -285c-7.33301 -34.667 -11 -61.667 -11 -81c0 -41.333 10.667 -74 32 -98s52.333 -36 93 -36c51.333 0 95 26 131 78c27.333 39.333 47.333 88.666 60 147.999l58 274h34l-97 -462c0 -24.667 13 -36.334 39 -35.001l18 1l-6 -30
c-4.66699 -1.33301 -9.33398 -2 -14.001 -2h-11c-39.333 0 -59 18.333 -59 55l5 38c-41.333 -66 -97.666 -99 -168.999 -99c-74.667 0 -119.667 33.333 -135 100l-61 -290h-34z" />
    <glyph glyph-name="mu" unicode="&#x3bc;" horiz-adv-x="508" 
d="M98 516l33 0.00195312l-60 -285c-7.33301 -34.667 -11 -61.667 -11 -81c0 -41.333 10.667 -74 32 -98s52.333 -36 93 -36c51.333 0 95 26 131 78c27.333 39.333 47.333 88.666 60 147.999l58 274h34l-97 -462c0 -24.667 13 -36.334 39 -35.001l18 1l-6 -30
c-4.66699 -1.33301 -9.33398 -2 -14.001 -2h-11c-39.333 0 -59 18.333 -59 55l5 38c-41.333 -66 -97.666 -99 -168.999 -99c-74.667 0 -119.667 33.333 -135 100l-61 -290h-34z" />
    <glyph glyph-name="paragraph" unicode="&#xb6;" 
d="M241 722h211.001v-28h-65v-694h-28v694h-97v-694h-28v382c-54 0 -98 14.667 -132 44c-36 30.667 -54 72.667 -54 126c0 54 19 96.333 57 127c35.333 28.667 80.666 43 135.999 43z" />
    <glyph glyph-name="periodcentered" unicode="&#xb7;" horiz-adv-x="260" 
d="M130 307c-22 0 -33 10.667 -33 32c0 22 11 33 33 33s33 -11 33 -33c0 -21.333 -11 -32 -33 -32z" />
    <glyph glyph-name="periodcentered" unicode="&#x2219;" horiz-adv-x="260" 
d="M130 307c-22 0 -33 10.667 -33 32c0 22 11 33 33 33s33 -11 33 -33c0 -21.333 -11 -32 -33 -32z" />
    <glyph glyph-name="cedilla" unicode="&#xb8;" 
d="M159 -202v27c39.333 -10 76 -15 110 -15c46 0 69 17 69 51c0 39.333 -26.333 58 -79 56l-23 -1v84h20v-59h12c65.333 0 98 -25 98 -75c0 -55.333 -33 -83 -99 -83c-27.333 0 -63.333 5 -108 15z" />
    <glyph glyph-name="onesuperior" unicode="&#xb9;" horiz-adv-x="344" 
d="M181 272l-0.000976562 356c-27.333 -28 -63.666 -42 -108.999 -42h-6v18c68 0 106.333 25 115 75h22v-407h-22z" />
    <glyph glyph-name="ordmasculine" unicode="&#xba;" horiz-adv-x="409" 
d="M33 537c0 57.333 14 102.667 42 136c30 36 73 54 129 54s98.667 -17.5 128 -52.5s44 -80.833 44 -137.5s-14.333 -102 -43 -136c-30.667 -36.667 -73.667 -55 -129 -55c-56 0 -99 18.333 -129 55c-28 34 -42 79.333 -42 136zM57 537.001
c0 -50.667 11.668 -91 35.001 -121c25.333 -33.333 62.666 -50 111.999 -50c48 0 85.333 17 112 51c24 30.667 36 70.667 36 120c0 50 -12 90 -36 120c-26 33.333 -63.333 50 -112 50c-48 0 -85 -16.667 -111 -50c-24 -30.667 -36 -70.667 -36 -120z" />
    <glyph glyph-name="guillemotright" unicode="&#xbb;" horiz-adv-x="370" 
d="M80 410l125 -159l-125 -149h-41l123 149l-123 159h41zM202 410l125 -159l-125 -149h-40l122 149l-122 159h40z" />
    <glyph glyph-name="onequarter" unicode="&#xbc;" horiz-adv-x="823" 
d="M173 299v332c-26 -26 -60.667 -39 -104 -39h-5v17c64.667 0 101 23.333 109 70h21v-380h-21zM160 -16l465 715h38l-465 -715h-38zM726 118v231l-180 -231h180zM726 0v101h-201v18l202 261h19v-262h48v-17h-48v-101h-20z" />
    <glyph glyph-name="onehalf" unicode="&#xbd;" horiz-adv-x="823" 
d="M173 299v332c-26 -26 -60.667 -39 -104 -39h-5v17c64.667 0 101 23.333 109 70h21v-380h-21zM160 -16l465 715h38l-465 -715h-38zM526 0l-0.000976562 27.0029c0 25.333 5.33301 45.333 16 60c16 22.667 46 45.667 90 69l55 28c22.667 12 39.334 23 50.001 33
c20 19.333 30 41.666 30 66.999c0 29.333 -9.16699 51.666 -27.5 66.999s-42.5 23 -72.5 23c-31.333 0 -56.333 -8 -75 -24c-20.667 -17.333 -31 -41.333 -31 -72v-6h-22v5c0 37.333 12.333 66 37 86c22.667 18.667 53 28 91 28c34.667 0 63.834 -9 87.501 -27
s35.5 -44 35.5 -78c0 -30 -11.333 -56 -34 -78c-13.333 -12.667 -38 -28.334 -74 -47.001c-49.333 -26 -83 -46.667 -101 -62c-24.667 -21.333 -36.334 -43.333 -35.001 -66l1 -16h240v-17h-261z" />
    <glyph glyph-name="threequarters" unicode="&#xbe;" horiz-adv-x="823" 
d="M50 414c0 -34 9.66602 -60.333 28.999 -79s46 -28 80 -28c32.667 0 60 7.66699 82 23c24.667 17.333 37 41.666 37 72.999c0 58.667 -44 88 -132 88h-13v16h14c78.667 0 118 29 118 87c0 26.667 -10.667 47 -32 61c-18 12 -41 18 -69 18
c-31.333 0 -56.333 -8.16699 -75 -24.5s-28 -39.833 -28 -70.5l-19 -3c0 76 42.333 114 127 114c32.667 0 59.667 -7.33301 81 -22c24.667 -17.333 37 -41.666 37 -72.999c0 -49.333 -24.333 -80.333 -73 -93c57.333 -12 86 -44 86 -96c0 -38 -14.333 -67.333 -43 -88
c-25.333 -18.667 -57.666 -28 -96.999 -28c-40.667 0 -72.667 10.5 -96 31.5s-35 51.5 -35 91.5zM159.999 -16l465 715h38l-465 -715h-38zM725.999 118v231l-180 -231h180zM725.999 0v101h-201v18l202 261h19v-262h48v-17h-48v-101h-20z" />
    <glyph glyph-name="questiondown" unicode="&#xbf;" horiz-adv-x="463" 
d="M262 720v-86h-39v86h39zM259 543c0 -62.667 -9.33105 -109.999 -27.998 -141.999c-10.667 -18 -26.334 -37 -47.001 -57c-1.33301 -1.33301 -16.333 -15.333 -45 -42c-50 -46.667 -75 -93.334 -75 -140.001c0 -49.333 16 -86.333 48 -111
c28.667 -22.667 68.334 -34 119.001 -34c55.333 0 97.666 17.333 126.999 52c27.333 32 41 76.333 41 133l33 3c0 -68 -17.333 -121 -52 -159c-36 -40 -87.667 -60 -155 -60c-57.333 0 -103.333 14.333 -138 43c-38 30.667 -57 74 -57 130c0 61.333 28.667 117.333 86 168
c25.333 22.667 52 49 80 79c13.333 18 22.666 47.667 27.999 89c2 14.667 3 30.667 3 48h32z" />
    <glyph glyph-name="Agrave" unicode="&#xc0;" horiz-adv-x="574" 
d="M134 275h311l-154 405zM-6 0l278 719h38l273 -719h-33l-93 245h-335l-94 -245h-34zM354 789h-31l-124 160h53z" />
    <glyph glyph-name="Aacute" unicode="&#xc1;" horiz-adv-x="574" 
d="M134 275h311l-154 405zM-6 0l278 719h38l273 -719h-33l-93 245h-335l-94 -245h-34zM242 789l102 160h53l-124 -160h-31z" />
    <glyph glyph-name="Acircumflex" unicode="&#xc2;" horiz-adv-x="574" 
d="M134 275h311l-154 405zM-6 0l278 719h38l273 -719h-33l-93 245h-335l-94 -245h-34zM174 789l100 160h48l99 -160h-30l-93 132l-93 -132h-31z" />
    <glyph glyph-name="Atilde" unicode="&#xc3;" horiz-adv-x="574" 
d="M134 275h311l-154 405zM-6 0l278 719h38l273 -719h-33l-93 245h-335l-94 -245h-34zM428 902c-16.667 -46 -41.667 -69 -75 -69c-8 0 -19 1.66699 -33 5l-55 13l-25 3c-17.333 0 -32.333 -11 -45 -33h-27c14 46 39 69 75 69l27 -4l56 -13l29 -5c20 0 35 11.333 45 34h28z
" />
    <glyph glyph-name="Adieresis" unicode="&#xc4;" horiz-adv-x="574" 
d="M134 275h311l-154 405zM-6 0l278 719h38l273 -719h-33l-93 245h-335l-94 -245h-34zM198 831v56h45v-56h-45zM352 831v56h46v-56h-46z" />
    <glyph glyph-name="Aring" unicode="&#xc5;" horiz-adv-x="574" 
d="M134 275h311l-154 405zM-6 0l278 719h38l273 -719h-33l-93 245h-335l-94 -245h-34zM181 853c0 30.667 10.667 56.667 32 78s47.333 32 78 32c32 0 58.167 -10.333 78.5 -31s30.5 -47 30.5 -79c0 -30.667 -10.5 -56.5 -31.5 -77.5s-46.833 -31.5 -77.5 -31.5
c-31.333 0 -57.5 10.333 -78.5 31s-31.5 46.667 -31.5 78zM209 854c0 -23.333 7.83301 -42.666 23.5 -57.999s35.167 -23 58.5 -23s42.666 7.66699 57.999 23s23 34.666 23 57.999s-7.66699 42.666 -23 57.999s-34.666 23 -57.999 23s-42.833 -7.66699 -58.5 -23
s-23.5 -34.666 -23.5 -57.999z" />
    <glyph glyph-name="AE" unicode="&#xc6;" horiz-adv-x="950" 
d="M477 271v418h-136l-192 -418h328zM477 241h-342l-111 -241h-36l331 719h594v-30h-403v-300h369v-30h-369v-328h414v-31h-447v241z" />
    <glyph glyph-name="Ccedilla" unicode="&#xc7;" horiz-adv-x="681" 
d="M628 238c0 -79.333 -27 -141.999 -81 -187.999c-50.667 -43.333 -116.334 -65 -197.001 -65c-102.667 0 -180 38 -232 114c-44.667 65.333 -67 151.666 -67 258.999c0 109.333 22.667 197 68 263c53.333 76 132.333 114 237 114c71.333 0 131.666 -19.667 180.999 -59
c52.667 -41.333 82.334 -96.666 89.001 -165.999h-34c-10 63.333 -36.5 111.666 -79.5 144.999s-97.167 50 -162.5 50c-90 0 -158.333 -37 -205 -111c-39.333 -62 -59 -140.667 -59 -236c0 -96.667 18.667 -175 56 -235c44.667 -72.667 112.334 -109 203.001 -109
c72.667 0 131.667 19 177 57c48.667 40 73 95.667 73 167h33zM261 -201.999v27c39.333 -10 76 -15 110 -15c46 0 69 17 69 51c0 39.333 -26.333 58 -79 56l-23 -1v84h20v-59h12c65.333 0 98 -25 98 -75c0 -55.333 -33 -83 -99 -83c-27.333 0 -63.333 5 -108 15z" />
    <glyph glyph-name="Egrave" unicode="&#xc8;" horiz-adv-x="567" 
d="M82 0v719h439v-32h-405v-297h370v-31h-370v-327h415v-32h-449zM364 789h-31l-124 160h53z" />
    <glyph glyph-name="Eacute" unicode="&#xc9;" horiz-adv-x="567" 
d="M82 0v719h439v-32h-405v-297h370v-31h-370v-327h415v-32h-449zM252 789l102 160h53l-124 -160h-31z" />
    <glyph glyph-name="Ecircumflex" unicode="&#xca;" horiz-adv-x="567" 
d="M82 0v719h439v-32h-405v-297h370v-31h-370v-327h415v-32h-449zM184 789l100 160h48l99 -160h-30l-93 132l-93 -132h-31z" />
    <glyph glyph-name="Edieresis" unicode="&#xcb;" horiz-adv-x="567" 
d="M82 0v719h439v-32h-405v-297h370v-31h-370v-327h415v-32h-449zM208 831v56h45v-56h-45zM362 831v56h46v-56h-46z" />
    <glyph glyph-name="Igrave" unicode="&#xcc;" horiz-adv-x="207" 
d="M87 0v719h33v-719h-33zM160 789h-31l-124 160h53z" />
    <glyph glyph-name="Iacute" unicode="&#xcd;" horiz-adv-x="207" 
d="M87 0v719h33v-719h-33zM48 789l102 160h53l-124 -160h-31z" />
    <glyph glyph-name="Icircumflex" unicode="&#xce;" horiz-adv-x="207" 
d="M87 0v719h33v-719h-33zM-20 789l100 160h48l99 -160h-30l-93 132l-93 -132h-31z" />
    <glyph glyph-name="Idieresis" unicode="&#xcf;" horiz-adv-x="207" 
d="M87 0v719h33v-719h-33zM4 831v56h45v-56h-45zM158 831v56h46v-56h-46z" />
    <glyph glyph-name="Eth" unicode="&#xd0;" horiz-adv-x="689" 
d="M82 0v372h-82v27h82v320h165c107.333 0 184.333 -11.667 231 -35c106 -52.667 159 -161 159 -325c0 -166 -53 -274 -159 -324c-49.333 -23.333 -126.333 -35 -231 -35h-165zM116 30l139 -0.000976562c97.333 0 168.666 12 213.999 36
c88.667 46.667 133 144.334 133 293.001c0 122 -31.667 211 -95 267c-30 26 -69.667 43.667 -119 53c-33.333 6 -77.666 9 -132.999 9h-139v-289h243v-27h-243v-342z" />
    <glyph glyph-name="Ntilde" unicode="&#xd1;" horiz-adv-x="682" 
d="M82 0v719h34l451 -662v662h33v-719h-33l-452 661v-661h-33zM471 902c-16.667 -46 -41.667 -69 -75 -69c-8 0 -19 1.66699 -33 5l-55 13l-25 3c-17.333 0 -32.333 -11 -45 -33h-27c14 46 39 69 75 69l27 -4l56 -13l29 -5c20 0 35 11.333 45 34h28z" />
    <glyph glyph-name="Ograve" unicode="&#xd2;" horiz-adv-x="741" 
d="M52 359c0 109.333 25 197.333 75 264c56 74.667 137 112 243 112s187 -37.333 243 -112c50.667 -66.667 76 -154.667 76 -264c0 -110 -25 -198 -75 -264c-56 -74 -137.333 -111 -244 -111s-187.667 37 -243 111c-50 66 -75 154 -75 264zM87 359
c0 -100 21.667 -180.331 65 -240.998c49.333 -69.333 122 -104 218 -104s169 34.667 219 104c43.333 61.333 65 141.666 65 240.999s-22 179.666 -66 240.999c-50 70 -122.667 105 -218 105s-168 -35 -218 -105c-43.333 -62 -65 -142.333 -65 -241zM427 789.002h-31
l-124 160h53z" />
    <glyph glyph-name="Oacute" unicode="&#xd3;" horiz-adv-x="741" 
d="M52 359c0 109.333 25 197.333 75 264c56 74.667 137 112 243 112s187 -37.333 243 -112c50.667 -66.667 76 -154.667 76 -264c0 -110 -25 -198 -75 -264c-56 -74 -137.333 -111 -244 -111s-187.667 37 -243 111c-50 66 -75 154 -75 264zM87 359
c0 -100 21.667 -180.331 65 -240.998c49.333 -69.333 122 -104 218 -104s169 34.667 219 104c43.333 61.333 65 141.666 65 240.999s-22 179.666 -66 240.999c-50 70 -122.667 105 -218 105s-168 -35 -218 -105c-43.333 -62 -65 -142.333 -65 -241zM315 789.002l102 160h53
l-124 -160h-31z" />
    <glyph glyph-name="Ocircumflex" unicode="&#xd4;" horiz-adv-x="741" 
d="M52 359c0 109.333 25 197.333 75 264c56 74.667 137 112 243 112s187 -37.333 243 -112c50.667 -66.667 76 -154.667 76 -264c0 -110 -25 -198 -75 -264c-56 -74 -137.333 -111 -244 -111s-187.667 37 -243 111c-50 66 -75 154 -75 264zM87 359
c0 -100 21.667 -180.331 65 -240.998c49.333 -69.333 122 -104 218 -104s169 34.667 219 104c43.333 61.333 65 141.666 65 240.999s-22 179.666 -66 240.999c-50 70 -122.667 105 -218 105s-168 -35 -218 -105c-43.333 -62 -65 -142.333 -65 -241zM420 789.002l102 160h53
l-124 -160h-31zM280 789.002l102 160h53l-124 -160h-31z" />
    <glyph glyph-name="Otilde" unicode="&#xd5;" horiz-adv-x="741" 
d="M52 359c0 109.333 25 197.333 75 264c56 74.667 137 112 243 112s187 -37.333 243 -112c50.667 -66.667 76 -154.667 76 -264c0 -110 -25 -198 -75 -264c-56 -74 -137.333 -111 -244 -111s-187.667 37 -243 111c-50 66 -75 154 -75 264zM87 359
c0 -100 21.667 -180.331 65 -240.998c49.333 -69.333 122 -104 218 -104s169 34.667 219 104c43.333 61.333 65 141.666 65 240.999s-22 179.666 -66 240.999c-50 70 -122.667 105 -218 105s-168 -35 -218 -105c-43.333 -62 -65 -142.333 -65 -241zM420 789.002l102 160h53
l-124 -160h-31zM280 789.002l102 160h53l-124 -160h-31z" />
    <glyph glyph-name="Odieresis" unicode="&#xd6;" horiz-adv-x="741" 
d="M52 359c0 109.333 25 197.333 75 264c56 74.667 137 112 243 112s187 -37.333 243 -112c50.667 -66.667 76 -154.667 76 -264c0 -110 -25 -198 -75 -264c-56 -74 -137.333 -111 -244 -111s-187.667 37 -243 111c-50 66 -75 154 -75 264zM87 359
c0 -100 21.667 -180.331 65 -240.998c49.333 -69.333 122 -104 218 -104s169 34.667 219 104c43.333 61.333 65 141.666 65 240.999s-22 179.666 -66 240.999c-50 70 -122.667 105 -218 105s-168 -35 -218 -105c-43.333 -62 -65 -142.333 -65 -241zM271 831.002v56h45v-56
h-45zM425 831.002v56h46v-56h-46z" />
    <glyph glyph-name="multiply" unicode="&#xd7;" horiz-adv-x="833" 
d="M176 560l240 -240l240 240l22 -22l-240 -240l240 -240l-22 -22l-240 240l-240 -240l-22 22l240 240l-240 240z" />
    <glyph glyph-name="Oslash" unicode="&#xd8;" horiz-adv-x="741" 
d="M167 99c52.667 -56.667 120.667 -85 204 -85c96 0 168.667 34.667 218 104c43.333 60.667 65 141 65 241c0 96.667 -21.667 175.667 -65 237zM36 -10l90 107.001c-49.333 68.667 -74 156 -74 262c0 112 25 200.667 75 266c55.333 72.667 137.333 109 246 109
c94.667 0 168.334 -28.667 221.001 -86l87 100l23 -22l-89 -104c49.333 -71.333 74 -159 74 -263c0 -110.667 -25.333 -199.334 -76 -266.001c-56.667 -73.333 -139 -110 -247 -110c-86.667 0 -160.334 30.333 -221.001 91l-86 -103zM149 124.001l422 496.998
c-46.667 55.333 -114 83 -202 83c-96 0 -168.667 -34.667 -218 -104c-42.667 -61.333 -64 -141.666 -64 -240.999c0 -95.333 20.667 -173.666 62 -234.999z" />
    <glyph glyph-name="Ugrave" unicode="&#xd9;" horiz-adv-x="671" 
d="M77 719l33 0.000976562v-452c0 -168.667 75.333 -253 226 -253s226 84.333 226 253v452h33v-468c0 -82.667 -22.667 -147.834 -68 -195.501s-109 -71.5 -191 -71.5c-83.333 0 -147.333 23.5 -192 70.5s-67 112.5 -67 196.5v468zM392 789.001h-31l-124 160h53z" />
    <glyph glyph-name="Uacute" unicode="&#xda;" horiz-adv-x="671" 
d="M77 719l33 0.000976562v-452c0 -168.667 75.333 -253 226 -253s226 84.333 226 253v452h33v-468c0 -82.667 -22.667 -147.834 -68 -195.501s-109 -71.5 -191 -71.5c-83.333 0 -147.333 23.5 -192 70.5s-67 112.5 -67 196.5v468zM280 789.001l102 160h53l-124 -160h-31z
" />
    <glyph glyph-name="Ucircumflex" unicode="&#xdb;" horiz-adv-x="671" 
d="M77 719l33 0.000976562v-452c0 -168.667 75.333 -253 226 -253s226 84.333 226 253v452h33v-468c0 -82.667 -22.667 -147.834 -68 -195.501s-109 -71.5 -191 -71.5c-83.333 0 -147.333 23.5 -192 70.5s-67 112.5 -67 196.5v468zM390 789.001l102 160h53l-124 -160h-31z
M250 789.001l102 160h53l-124 -160h-31z" />
    <glyph glyph-name="Udieresis" unicode="&#xdc;" horiz-adv-x="671" 
d="M77 719l33 0.000976562v-452c0 -168.667 75.333 -253 226 -253s226 84.333 226 253v452h33v-468c0 -82.667 -22.667 -147.834 -68 -195.501s-109 -71.5 -191 -71.5c-83.333 0 -147.333 23.5 -192 70.5s-67 112.5 -67 196.5v468zM236 831.001v56h45v-56h-45zM390 831.001
v56h46v-56h-46z" />
    <glyph glyph-name="Yacute" unicode="&#xdd;" horiz-adv-x="530" 
d="M248 0v318l-247 401h38l227 -367l224 367h38l-247 -403v-316h-33zM209 789l102 160h53l-124 -160h-31z" />
    <glyph glyph-name="Thorn" unicode="&#xde;" horiz-adv-x="586" 
d="M116 0l-34 0.000976562v719h34v-144h162c80.667 0 141 -12 181 -36c52 -30.667 78 -83.334 78 -158.001c0 -72 -27.333 -125 -82 -159c-35.333 -22 -95.333 -33 -180 -33h-159v-189zM116 546.001l0.000976562 -327h163c66 0 113 6.33301 141 19
c54.667 24.667 82 75 82 151c0 60 -24 103.667 -72 131c-30.667 17.333 -89.334 26 -176.001 26h-138z" />
    <glyph glyph-name="germandbls" unicode="&#xdf;" horiz-adv-x="488" 
d="M69 0l0.00195312 499.001c0 42 0.666992 69.333 2 82c3.33301 30 11.666 55.667 24.999 77c29.333 46.667 75.666 70 138.999 70c56.667 0 100.667 -15.333 132 -46s47 -74.334 47 -131.001c0 -75.333 -32.667 -125 -98 -149c86.667 -22 130 -86.667 130 -194
c0 -66 -16 -119 -48 -159c-35.333 -44 -85.333 -64 -150 -60l-33 2v32l31 -2c110 -7.33301 165 54.667 165 186c0 120.667 -59.667 181 -179 181h-17v28l21 -1c95.333 -4.66699 143 40 143 134c0 47.333 -12.167 84.333 -36.5 111s-59.833 40 -106.5 40
c-55.333 0 -94.333 -21.333 -117 -64c-11.333 -21.333 -17 -67 -17 -137v-499h-33z" />
    <glyph glyph-name="agrave" unicode="&#xe0;" horiz-adv-x="507" 
d="M494 -3l-28 -2.99902c-45.333 0 -68 31.333 -68 94c-43.333 -67.333 -113 -101 -209 -101c-45.333 0 -82.5 13.167 -111.5 39.5s-43.5 61.833 -43.5 106.5c0 53.333 22.333 92.666 67 117.999c30.667 17.333 77.334 30.333 140.001 39c31.333 3.33301 62.666 7 93.999 11
c42 8.66699 63 25 63 49v44c0 72.667 -46.667 109 -140 109c-48 0 -87 -9.33301 -117 -28c-36 -22 -54 -55.667 -54 -101h-30c0 52 20.667 92 62 120c36 24.667 81.333 37 136 37c96 0 152.333 -32.333 169 -97c3.33301 -12.667 5 -36 5 -70v-253
c0 -30 1.33301 -49.667 4 -59c6 -20.667 20 -31 42 -31l19 2v-26zM398 297.001c-8.66699 -10 -56.667 -20.667 -144 -32c-55.333 -6.66699 -96.333 -16.667 -123 -30c-42.667 -20.667 -64 -53 -64 -97c0 -38.667 12 -68.334 36 -89.001s55.667 -31 95 -31
c60.667 0 110 17 148 51c22 19.333 36.667 42 44 68c5.33301 18.667 8 46.334 8 83.001v77zM300 584.001h-31l-124 160h53z" />
    <glyph glyph-name="aacute" unicode="&#xe1;" horiz-adv-x="507" 
d="M494 -3l-28 -2.99902c-45.333 0 -68 31.333 -68 94c-43.333 -67.333 -113 -101 -209 -101c-45.333 0 -82.5 13.167 -111.5 39.5s-43.5 61.833 -43.5 106.5c0 53.333 22.333 92.666 67 117.999c30.667 17.333 77.334 30.333 140.001 39c31.333 3.33301 62.666 7 93.999 11
c42 8.66699 63 25 63 49v44c0 72.667 -46.667 109 -140 109c-48 0 -87 -9.33301 -117 -28c-36 -22 -54 -55.667 -54 -101h-30c0 52 20.667 92 62 120c36 24.667 81.333 37 136 37c96 0 152.333 -32.333 169 -97c3.33301 -12.667 5 -36 5 -70v-253
c0 -30 1.33301 -49.667 4 -59c6 -20.667 20 -31 42 -31l19 2v-26zM398 297.001c-8.66699 -10 -56.667 -20.667 -144 -32c-55.333 -6.66699 -96.333 -16.667 -123 -30c-42.667 -20.667 -64 -53 -64 -97c0 -38.667 12 -68.334 36 -89.001s55.667 -31 95 -31
c60.667 0 110 17 148 51c22 19.333 36.667 42 44 68c5.33301 18.667 8 46.334 8 83.001v77zM188 584.001l102 160h53l-124 -160h-31z" />
    <glyph glyph-name="acircumflex" unicode="&#xe2;" horiz-adv-x="507" 
d="M494 -3l-28 -2.99902c-45.333 0 -68 31.333 -68 94c-43.333 -67.333 -113 -101 -209 -101c-45.333 0 -82.5 13.167 -111.5 39.5s-43.5 61.833 -43.5 106.5c0 53.333 22.333 92.666 67 117.999c30.667 17.333 77.334 30.333 140.001 39c31.333 3.33301 62.666 7 93.999 11
c42 8.66699 63 25 63 49v44c0 72.667 -46.667 109 -140 109c-48 0 -87 -9.33301 -117 -28c-36 -22 -54 -55.667 -54 -101h-30c0 52 20.667 92 62 120c36 24.667 81.333 37 136 37c96 0 152.333 -32.333 169 -97c3.33301 -12.667 5 -36 5 -70v-253
c0 -30 1.33301 -49.667 4 -59c6 -20.667 20 -31 42 -31l19 2v-26zM398 297.001c-8.66699 -10 -56.667 -20.667 -144 -32c-55.333 -6.66699 -96.333 -16.667 -123 -30c-42.667 -20.667 -64 -53 -64 -97c0 -38.667 12 -68.334 36 -89.001s55.667 -31 95 -31
c60.667 0 110 17 148 51c22 19.333 36.667 42 44 68c5.33301 18.667 8 46.334 8 83.001v77zM120 584.001l100 160h48l99 -160h-30l-93 132l-93 -132h-31z" />
    <glyph glyph-name="atilde" unicode="&#xe3;" horiz-adv-x="507" 
d="M494 -3l-28 -2.99902c-45.333 0 -68 31.333 -68 94c-43.333 -67.333 -113 -101 -209 -101c-45.333 0 -82.5 13.167 -111.5 39.5s-43.5 61.833 -43.5 106.5c0 53.333 22.333 92.666 67 117.999c30.667 17.333 77.334 30.333 140.001 39c31.333 3.33301 62.666 7 93.999 11
c42 8.66699 63 25 63 49v44c0 72.667 -46.667 109 -140 109c-48 0 -87 -9.33301 -117 -28c-36 -22 -54 -55.667 -54 -101h-30c0 52 20.667 92 62 120c36 24.667 81.333 37 136 37c96 0 152.333 -32.333 169 -97c3.33301 -12.667 5 -36 5 -70v-253
c0 -30 1.33301 -49.667 4 -59c6 -20.667 20 -31 42 -31l19 2v-26zM398 297.001c-8.66699 -10 -56.667 -20.667 -144 -32c-55.333 -6.66699 -96.333 -16.667 -123 -30c-42.667 -20.667 -64 -53 -64 -97c0 -38.667 12 -68.334 36 -89.001s55.667 -31 95 -31
c60.667 0 110 17 148 51c22 19.333 36.667 42 44 68c5.33301 18.667 8 46.334 8 83.001v77zM374 697.001c-16.667 -46 -41.667 -69 -75 -69c-8 0 -19 1.66699 -33 5l-55 13l-25 3c-17.333 0 -32.333 -11 -45 -33h-27c14 46 39 69 75 69l27 -4l56 -13l29 -5
c20 0 35 11.333 45 34h28z" />
    <glyph glyph-name="adieresis" unicode="&#xe4;" horiz-adv-x="507" 
d="M494 -3l-28 -2.99902c-45.333 0 -68 31.333 -68 94c-43.333 -67.333 -113 -101 -209 -101c-45.333 0 -82.5 13.167 -111.5 39.5s-43.5 61.833 -43.5 106.5c0 53.333 22.333 92.666 67 117.999c30.667 17.333 77.334 30.333 140.001 39c31.333 3.33301 62.666 7 93.999 11
c42 8.66699 63 25 63 49v44c0 72.667 -46.667 109 -140 109c-48 0 -87 -9.33301 -117 -28c-36 -22 -54 -55.667 -54 -101h-30c0 52 20.667 92 62 120c36 24.667 81.333 37 136 37c96 0 152.333 -32.333 169 -97c3.33301 -12.667 5 -36 5 -70v-253
c0 -30 1.33301 -49.667 4 -59c6 -20.667 20 -31 42 -31l19 2v-26zM398 297.001c-8.66699 -10 -56.667 -20.667 -144 -32c-55.333 -6.66699 -96.333 -16.667 -123 -30c-42.667 -20.667 -64 -53 -64 -97c0 -38.667 12 -68.334 36 -89.001s55.667 -31 95 -31
c60.667 0 110 17 148 51c22 19.333 36.667 42 44 68c5.33301 18.667 8 46.334 8 83.001v77zM144 626.001v56h45v-56h-45zM298 626.001v56h46v-56h-46z" />
    <glyph glyph-name="aring" unicode="&#xe5;" horiz-adv-x="507" 
d="M494 -3l-28 -2.99902c-45.333 0 -68 31.333 -68 94c-43.333 -67.333 -113 -101 -209 -101c-45.333 0 -82.5 13.167 -111.5 39.5s-43.5 61.833 -43.5 106.5c0 53.333 22.333 92.666 67 117.999c30.667 17.333 77.334 30.333 140.001 39c31.333 3.33301 62.666 7 93.999 11
c42 8.66699 63 25 63 49v44c0 72.667 -46.667 109 -140 109c-48 0 -87 -9.33301 -117 -28c-36 -22 -54 -55.667 -54 -101h-30c0 52 20.667 92 62 120c36 24.667 81.333 37 136 37c96 0 152.333 -32.333 169 -97c3.33301 -12.667 5 -36 5 -70v-253
c0 -30 1.33301 -49.667 4 -59c6 -20.667 20 -31 42 -31l19 2v-26zM398 297.001c-8.66699 -10 -56.667 -20.667 -144 -32c-55.333 -6.66699 -96.333 -16.667 -123 -30c-42.667 -20.667 -64 -53 -64 -97c0 -38.667 12 -68.334 36 -89.001s55.667 -31 95 -31
c60.667 0 110 17 148 51c22 19.333 36.667 42 44 68c5.33301 18.667 8 46.334 8 83.001v77zM141 665.001c0 30.667 10.5 56.5 31.5 77.5s46.833 31.5 77.5 31.5c31.333 0 57.333 -10.333 78 -31s31 -46.667 31 -78c0 -30.667 -10.5 -56.5 -31.5 -77.5
s-46.833 -31.5 -77.5 -31.5s-56.5 10.5 -77.5 31.5s-31.5 46.833 -31.5 77.5zM169 666.001c0 -23.333 7.66797 -42.8311 23.001 -58.498s34.666 -23.5 57.999 -23.5c24 0 43.5 7.66699 58.5 23s22.5 35 22.5 59c0 23.333 -7.66699 42.666 -23 57.999s-34.666 23 -57.999 23
c-22.667 0 -41.834 -7.83301 -57.501 -23.5s-23.5 -34.834 -23.5 -57.501z" />
    <glyph glyph-name="ae" unicode="&#xe6;" horiz-adv-x="873" 
d="M419 126c-15.333 -46 -45.666 -81.332 -90.999 -105.999c-40 -22 -86 -33 -138 -33c-46 0 -83 12.667 -111 38c-30 26.667 -45 62.667 -45 108c0 53.333 22.333 92.666 67 117.999c31.333 17.333 78 30.333 140 39c31.333 3.33301 62.666 7 93.999 11
c42 8.66699 63 25 63 49v44c0 72 -46.667 108 -140 108c-104 0 -161.667 -42.667 -173 -128h-29c0 53.333 22 94 66 122c36.667 23.333 83.334 35 140.001 35c101.333 0 157.666 -38 168.999 -114c41.333 75.333 103 113 185 113c73.333 0 129 -25 167 -75
c34 -44.667 51 -104.667 51 -180v-19h-405v-10c0 -63.333 15 -116.333 45 -159c34 -48.667 81.333 -73 142 -73c43.333 0 80.333 12.5 111 37.5s52.667 58.5 66 100.5h31c-14 -52 -39 -92.667 -75 -122s-80.333 -44 -133 -44c-96 0 -161.667 46.667 -197 140zM398 290.001
c-12.667 -6.66699 -34.333 -12.001 -65 -16.001l-69 -9c-61.333 -8 -104 -17.333 -128 -28c-46 -20.667 -69 -53.667 -69 -99c0 -80 43 -120 129 -120c62 0 112 17 150 51c22 19.333 36.667 42 44 68c5.33301 18.667 8 46.334 8 83.001v70zM429.001 285h371v5
c0 59.333 -14.667 108.333 -44 147c-32 43.333 -76.667 65 -134 65c-60 0 -107.667 -21.667 -143 -65c-33.333 -40 -50 -90.667 -50 -152z" />
    <glyph glyph-name="ccedilla" unicode="&#xe7;" horiz-adv-x="519" 
d="M474 167c-6 -56 -27.5 -100.171 -64.5 -132.504s-83.833 -48.5 -140.5 -48.5c-74.667 0 -132 27.667 -172 83c-35.333 48.667 -53 111.667 -53 189c0 78.667 17.667 142.334 53 191.001c40.667 54 99 81 175 81c54 0 98.5 -14 133.5 -42s56.167 -68.333 63.5 -121h-32
c-7.33301 42.667 -25.833 75.834 -55.5 99.501s-66.167 35.5 -109.5 35.5c-66.667 0 -117 -25 -151 -75c-30 -43.333 -45 -99.666 -45 -168.999s15 -125.666 45 -168.999c34 -50 84.333 -75 151 -75c46 0 84.667 14 116 42s50 65 56 111h30zM178 -202.004v27
c39.333 -10 76 -15 110 -15c46 0 69 17 69 51c0 39.333 -26.333 58 -79 56l-23 -1v84h20v-59h12c65.333 0 98 -25 98 -75c0 -55.333 -33 -83 -99 -83c-27.333 0 -63.333 5 -108 15z" />
    <glyph glyph-name="egrave" unicode="&#xe8;" horiz-adv-x="523" 
d="M471 152c-11.333 -50.667 -35.833 -91.0039 -73.5 -121.004s-82.5 -45 -134.5 -45c-74 0 -130.333 28 -169 84c-34 48.667 -51 111.334 -51 188.001s17 139.334 51 188.001c38.667 56 95 84 169 84c73.333 0 129 -25 167 -75c34 -44.667 51 -104.667 51 -180v-19h-405v-8
c0 -63.333 15 -116.666 45 -159.999c34 -49.333 81.333 -74 142 -74c44 0 81.5 12.333 112.5 37s52.5 58.334 64.5 101.001h31zM77 284.996h370c0 60 -14.333 110 -43 150c-32 44.667 -77 67 -135 67c-61.333 0 -109.333 -21.333 -144 -64c-32 -39.333 -48 -90.333 -48 -153
zM322 583.996h-31l-124 160h53z" />
    <glyph glyph-name="eacute" unicode="&#xe9;" horiz-adv-x="523" 
d="M471 152c-11.333 -50.667 -35.833 -91.0039 -73.5 -121.004s-82.5 -45 -134.5 -45c-74 0 -130.333 28 -169 84c-34 48.667 -51 111.334 -51 188.001s17 139.334 51 188.001c38.667 56 95 84 169 84c73.333 0 129 -25 167 -75c34 -44.667 51 -104.667 51 -180v-19h-405v-8
c0 -63.333 15 -116.666 45 -159.999c34 -49.333 81.333 -74 142 -74c44 0 81.5 12.333 112.5 37s52.5 58.334 64.5 101.001h31zM77 284.996h370c0 60 -14.333 110 -43 150c-32 44.667 -77 67 -135 67c-61.333 0 -109.333 -21.333 -144 -64c-32 -39.333 -48 -90.333 -48 -153
zM210 583.996l102 160h53l-124 -160h-31z" />
    <glyph glyph-name="ecircumflex" unicode="&#xea;" horiz-adv-x="523" 
d="M471 152c-11.333 -50.667 -35.833 -91.0039 -73.5 -121.004s-82.5 -45 -134.5 -45c-74 0 -130.333 28 -169 84c-34 48.667 -51 111.334 -51 188.001s17 139.334 51 188.001c38.667 56 95 84 169 84c73.333 0 129 -25 167 -75c34 -44.667 51 -104.667 51 -180v-19h-405v-8
c0 -63.333 15 -116.666 45 -159.999c34 -49.333 81.333 -74 142 -74c44 0 81.5 12.333 112.5 37s52.5 58.334 64.5 101.001h31zM77 284.996h370c0 60 -14.333 110 -43 150c-32 44.667 -77 67 -135 67c-61.333 0 -109.333 -21.333 -144 -64c-32 -39.333 -48 -90.333 -48 -153
zM142 583.996l100 160h48l99 -160h-30l-93 132l-93 -132h-31z" />
    <glyph glyph-name="edieresis" unicode="&#xeb;" horiz-adv-x="523" 
d="M471 152c-11.333 -50.667 -35.833 -91.0039 -73.5 -121.004s-82.5 -45 -134.5 -45c-74 0 -130.333 28 -169 84c-34 48.667 -51 111.334 -51 188.001s17 139.334 51 188.001c38.667 56 95 84 169 84c73.333 0 129 -25 167 -75c34 -44.667 51 -104.667 51 -180v-19h-405v-8
c0 -63.333 15 -116.666 45 -159.999c34 -49.333 81.333 -74 142 -74c44 0 81.5 12.333 112.5 37s52.5 58.334 64.5 101.001h31zM77 284.996h370c0 60 -14.333 110 -43 150c-32 44.667 -77 67 -135 67c-61.333 0 -109.333 -21.333 -144 -64c-32 -39.333 -48 -90.333 -48 -153
zM166 625.996v56h45v-56h-45zM320 625.996v56h46v-56h-46z" />
    <glyph glyph-name="igrave" unicode="&#xec;" horiz-adv-x="175" 
d="M72 0v519h31v-519h-31zM144 584h-31l-124 160h53z" />
    <glyph glyph-name="iacute" unicode="&#xed;" horiz-adv-x="175" 
d="M72 0v519h31v-519h-31zM32 584l102 160h53l-124 -160h-31z" />
    <glyph glyph-name="icircumflex" unicode="&#xee;" horiz-adv-x="175" 
d="M72 0v519h31v-519h-31zM-36 584l100 160h48l99 -160h-30l-93 132l-93 -132h-31z" />
    <glyph glyph-name="idieresis" unicode="&#xef;" horiz-adv-x="175" 
d="M72 0v519h31v-519h-31zM-12 626v56h45v-56h-45zM142 626v56h46v-56h-46z" />
    <glyph glyph-name="eth" unicode="&#xf0;" horiz-adv-x="545" 
d="M272 487c-66 0 -116.333 -23.667 -151 -71c-30 -42 -45 -97.333 -45 -166c0 -68 15.333 -123 46 -165c34.667 -48 84.667 -72 150 -72s115.333 24 150 72c31.333 42.667 47 97.667 47 165s-15.667 122.333 -47 165c-34.667 48 -84.667 72 -150 72zM424 453
c-38 66.667 -85.333 118.668 -142 156.001l-137 -58l-10 26l118 50c-40 26 -89 50 -147 72l12 25c54 -20 109 -47.667 165 -83l124 54l12 -26l-107 -47c126 -96.667 189 -219.667 189 -369c0 -80.667 -17.667 -144 -53 -190c-38.667 -50.667 -97.334 -76 -176.001 -76
c-77.333 0 -135.666 25 -174.999 75c-36 45.333 -54 107.666 -54 186.999s18 142 54 188c40 51.333 98.333 77 175 77c58 0 108.667 -20.333 152 -61z" />
    <glyph glyph-name="ntilde" unicode="&#xf1;" horiz-adv-x="521" 
d="M69 0v519h32v-85c33.333 64 91.666 96 174.999 96c118.667 0 178 -62 178 -186v-344h-32v334c0 55.333 -10 96 -30 122c-23.333 30 -61.666 45 -114.999 45c-98 0 -155 -44.333 -171 -133c-3.33301 -18.667 -5 -48.667 -5 -90v-278h-32zM391 697
c-16.667 -46 -41.667 -69 -75 -69c-8 0 -19 1.66699 -33 5l-55 13l-25 3c-17.333 0 -32.333 -11 -45 -33h-27c14 46 39 69 75 69l27 -4l56 -13l29 -5c20 0 35 11.333 45 34h28z" />
    <glyph glyph-name="ograve" unicode="&#xf2;" horiz-adv-x="545" 
d="M44 258c0 78.667 17.667 142.333 53 191c40.667 54 99 81 175 81c76.667 0 135 -27 175 -81c36 -48 54 -111.667 54 -191s-18 -143 -54 -191c-40 -54 -98.333 -81 -175 -81c-76 0 -134 27.333 -174 82c-36 48.667 -54 112 -54 190zM76 257.999
c0 -69.333 14.999 -125.667 44.999 -169c34 -50 84.333 -75 151 -75s117.334 25 152.001 75c30 43.333 45 99.666 45 168.999c0 68.667 -15.333 125 -46 169c-34.667 50 -85 75 -151 75c-66.667 0 -117 -25 -151 -75c-30 -43.333 -45 -99.666 -45 -168.999zM328.999 583.998
h-31l-124 160h53z" />
    <glyph glyph-name="oacute" unicode="&#xf3;" horiz-adv-x="545" 
d="M44 258c0 78.667 17.667 142.333 53 191c40.667 54 99 81 175 81c76.667 0 135 -27 175 -81c36 -48 54 -111.667 54 -191s-18 -143 -54 -191c-40 -54 -98.333 -81 -175 -81c-76 0 -134 27.333 -174 82c-36 48.667 -54 112 -54 190zM76 257.999
c0 -69.333 14.999 -125.667 44.999 -169c34 -50 84.333 -75 151 -75s117.334 25 152.001 75c30 43.333 45 99.666 45 168.999c0 68.667 -15.333 125 -46 169c-34.667 50 -85 75 -151 75c-66.667 0 -117 -25 -151 -75c-30 -43.333 -45 -99.666 -45 -168.999zM216.999 583.998
l102 160h53l-124 -160h-31z" />
    <glyph glyph-name="ocircumflex" unicode="&#xf4;" horiz-adv-x="545" 
d="M44 258c0 78.667 17.667 142.333 53 191c40.667 54 99 81 175 81c76.667 0 135 -27 175 -81c36 -48 54 -111.667 54 -191s-18 -143 -54 -191c-40 -54 -98.333 -81 -175 -81c-76 0 -134 27.333 -174 82c-36 48.667 -54 112 -54 190zM76 257.999
c0 -69.333 14.999 -125.667 44.999 -169c34 -50 84.333 -75 151 -75s117.334 25 152.001 75c30 43.333 45 99.666 45 168.999c0 68.667 -15.333 125 -46 169c-34.667 50 -85 75 -151 75c-66.667 0 -117 -25 -151 -75c-30 -43.333 -45 -99.666 -45 -168.999zM322.999 583.998
l102 160h53l-124 -160h-31zM182.999 583.998l102 160h53l-124 -160h-31z" />
    <glyph glyph-name="otilde" unicode="&#xf5;" horiz-adv-x="545" 
d="M44 258c0 78.667 17.667 142.333 53 191c40.667 54 99 81 175 81c76.667 0 135 -27 175 -81c36 -48 54 -111.667 54 -191s-18 -143 -54 -191c-40 -54 -98.333 -81 -175 -81c-76 0 -134 27.333 -174 82c-36 48.667 -54 112 -54 190zM76 257.999
c0 -69.333 14.999 -125.667 44.999 -169c34 -50 84.333 -75 151 -75s117.334 25 152.001 75c30 43.333 45 99.666 45 168.999c0 68.667 -15.333 125 -46 169c-34.667 50 -85 75 -151 75c-66.667 0 -117 -25 -151 -75c-30 -43.333 -45 -99.666 -45 -168.999zM322.999 583.998
l102 160h53l-124 -160h-31zM182.999 583.998l102 160h53l-124 -160h-31z" />
    <glyph glyph-name="odieresis" unicode="&#xf6;" horiz-adv-x="545" 
d="M44 258c0 78.667 17.667 142.333 53 191c40.667 54 99 81 175 81c76.667 0 135 -27 175 -81c36 -48 54 -111.667 54 -191s-18 -143 -54 -191c-40 -54 -98.333 -81 -175 -81c-76 0 -134 27.333 -174 82c-36 48.667 -54 112 -54 190zM76 257.999
c0 -69.333 14.999 -125.667 44.999 -169c34 -50 84.333 -75 151 -75s117.334 25 152.001 75c30 43.333 45 99.666 45 168.999c0 68.667 -15.333 125 -46 169c-34.667 50 -85 75 -151 75c-66.667 0 -117 -25 -151 -75c-30 -43.333 -45 -99.666 -45 -168.999zM172.999 625.998
v56h45v-56h-45zM326.999 625.998v56h46v-56h-46z" />
    <glyph glyph-name="divide" unicode="&#xf7;" horiz-adv-x="833" 
d="M417 508c12.667 0 23.167 -4.33203 31.5 -12.999s12.5 -19.334 12.5 -32.001s-4.16699 -23.167 -12.5 -31.5s-18.833 -12.5 -31.5 -12.5c-30 0 -45 14.667 -45 44c0 12 4.5 22.5 13.5 31.5s19.5 13.5 31.5 13.5zM124 313.001h585v-30h-585v30zM417 177.001
c12.667 0 23.167 -4.16699 31.5 -12.5s12.5 -18.833 12.5 -31.5s-4.16699 -23.334 -12.5 -32.001s-18.833 -13 -31.5 -13s-23.334 4.16699 -32.001 12.5s-13 18.833 -13 31.5s4.33301 23.334 13 32.001s19.334 13 32.001 13z" />
    <glyph glyph-name="oslash" unicode="&#xf8;" horiz-adv-x="545" 
d="M30 -2l64 76c-33.333 48.667 -50 109.667 -50 183c0 78.667 18 142.334 54 191.001c40 54.667 98.333 82 175 82c65.333 0 119 -22 161 -66l60 70l21 -20l-63 -73c33.333 -47.333 50 -106.333 50 -177c0 -80.667 -17.333 -145.334 -52 -194.001c-40 -56 -99 -84 -177 -84
c-66 0 -119.667 21.667 -161 65l-62 -72zM116 98l297 342c-35.333 41.333 -83.333 62 -144 62c-65.333 0 -115 -25.667 -149 -77c-29.333 -44 -44 -100.333 -44 -169c0 -65.333 13.333 -118 40 -158zM134 75c36 -40.667 82.333 -60.999 139 -60.999c66.667 0 117 25 151 75
c30 43.333 45 99.666 45 168.999c0 70 -12.667 122.667 -38 158z" />
    <glyph glyph-name="ugrave" unicode="&#xf9;" horiz-adv-x="521" 
d="M451 519l-0.000976562 -519h-31v81c-32.667 -63.333 -91 -95 -175 -95c-118.667 0 -178 62 -178 186v347h31v-337c0 -55.333 10.333 -96 31 -122c22.667 -30 61 -45 115 -45c96.667 0 153.334 42.333 170.001 127c4 20 6 52 6 96v281h31zM316.999 584h-31l-124 160h53z
" />
    <glyph glyph-name="uacute" unicode="&#xfa;" horiz-adv-x="521" 
d="M451 519l-0.000976562 -519h-31v81c-32.667 -63.333 -91 -95 -175 -95c-118.667 0 -178 62 -178 186v347h31v-337c0 -55.333 10.333 -96 31 -122c22.667 -30 61 -45 115 -45c96.667 0 153.334 42.333 170.001 127c4 20 6 52 6 96v281h31zM204.999 584l102 160h53
l-124 -160h-31z" />
    <glyph glyph-name="ucircumflex" unicode="&#xfb;" horiz-adv-x="521" 
d="M451 519l-0.000976562 -519h-31v81c-32.667 -63.333 -91 -95 -175 -95c-118.667 0 -178 62 -178 186v347h31v-337c0 -55.333 10.333 -96 31 -122c22.667 -30 61 -45 115 -45c96.667 0 153.334 42.333 170.001 127c4 20 6 52 6 96v281h31zM304.999 584l102 160h53
l-124 -160h-31zM164.999 584l102 160h53l-124 -160h-31z" />
    <glyph glyph-name="udieresis" unicode="&#xfc;" horiz-adv-x="521" 
d="M451 519l-0.000976562 -519h-31v81c-32.667 -63.333 -91 -95 -175 -95c-118.667 0 -178 62 -178 186v347h31v-337c0 -55.333 10.333 -96 31 -122c22.667 -30 61 -45 115 -45c96.667 0 153.334 42.333 170.001 127c4 20 6 52 6 96v281h31zM160.999 626v56h45v-56h-45z
M314.999 626v56h46v-56h-46z" />
    <glyph glyph-name="yacute" unicode="&#xfd;" horiz-adv-x="437" 
d="M203 -79c-15.333 -40.667 -28.666 -69 -39.999 -85c-20.667 -29.333 -46.334 -44 -77.001 -44c-16 0 -28 2 -36 6v30c14 -4 26.333 -6 37 -6c30 0 52.667 20 68 60l44 114l-193 523h31l179 -482l179 482h34zM163 584l102 160h53l-124 -160h-31z" />
    <glyph glyph-name="thorn" unicode="&#xfe;" horiz-adv-x="572" 
d="M297 502c-66.667 0 -117 -25 -151 -75c-30 -43.333 -45 -99.666 -45 -168.999s15 -125.666 45 -168.999c34 -50 84.333 -75 151 -75s117.334 25 152.001 75c30 43.333 45 99.666 45 168.999s-15 125.666 -45 168.999c-34.667 50 -85.334 75 -152.001 75zM101 112v-318
h-32v924h32v-318c33.333 86.667 98.666 130 195.999 130c76.667 0 135 -27 175 -81c36 -48 54 -111.667 54 -191s-18 -143 -54 -191c-40 -54 -98.333 -81 -175 -81c-97.333 0 -162.666 42 -195.999 126z" />
    <glyph glyph-name="ydieresis" unicode="&#xff;" horiz-adv-x="437" 
d="M203 -79c-15.333 -40.667 -28.666 -69 -39.999 -85c-20.667 -29.333 -46.334 -44 -77.001 -44c-16 0 -28 2 -36 6v30c14 -4 26.333 -6 37 -6c30 0 52.667 20 68 60l44 114l-193 523h31l179 -482l179 482h34zM119 626v56h45v-56h-45zM273 626v56h46v-56h-46z" />
    <glyph glyph-name="dotlessi" unicode="&#x131;" horiz-adv-x="175" 
d="M72 0v519h31v-519h-31z" />
    <glyph glyph-name="Lslash" unicode="&#x141;" horiz-adv-x="509" 
d="M83 0v301l-75 -56l-17 23l92 70v381h34v-362l236 178l18 -23l-254 -191v-289h381v-32h-415z" />
    <glyph glyph-name="lslash" unicode="&#x142;" horiz-adv-x="175" 
d="M72 0v356l-62 -47l-18 22l80 61v326h31v-309l61 47l18 -22l-79 -61v-373h-31z" />
    <glyph glyph-name="Odblacute" unicode="&#x150;" horiz-adv-x="741" 
d="M52 359c0 109.333 25 197.333 75 264c56 74.667 137 112 243 112s187 -37.333 243 -112c50.667 -66.667 76 -154.667 76 -264c0 -110 -25 -198 -75 -264c-56 -74 -137.333 -111 -244 -111s-187.667 37 -243 111c-50 66 -75 154 -75 264zM87 359
c0 -100 21.667 -180.331 65 -240.998c49.333 -69.333 122 -104 218 -104s169 34.667 219 104c43.333 61.333 65 141.666 65 240.999s-22 179.666 -66 240.999c-50 70 -122.667 105 -218 105s-168 -35 -218 -105c-43.333 -62 -65 -142.333 -65 -241zM420 789.002l102 160h53
l-124 -160h-31zM280 789.002l102 160h53l-124 -160h-31z" />
    <glyph glyph-name="odblacute" unicode="&#x151;" horiz-adv-x="545" 
d="M44 258c0 78.667 17.667 142.333 53 191c40.667 54 99 81 175 81c76.667 0 135 -27 175 -81c36 -48 54 -111.667 54 -191s-18 -143 -54 -191c-40 -54 -98.333 -81 -175 -81c-76 0 -134 27.333 -174 82c-36 48.667 -54 112 -54 190zM76 257.999
c0 -69.333 14.999 -125.667 44.999 -169c34 -50 84.333 -75 151 -75s117.334 25 152.001 75c30 43.333 45 99.666 45 168.999c0 68.667 -15.333 125 -46 169c-34.667 50 -85 75 -151 75c-66.667 0 -117 -25 -151 -75c-30 -43.333 -45 -99.666 -45 -168.999zM322.999 583.998
l102 160h53l-124 -160h-31zM182.999 583.998l102 160h53l-124 -160h-31z" />
    <glyph glyph-name="OE" unicode="&#x152;" horiz-adv-x="1045" 
d="M572 0v57c-52.667 -48.667 -120 -73 -202 -73c-106.667 0 -187.667 37 -243 111c-50 66 -75 154 -75 264c0 110.667 25 199 75 265c56 74.667 137.667 112 245 112c83.333 0 150 -23 200 -69v52h439v-31h-405v-298h370v-31h-370v-328h415v-31h-449zM572 100v519.999
c-42 56.667 -109.667 85 -203 85c-95.333 0 -167.666 -35 -216.999 -105c-43.333 -61.333 -65 -141.666 -65 -240.999c0 -100 21.667 -180.333 65 -241c49.333 -69.333 122 -104 218 -104c87.333 0 154.666 28.667 201.999 86z" />
    <glyph glyph-name="oe" unicode="&#x153;" horiz-adv-x="948" 
d="M486 150c-34 -109.333 -105.332 -164.002 -213.999 -164.002c-76 0 -134 27.333 -174 82c-36 48.667 -54 112 -54 190c0 78.667 17.667 142.334 53 191.001c40.667 54 99 81 175 81c112 0 183 -54.667 213 -164c30 109.333 98.667 164 206 164c70.667 0 126 -25 166 -75
c38 -47.333 55.333 -106.666 52 -177.999l-1 -21h-407c0 -66.667 14.667 -122 44 -166c33.333 -50.667 82 -76 146 -76c43.333 0 80.333 12.5 111 37.5s52.667 58.5 66 100.5h30c-12 -51.333 -36.333 -91.833 -73 -121.5s-81.334 -44.5 -134.001 -44.5
c-106.667 0 -175 54.667 -205 164zM76.001 257.998c0 -69.333 14.999 -125.667 44.999 -169c34 -50 84.333 -75 151 -75s117.334 25 152.001 75c30 43.333 45 99.666 45 168.999c0 68.667 -15.333 125 -46 169c-34.667 50 -85 75 -151 75c-66.667 0 -117 -25 -151 -75
c-30 -43.333 -45 -99.666 -45 -168.999zM502 284.997h370v12c0 57.333 -15 105 -45 143c-32 41.333 -76 62 -132 62c-60 0 -107.667 -21.667 -143 -65c-33.333 -40 -50 -90.667 -50 -152z" />
    <glyph glyph-name="Scaron" unicode="&#x160;" horiz-adv-x="573" 
d="M45 219l33.002 0.000976562c0 -63.333 19.667 -113.333 59 -150s90.666 -55 153.999 -55c55.333 0 102 14 140 42c42.667 30.667 64 72.667 64 126c0 51.333 -17.333 89.666 -52 114.999c-25.333 18.667 -78.333 39.334 -159 62.001
c-50.667 14 -80.334 22.667 -89.001 26c-37.333 13.333 -64.333 27.666 -81 42.999c-34 31.333 -51 71 -51 119c0 60.667 21.333 107.667 64 141c39.333 31.333 90 47 152 47c68 0 122.667 -18 164 -54c44 -38 66 -90.333 66 -157h-32c0 57.333 -19.333 102.666 -58 135.999
c-36 31.333 -83.333 47 -142 47c-54 0 -97 -13 -129 -39c-35.333 -28 -53 -68.333 -53 -121c0 -37.333 14.667 -69.666 44 -96.999c18.667 -17.333 70.667 -38 156 -62c88.667 -25.333 147 -48.333 175 -69c39.333 -29.333 59 -72 59 -128
c0 -67.333 -23.667 -119.333 -71 -156c-43.333 -34 -99.333 -51 -168 -51c-72.667 0 -131.667 21.167 -177 63.5s-68 99.5 -68 171.5zM163.002 949.001h31l93 -132l93 132h30l-99 -160h-48z" />
    <glyph glyph-name="scaron" unicode="&#x161;" horiz-adv-x="481" 
d="M81 154c17.333 -92 72.6641 -138 165.997 -138c42 0 76.667 9 104 27c32.667 21.333 49 51.666 49 90.999c0 43.333 -27 74.333 -81 93l-133 37c-81.333 24.667 -122 67.667 -122 129c0 45.333 19 80.333 57 105c32.667 21.333 73 32 121 32s88 -13 120 -39
s50.333 -62.667 55 -110h-31c-11.333 80.667 -60.666 121 -147.999 121c-36 0 -67.333 -8.33301 -94 -25c-31.333 -19.333 -47 -46 -47 -80c0 -35.333 14.667 -61.666 44 -78.999c18.667 -11.333 60.334 -25.333 125.001 -42c60.667 -16 102.334 -32.667 125.001 -50
c28 -22 42 -53 42 -93c0 -47.333 -19.667 -84.333 -59 -111c-34.667 -24 -76.667 -36 -126 -36c-56 0 -101.333 14 -136 42c-36.667 29.333 -57.667 71.333 -63 126h32zM116.998 744h31l93 -132l93 132h30l-99 -160h-48z" />
    <glyph glyph-name="Udblacute" unicode="&#x170;" horiz-adv-x="671" 
d="M77 719l33 0.000976562v-452c0 -168.667 75.333 -253 226 -253s226 84.333 226 253v452h33v-468c0 -82.667 -22.667 -147.834 -68 -195.501s-109 -71.5 -191 -71.5c-83.333 0 -147.333 23.5 -192 70.5s-67 112.5 -67 196.5v468zM390 789.001l102 160h53l-124 -160h-31z
M250 789.001l102 160h53l-124 -160h-31z" />
    <glyph glyph-name="udblacute" unicode="&#x171;" horiz-adv-x="521" 
d="M451 519l-0.000976562 -519h-31v81c-32.667 -63.333 -91 -95 -175 -95c-118.667 0 -178 62 -178 186v347h31v-337c0 -55.333 10.333 -96 31 -122c22.667 -30 61 -45 115 -45c96.667 0 153.334 42.333 170.001 127c4 20 6 52 6 96v281h31zM304.999 584l102 160h53
l-124 -160h-31zM164.999 584l102 160h53l-124 -160h-31z" />
    <glyph glyph-name="Ydieresis" unicode="&#x178;" horiz-adv-x="530" 
d="M248 0v318l-247 401h38l227 -367l224 367h38l-247 -403v-316h-33zM165 831v56h45v-56h-45zM319 831v56h46v-56h-46z" />
    <glyph glyph-name="Zcaron" unicode="&#x17d;" horiz-adv-x="529" 
d="M9 0v33l462 655h-423v31h459v-34l-462 -655h474v-30h-510zM141 949h31l93 -132l93 132h30l-99 -160h-48z" />
    <glyph glyph-name="zcaron" unicode="&#x17e;" horiz-adv-x="437" 
d="M17 0v37l358 451h-338v31h372v-37l-358 -451h369v-31h-403zM95 744h31l93 -132l93 132h30l-99 -160h-48z" />
    <glyph glyph-name="florin" unicode="&#x192;" horiz-adv-x="521" 
d="M234 383h-80v30h87l32 154c18 85.333 58.667 128 122 128c18.667 0 38 -4 58 -12l-5 -27c-19.333 6.66699 -36.333 10 -51 10c-30 0 -52.667 -11.667 -68 -35c-9.33301 -14.667 -18 -40.334 -26 -77.001l-30 -141h90v-30h-96l-98 -459
c-18 -85.333 -58.667 -128 -122 -128c-19.333 0 -39 4 -59 12l6 27c19.333 -6.66699 36.333 -10 51 -10c30 0 52.667 11.667 68 35c9.33301 14.667 18 40.334 26 77.001z" />
    <glyph glyph-name="circumflex" unicode="&#x2c6;" 
d="M126 584l100 160h48l99 -160h-30l-93 132l-93 -132h-31z" />
    <glyph glyph-name="caron" unicode="&#x2c7;" 
d="M126 744h31l93 -132l93 132h30l-99 -160h-48z" />
    <glyph glyph-name="breve" unicode="&#x2d8;" 
d="M125 722h23.001c6 -54 40 -81 102 -81c61.333 0 95 27 101 81h23c0 -78 -41.333 -117 -124 -117c-76.667 0 -118.334 39 -125.001 117z" />
    <glyph glyph-name="dotaccent" unicode="&#x2d9;" 
d="M226 625v59h49v-59h-49z" />
    <glyph glyph-name="ring" unicode="&#x2da;" 
d="M142 664c0 30.667 10.332 56.501 30.999 77.501s46.334 31.5 77.001 31.5s56.5 -10.5 77.5 -31.5s31.5 -46.833 31.5 -77.5s-10.5 -56.334 -31.5 -77.001s-46.833 -31 -77.5 -31c-30 0 -55.5 10.5 -76.5 31.5s-31.5 46.5 -31.5 76.5zM170.999 664.001
c0 -22 7.66699 -40.501 23 -55.501s34 -22.5 56 -22.5c22.667 0 41.5 7.33301 56.5 22s22.5 33.334 22.5 56.001s-7.5 41.5 -22.5 56.5s-33.833 22.5 -56.5 22.5s-41.5 -7.5 -56.5 -22.5s-22.5 -33.833 -22.5 -56.5z" />
    <glyph glyph-name="ogonek" unicode="&#x2db;" 
d="M266 0c-54.667 -45.333 -82 -84.667 -82 -118c0 -36 22.667 -54 68 -54h31v-27h-26c-65.333 0 -98 25 -98 75c0 40 27.333 81.333 82 124h25z" />
    <glyph glyph-name="tilde" unicode="&#x2dc;" 
d="M380 697c-16.667 -46 -41.667 -69 -75 -69c-8 0 -19 1.66699 -33 5l-55 13l-25 3c-17.333 0 -32.333 -11 -45 -33h-27c14 46 39 69 75 69l27 -4l56 -13l29 -5c20 0 35 11.333 45 34h28z" />
    <glyph glyph-name="endash" unicode="&#x2013;" horiz-adv-x="343" 
d="M38 244v28h266v-28h-266z" />
    <glyph glyph-name="emdash" unicode="&#x2014;" horiz-adv-x="1000" 
d="M0 269h1000v-21h-1000v21z" />
    <glyph glyph-name="quoteleft" unicode="&#x2018;" horiz-adv-x="237" 
d="M171 524h-35l-70 195h34z" />
    <glyph glyph-name="quoteright" unicode="&#x2019;" horiz-adv-x="237" 
d="M66 524l70 195h34l-70 -195h-34z" />
    <glyph glyph-name="quotesinglbase" unicode="&#x201a;" horiz-adv-x="237" 
d="M47 -106l70 195h35l-70 -195h-35z" />
    <glyph glyph-name="quotedblleft" unicode="&#x201c;" horiz-adv-x="381" 
d="M171 524h-35l-70 195h34zM314 524h-35l-70 195h35z" />
    <glyph glyph-name="quotedblright" unicode="&#x201d;" horiz-adv-x="381" 
d="M66 524l70 195h34l-70 -195h-34zM209 524l71 195h34l-70 -195h-35z" />
    <glyph glyph-name="quotedblbase" unicode="&#x201e;" horiz-adv-x="381" 
d="M47 -106l70 195h35l-70 -195h-35zM191 -106l70 195h34l-70 -195h-34z" />
    <glyph glyph-name="dagger" unicode="&#x2020;" 
d="M234 -105v582h-196v29h196v213h31v-213h197v-29h-197v-582h-31z" />
    <glyph glyph-name="daggerdbl" unicode="&#x2021;" 
d="M265 136h197v-29h-197v-212h-31v212h-196v29h196v341h-196v29h196v213h31v-213h197v-29h-197v-341z" />
    <glyph glyph-name="bullet" unicode="&#x2022;" horiz-adv-x="590" 
d="M150 372c0 40.667 14.001 74.833 42.001 102.5s62.333 41.5 103 41.5c40 0 74 -14 102 -42s42 -62 42 -102s-14.167 -74.167 -42.5 -102.5s-62.5 -42.5 -102.5 -42.5c-40.667 0 -74.834 14 -102.501 42s-41.5 62.333 -41.5 103z" />
    <glyph glyph-name="ellipsis" unicode="&#x2026;" horiz-adv-x="1000" 
d="M151 0v87h32v-87h-32zM484 0v87h32v-87h-32zM818 0v87h32v-87h-32z" />
    <glyph glyph-name="perthousand" unicode="&#x2030;" horiz-adv-x="1115" 
d="M71 565c0 -33.333 12 -62 36 -86s52.667 -36 86 -36c34 0 62.833 11.833 86.5 35.5s35.5 52.5 35.5 86.5s-11.833 62.833 -35.5 86.5s-52.5 35.5 -86.5 35.5s-62.833 -11.833 -86.5 -35.5s-35.5 -52.5 -35.5 -86.5zM40 566c0 42.667 14.667 78.835 44 108.502
s65.333 44.5 108 44.5s78.834 -14.833 108.501 -44.5s44.5 -65.834 44.5 -108.501s-14.833 -78.834 -44.5 -108.501s-65.834 -44.5 -108.501 -44.5c-42 0 -77.833 15 -107.5 45s-44.5 66 -44.5 108zM146 -15.999l398 735h36l-401 -735h-33zM412 135.001
c0 -33.333 12 -62 36 -86s52.667 -36 86 -36c34 0 62.833 11.833 86.5 35.5s35.5 52.5 35.5 86.5c0 33.333 -12 62 -36 86s-52.667 36 -86 36s-62 -12 -86 -36s-36 -52.667 -36 -86zM381 136.001c0 42.667 14.8311 78.834 44.498 108.501s65.834 44.5 108.501 44.5
s78.834 -14.833 108.501 -44.5s44.5 -65.834 44.5 -108.501c0 -43.333 -14.667 -79.5 -44 -108.5s-65.666 -43.5 -108.999 -43.5c-42.667 0 -78.834 14.667 -108.501 44s-44.5 65.333 -44.5 108zM799.998 136.001c0 -34 11.833 -63 35.5 -87s52.5 -36 86.5 -36s63 12 87 36
s36 53 36 87s-12 62.833 -36 86.5s-53 35.5 -87 35.5s-62.833 -11.833 -86.5 -35.5s-35.5 -52.5 -35.5 -86.5zM768.998 136.001c0 42.667 14.8311 78.834 44.498 108.501s65.834 44.5 108.501 44.5s78.834 -14.833 108.501 -44.5s44.5 -65.834 44.5 -108.501
c0 -43.333 -14.667 -79.5 -44 -108.5s-65.666 -43.5 -108.999 -43.5c-42.667 0 -78.834 14.667 -108.501 44s-44.5 65.333 -44.5 108z" />
    <glyph glyph-name="guilsinglleft" unicode="&#x2039;" horiz-adv-x="248" 
d="M168 102l-125 158l125 150h40l-122 -150l122 -158h-40z" />
    <glyph glyph-name="guilsinglright" unicode="&#x203a;" horiz-adv-x="248" 
d="M39 102l123 149l-123 159h41l125 -159l-125 -149h-41z" />
    <glyph glyph-name="fraction" unicode="&#x2044;" horiz-adv-x="167" 
d="M-168 -16l465 715h38l-465 -715h-38z" />
    <glyph glyph-name="trademark" unicode="&#x2122;" horiz-adv-x="833" 
d="M139 709h200v-20h-85v-237h-28v237h-87v20zM404 709h43l88 -222l82 222h42v-257h-23v239l-90 -239h-22l-96 239v-239h-24v257z" />
    <glyph glyph-name="fi" unicode="&#xf001;" horiz-adv-x="419" 
d="M222 696l-18 1c-31.333 2 -52 -7.66699 -62 -29c-6 -13.333 -9 -38.333 -9 -75v-74h87v-29h-87v-490h-31v490h-72v29h72v73c0 45.333 5 77 15 95c13.333 26 40.333 38 81 36l24 -1v-26zM316 634v84h31v-84h-31zM316 0v519h31v-519h-31z" />
    <glyph glyph-name="fl" unicode="&#xf002;" horiz-adv-x="419" 
d="M222 696l-18 1c-31.333 2 -52 -7.66699 -62 -29c-6 -13.333 -9 -38.333 -9 -75v-74h87v-29h-87v-490h-31v490h-72v29h72v73c0 45.333 5 77 15 95c13.333 26 40.333 38 81 36l24 -1v-26zM316 0v718h31v-718h-31z" />
    <glyph glyph-name=".null" horiz-adv-x="0" 
 />
    <glyph glyph-name="nonmarkingreturn" horiz-adv-x="260" 
 />
    <glyph glyph-name="glyph234" horiz-adv-x="260" 
 />
    <glyph glyph-name="glyph235" horiz-adv-x="260" 
 />
    <glyph glyph-name="glyph224" horiz-adv-x="260" 
 />
    <glyph glyph-name="glyph227" horiz-adv-x="260" 
 />
    </font>
</defs>
</svg>
