<?xml version="1.0" standalone="no"?>
<!DOCTYPE svg PUBLIC "-//W3C//DTD SVG 1.1//EN" "http://www.w3.org/Graphics/SVG/1.1/DTD/svg11.dtd" >
<svg>
<metadata>
Created by FontForge 20090914 at Thu May 10 09:37:27 2012
 By www-data
ProFonts Library Ver.97 Copyright (c) ScanDer Ltd. Hungary 1993-1997. All rights reserved. ProFonts is registered trademark of ScanDer Ltd. Hungary
</metadata>
<defs>
<font id="KabelMdPFLNormal" horiz-adv-x="1024" >
  <font-face 
    font-family="KabelMd_PFL"
    font-weight="400"
    font-stretch="normal"
    units-per-em="2048"
    panose-1="0 0 0 0 0 0 0 0 0 0"
    ascent="1640"
    descent="-408"
    x-height="1024"
    cap-height="1379"
    bbox="-142 -530.001 2248 2006"
    underline-thickness="171"
    underline-position="-121"
    unicode-range="U+0020-U+25CA"
  />
<missing-glyph 
d="M128 0v2006h768v-2006h-768zM256 128h512v1750h-512v-1750z" />
    <glyph glyph-name=".notdef" 
d="M128 0v2006h768v-2006h-768zM256 128h512v1750h-512v-1750z" />
    <glyph glyph-name="space" unicode=" " horiz-adv-x="512" 
 />
    <glyph glyph-name="exclam" unicode="!" horiz-adv-x="594" 
d="M226 403l-23 941l225 35l-38 -951zM157 140l139 184l140 -184l-140 -185z" />
    <glyph glyph-name="quotedbl" unicode="&#x22;" horiz-adv-x="730" 
d="M275 817h-142l-32 548h207zM597 817h-142l-32 548h207z" />
    <glyph glyph-name="numbersign" unicode="#" horiz-adv-x="1229" 
d="M1132 576l-25 -169h-219l-64 -407h-197l67 407h-243l-64 -407h-188l64 407h-221l24 169h221l39 240h-220l24 169h220l59 380h191l-62 -380h245l60 380h193l-61 -380h217l-24 -169h-217l-38 -240h219zM757 816h-242l-37 -240h243z" />
    <glyph glyph-name="dollar" unicode="$" horiz-adv-x="1120" 
d="M918 1216l-125 -108.001c-77.333 76 -155.666 114 -234.999 114c-56 0 -105 -13.667 -147 -41c-48 -31.333 -72 -73.666 -72 -126.999c0 -68 52.667 -118.667 158 -152c180.667 -58 278.334 -91 293.001 -99c105.333 -58 158 -151.333 158 -280
c0 -96.667 -29.833 -176.667 -89.5 -240s-137.834 -101 -234.501 -113v-184l-146 -21v205c-148.667 8.66699 -264.334 72.334 -347.001 191.001l137 112c74.667 -105.333 167.667 -158 279 -158c60.667 0 112.167 18.167 154.5 54.5s63.5 84.166 63.5 143.499
c0 78.667 -51.667 134.334 -155 167.001l-289 88c-103.333 51.333 -155 139.333 -155 264c0 93.333 29.667 169 89 227c55.333 54 130.333 88 225 102v138l144 28v-165c117.333 -12.667 215.333 -61.334 294 -146.001z" />
    <glyph glyph-name="percent" unicode="%" horiz-adv-x="1522" 
d="M330 13l599 1120c-38.667 -20 -71.667 -30 -99 -30c-28.667 0 -64 10 -106 30c3.33301 -24.667 5 -45.334 5 -62.001c0 -96 -32 -176 -96 -240s-143.667 -96 -239 -96c-92 0 -169.333 31.333 -232 94s-94 140 -94 232c0 90 31.667 167.5 95 232.5s140 97.5 230 97.5
c58.667 0 132.5 -27.667 221.5 -83s161.833 -83 218.5 -83c60 0 111 17 153 51c14.667 12.667 50.667 53 108 121l104 -30l-742 -1385zM396 1248c-50.667 0 -93.999 -18 -129.999 -54s-54 -79.333 -54 -130c0 -53.333 18 -98 54 -134s80.667 -54 134 -54
s97.5 17.5 132.5 52.5s52.5 79.167 52.5 132.5c0 52 -18.333 96.167 -55 132.5s-81.334 54.5 -134.001 54.5zM1123 633.001c91.333 0 169.166 -32.1689 233.499 -96.502s96.5 -142.166 96.5 -233.499c0 -93.333 -32.167 -172.166 -96.5 -236.499
s-143.166 -96.5 -236.499 -96.5c-94 0 -172.667 32.5 -236 97.5s-95 144.833 -95 239.5c0 91.333 32.833 168.5 98.5 231.5s144.167 94.5 235.5 94.5zM1122 487.999c-50.667 0 -94.5 -18 -131.5 -54s-55.5 -79.333 -55.5 -130c0 -52 18.167 -96.667 54.5 -134
s80.5 -56 132.5 -56s95.833 18.667 131.5 56s53.5 82 53.5 134c0 50.667 -18.167 94 -54.5 130s-79.833 54 -130.5 54z" />
    <glyph glyph-name="ampersand" unicode="&#x26;" horiz-adv-x="1281" 
d="M1233 622l-250.999 -257l251 -303l-142 -106l-229 277c-80.667 -90.667 -140.334 -150.334 -179.001 -179.001c-72 -54.667 -150 -82 -234 -82c-102 0 -189.333 33 -262 99c-74.667 68 -112 152.667 -112 254c0 95.333 38 182.666 114 261.999
c23.333 24.667 100 86.334 230 185.001c-103.333 138 -155 245.333 -155 322c0 81.333 33 151 99 209c63.333 55.333 136.333 83 219 83c87.333 0 162 -26 224 -78c65.333 -55.333 98 -125.666 98 -210.999c0 -73.333 -24.667 -141.333 -74 -204
c-32 -41.333 -86.333 -91 -163 -149l205 -248l241 248zM533.001 637c-81.333 -52 -138.666 -94 -171.999 -126c-61.333 -58.667 -92 -119 -92 -181c0 -49.333 16.833 -91.833 50.5 -127.5s75.167 -53.5 124.5 -53.5c75.333 0 177.666 71.667 306.999 215zM561.001 875
c56.667 44 92.332 74 106.999 90c37.333 39.333 56 80 56 122c0 39.333 -13.167 71.833 -39.5 97.5s-59.166 38.5 -98.499 38.5c-38.667 0 -71.167 -13.667 -97.5 -41s-39.5 -60.333 -39.5 -99c0 -50 37.333 -119.333 112 -208z" />
    <glyph glyph-name="quotesingle" unicode="'" horiz-adv-x="408" 
d="M275 817h-142l-32 548h207z" />
    <glyph glyph-name="parenleft" unicode="(" horiz-adv-x="670" 
d="M601 1309c-241.333 -221.333 -362 -479.333 -362 -774c0 -288.667 120.667 -547.667 362 -777l-97 -119c-286 228.667 -429 531 -429 907c0 335.333 143 628.333 429 879z" />
    <glyph glyph-name="parenright" unicode=")" horiz-adv-x="670" 
d="M68 -244c242 222 363 479.667 363 773c0 290 -121 549.333 -363 778l97 118c139.333 -110 245.833 -243.5 319.5 -400.5s110.5 -325.5 110.5 -505.5c0 -334.667 -143.333 -628 -430 -880z" />
    <glyph glyph-name="asterisk" unicode="*" horiz-adv-x="1120" 
d="M485 1095v249l117 35v-284l237 77l69 -100l-270 -88l146 -202l-74 -96l-166 229l-147 -201l-115 41l167 229l-237 77l4 122z" />
    <glyph glyph-name="plus" unicode="+" horiz-adv-x="1120" 
d="M630 752h369l-27 -140h-342v-355l-140 -28v383h-369l27 140h342v355l140 27v-382z" />
    <glyph glyph-name="comma" unicode="," horiz-adv-x="498" 
d="M391 253l-266 -656h-160l200 623z" />
    <glyph glyph-name="hyphen" unicode="-" horiz-adv-x="443" 
d="M0 431v162h443v-162h-443z" />
    <glyph glyph-name="hyphen" unicode="&#x2010;" horiz-adv-x="443" 
d="M0 431v162h443v-162h-443z" />
    <glyph glyph-name="period" unicode="." horiz-adv-x="539" 
d="M270 -45l-140 181l140 183l139 -183z" />
    <glyph glyph-name="slash" unicode="/" horiz-adv-x="1011" 
d="M-20 -311l777 1731l139 -42l-783 -1733z" />
    <glyph glyph-name="zero" unicode="0" horiz-adv-x="1120" 
d="M558 1398c172.667 0 301.667 -81 387 -243c67.333 -127.333 101 -286 101 -476c0 -180 -35.333 -335.667 -106 -467c-88 -163.333 -214.667 -245 -380 -245c-170 0 -298 81.667 -384 245c-68 129.333 -102 287 -102 473c0 185.333 34 342.333 102 471
c86 161.333 213.333 242 382 242zM566 1218c-113.333 0 -194.667 -66.665 -244 -199.998c-33.333 -90.667 -50 -205.334 -50 -344.001c0 -134.667 16.333 -245.667 49 -333c47.333 -129.333 126 -194 236 -194s189.667 67.333 239 202c34.667 94 52 208.333 52 343
c0 131.333 -16.333 241.666 -49 330.999c-48 130 -125.667 195 -233 195z" />
    <glyph glyph-name="one" unicode="1" horiz-adv-x="1120" 
d="M274 899l-72 121l564 420v-1426l-193 -28v1092z" />
    <glyph glyph-name="two" unicode="2" horiz-adv-x="1120" 
d="M1039 184l-37.999 -183.999h-916c391.333 410 619 678.333 683 805c28.667 57.333 43 112.333 43 165c0 71.333 -25.333 130.5 -76 177.5s-112 70.5 -184 70.5c-78.667 0 -143.834 -26.167 -195.501 -78.5s-77.5 -118.166 -77.5 -197.499c0 -68.667 20.333 -129 61 -181
s94.334 -83.333 161.001 -94l-120 -154c-90.667 34 -163.334 89.167 -218.001 165.5s-82 162.166 -82 257.499c0 135.333 44.5 246.166 133.5 332.499s201.5 129.5 337.5 129.5c128 0 235.667 -40 323 -120c90 -82 135 -186.667 135 -314c0 -122 -61 -264 -183 -426
c-72 -94.667 -180.667 -212.667 -326 -354h539z" />
    <glyph glyph-name="three" unicode="3" horiz-adv-x="1120" 
d="M365 803c128 0 214.667 6.33203 260 18.999c100 27.333 150 88.333 150 183c0 68.667 -26 122.334 -78 161.001c-47.333 34.667 -106.333 52 -177 52c-108 0 -201.333 -48.667 -280 -146l-161 112c121.333 142.667 269 214 443 214c117.333 0 219.333 -31 306 -93
c96.667 -69.333 145 -160.333 145 -273c0 -135.333 -62.333 -234.333 -187 -297c82 -44 141.333 -90 178 -138c44 -58 66 -129.667 66 -215c0 -132 -52 -236.333 -156 -313c-92.667 -68 -207.334 -102 -344.001 -102c-198 0 -356 82 -474 246l153 109
c86 -116.667 198.333 -175 337 -175c77.333 0 143 21 197 63c59.333 46 89 106.667 89 182c0 112.667 -55.333 186.667 -166 222c-57.333 18 -157.666 27 -300.999 27v162z" />
    <glyph glyph-name="four" unicode="4" horiz-adv-x="1120" 
d="M18 321l827 1119v-958h249l-36 -161h-213v-307l-188 -28v335h-639zM338 482h346v502z" />
    <glyph glyph-name="five" unicode="5" horiz-adv-x="1120" 
d="M205 628l0.000976562 737h730l-52 -183h-485v-270c59.333 9.33301 103.333 14 132 14c129.333 0 241 -46.833 335 -140.5s141 -204.834 141 -333.501c0 -138.667 -49.5 -254.167 -148.5 -346.5s-218.5 -138.5 -358.5 -138.5c-182.667 0 -329.667 73.667 -441 221l160 106
c64 -98 153 -147 267 -147c86 0 160.667 28 224 84c66 58.667 99 130.334 99 215.001s-34 156.667 -102 216c-64.667 56 -140 84 -226 84c-104.667 0 -196.334 -39.333 -275.001 -118z" />
    <glyph glyph-name="six" unicode="6" horiz-adv-x="1120" 
d="M764 1363c-95.333 -108.667 -164 -188.999 -206 -240.999c-74 -90.667 -135.667 -176.334 -185 -257.001c78.667 46 156.334 69 233.001 69c127.333 0 234.666 -47.333 321.999 -142s131 -206 131 -334c0 -136.667 -48 -252.667 -144 -348s-212.333 -143 -349 -143
c-144.667 0 -265.167 49.167 -361.5 147.5s-144.5 219.833 -144.5 364.5c0 256.667 174.667 580 524 970zM559 754.001c-81.333 0 -151.833 -29.667 -211.5 -89s-89.5 -129.666 -89.5 -210.999c0 -86.667 28.833 -159.5 86.5 -218.5s129.834 -88.5 216.501 -88.5
c83.333 0 154.166 29.167 212.499 87.5s87.5 129.166 87.5 212.499c0 85.333 -29 157.833 -87 217.5s-129.667 89.5 -215 89.5z" />
    <glyph glyph-name="seven" unicode="7" horiz-adv-x="1120" 
d="M69 1183l51 182h878l-455 -1372l-230 -34l429 1224h-673z" />
    <glyph glyph-name="eight" unicode="8" horiz-adv-x="1120" 
d="M330 699c-78.667 48.667 -133 91.332 -163 127.999c-42.667 52 -64 116.667 -64 194c0 118 47.333 212 142 282c84.667 63.333 188 95 310 95c116.667 0 216.334 -27.333 299.001 -82c94.667 -63.333 142 -150.666 142 -261.999c0 -76 -21.667 -141.667 -65 -197
c-34.667 -44 -89.334 -87.667 -164.001 -131c185.333 -88.667 278 -212 278 -370c0 -126 -49 -224.333 -147 -295c-87.333 -62.667 -196.333 -94 -327 -94c-132.667 0 -245 30 -337 90c-106.667 70 -160 168 -160 294c0 154 85.333 270 256 348zM558 795.998
c160 64 240 142.332 240 234.999c0 61.333 -26.333 109 -79 143c-44.667 29.333 -99.667 44 -165 44c-68 0 -124.667 -13.667 -170 -41c-55.333 -33.333 -83 -81.666 -83 -144.999s29 -115.333 87 -156c26 -18 82.667 -44.667 170 -80zM529 623.997
c-171.333 -52 -256.999 -138.333 -256.999 -259c0 -74 32 -130.333 96 -169c53.333 -32.667 119.333 -49 198 -49c75.333 0 138.666 16 189.999 48c60.667 38 91 92.333 91 163c0 122 -106 210.667 -318 266z" />
    <glyph glyph-name="nine" unicode="9" horiz-adv-x="1120" 
d="M355 3c98.667 112.667 167.333 192.999 206 240.999c74 91.333 135.667 177 185 257c-78 -46 -156 -69 -234 -69c-126.667 0 -233.667 47.333 -321 142s-131 205.667 -131 333c0 136.667 48 252.667 144 348s212.333 143 349 143c138 0 256.833 -47.333 356.5 -142
s149.5 -210.667 149.5 -348c0 -271.333 -174.667 -601.666 -524 -990.999zM557.999 1218c-82.667 0 -153.333 -29.166 -212 -87.499s-88 -128.833 -88 -211.5c0 -86.667 28.833 -159.5 86.5 -218.5s129.5 -88.5 215.5 -88.5c81.333 0 151.833 29.667 211.5 89
s89.5 129.666 89.5 210.999c0 86 -29 158.5 -87 217.5s-130 88.5 -216 88.5z" />
    <glyph glyph-name="colon" unicode=":" horiz-adv-x="539" 
d="M270 677l-140 182l140 182l139 -182zM270 -45l-140 181l140 183l139 -183z" />
    <glyph glyph-name="semicolon" unicode=";" horiz-adv-x="580" 
d="M206 857l135 181l135 -181l-135 -183zM42 -394l198 614l224 32l-268 -646h-154z" />
    <glyph glyph-name="less" unicode="&#x3c;" 
d="M955 1200v-187l-687 -321l687 -322v-186l-887 428v161z" />
    <glyph glyph-name="equal" unicode="=" horiz-adv-x="1120" 
d="M999 579l-28 -140h-850l27 140h851zM999 926l-28 -140h-850l27 140h851z" />
    <glyph glyph-name="greater" unicode="&#x3e;" 
d="M69 183v187l687 322l-687 322v185l887 -428v-160z" />
    <glyph glyph-name="question" unicode="?" horiz-adv-x="897" 
d="M342 384v131c0 59.333 24.667 118.666 74 177.999l136 148c49.333 60 74 121 74 183s-18.667 113.5 -56 154.5s-87 61.5 -149 61.5c-116.667 0 -186.667 -74.667 -210 -224l-184 75c22 100.667 68.667 181.167 140 241.5s158 90.5 260 90.5
c110 0 203.333 -37.667 280 -113s115 -167.666 115 -276.999c0 -133.333 -68 -261.333 -204 -384c-19.333 -16.667 -44.333 -43.334 -75 -80.001c-13.333 -21.333 -19.333 -65.666 -18 -132.999c0 -2.66699 -0.666992 -11.667 -2 -27zM425 -45l-140 181l140 183l139 -183z
" />
    <glyph glyph-name="at" unicode="@" horiz-adv-x="1603" 
d="M1078 1019l119.998 15l-55 -276c-23.333 -124 -35 -215.333 -35 -274c0 -36.667 16 -55 48 -55c74.667 0 138.334 48.333 191.001 145c45.333 82.667 68 165 68 247c0 146.667 -51.667 263.667 -155 351c-97.333 82.667 -220.666 124 -369.999 124
c-190 0 -353.667 -65 -491 -195c-140.667 -132.667 -211 -293.334 -211 -482.001c0 -172 56.667 -307.667 170 -407c108 -94.667 249 -142 423 -142c160 0 314.667 31 464 93l22 -100c-155.333 -64.667 -319.333 -97 -492 -97c-202 0 -367 56.667 -495 170
c-134 118.667 -201 278 -201 478c0 218.667 82 405 246 559c161.333 150.667 352 226 572 226c174 0 320.333 -50.333 439 -151c125.333 -107.333 188 -246.666 188 -417.999c0 -122.667 -36.333 -235 -109 -337c-80.667 -112 -180.334 -168 -299.001 -168
c-46.667 0 -80 12 -100 36c-16 19.333 -27 53 -33 101c-82 -91.333 -176.667 -137 -284 -137c-81.333 0 -148.666 29 -201.999 87s-80 128.333 -80 211c0 108 41.833 204.833 125.5 290.5s179.5 128.5 287.5 128.5c99.333 0 175.333 -46.333 228 -139zM832.998 926
c-76 0 -143.5 -29.501 -202.5 -88.501s-88.5 -126.5 -88.5 -202.5c0 -55.333 17.667 -101.666 53 -138.999s80.333 -56 135 -56c77.333 0 145.5 29.167 204.5 87.5s88.5 126.166 88.5 203.499c0 54.667 -18 100.834 -54 138.501s-81.333 56.5 -136 56.5z" />
    <glyph glyph-name="A" unicode="A" horiz-adv-x="1425" 
d="M-14 27l717 1422l735 -1422l-198 -54l-244 492h-562l-247 -492zM519 649h389l-195 384z" />
    <glyph glyph-name="B" unicode="B" horiz-adv-x="1118" 
d="M164 0v1365c169.333 6.66699 288.333 10 357 10c132 0 237 -26 315 -78c92.667 -61.333 139 -155 139 -281c0 -128.667 -59 -229.334 -177 -302.001c154.667 -59.333 232 -168.333 232 -327c0 -128.667 -46 -227.334 -138 -296.001
c-81.333 -60.667 -188.333 -91 -321 -91h-407zM362 614.002l-0.000976562 -430h206c72.667 0 132.334 16.667 179.001 50c52 38 78 92.333 78 163c0 144.667 -93.333 217 -280 217h-183zM361.999 1202l-0.000976562 -420h133c183.333 0 275 73.667 275 221
c0 134.667 -79.667 202 -239 202c-63.333 0 -119.666 -1 -168.999 -3z" />
    <glyph glyph-name="C" unicode="C" horiz-adv-x="1153" 
d="M1091 241l-41.001 -236c-94.667 -26 -177.334 -39 -248.001 -39c-203.333 0 -374.666 68.833 -513.999 206.5s-209 308.167 -209 511.5c0 196 69.833 364.167 209.5 504.5s307.5 210.5 503.5 210.5c61.333 0 137.333 -11.333 228 -34l48 -224
c-101.333 44.667 -189.666 67 -264.999 67c-146.667 0 -269.834 -51 -369.501 -153s-149.5 -226.667 -149.5 -374c0 -145.333 49.833 -269 149.5 -371s221.834 -153 366.501 -153c107.333 0 204.333 28 291 84z" />
    <glyph glyph-name="D" unicode="D" horiz-adv-x="1292" 
d="M164 0v1362c134.667 8.66699 245 13 331 13c203.333 0 373 -63.333 509 -190c139.333 -130.667 209 -297.334 209 -500.001c0 -206 -73 -373 -219 -501c-139.333 -122.667 -313 -184 -521 -184h-309zM362 184.001l133.001 -0.000976562
c145.333 0 267.166 46.833 365.499 140.5s147.5 212.834 147.5 357.501c0 156 -57.333 281.667 -172 377c-106.667 88.667 -239.667 133 -399 133c-21.333 0 -46.333 -1.33301 -75 -4v-1004z" />
    <glyph glyph-name="E" unicode="E" horiz-adv-x="1079" 
d="M164 0v1365h766l41 -184h-609v-381h496v-184h-496v-432h663l-54 -184h-807z" />
    <glyph glyph-name="F" unicode="F" horiz-adv-x="981" 
d="M164 -14v1379h734l42 -184h-578v-392h446v-184h-446v-591z" />
    <glyph glyph-name="G" unicode="G" horiz-adv-x="1507" 
d="M737 589l64.999 184.001h575v-618c-178 -126 -363.667 -189 -557 -189c-200 0 -372.667 68 -518 204c-148.667 139.333 -223 308.666 -223 507.999c0 206 74.667 378.667 224 518c146 135.333 322.667 203 530 203c188.667 0 361.334 -62 518.001 -186l-127 -145
c-115.333 93.333 -242.333 140 -381 140c-152.667 0 -283 -48 -391 -144c-112 -100 -168 -226 -168 -378c0 -150 54 -276.333 162 -379c106 -100.667 234.333 -151 385 -151c116 0 232 36.667 348 110v323h-442z" />
    <glyph glyph-name="H" unicode="H" horiz-adv-x="1417" 
d="M362 797h694v554l198 28v-1365l-198 -28v627h-694v-599l-198 -28v1365l198 28v-582z" />
    <glyph glyph-name="I" unicode="I" horiz-adv-x="526" 
d="M164 -14v1365l198 28v-1365z" />
    <glyph glyph-name="J" unicode="J" horiz-adv-x="856" 
d="M706 1379v-992.001c0 -123.333 -34 -223.666 -102 -300.999c-71.333 -81.333 -168 -122 -290 -122c-111.333 0 -207 30.333 -287 91l108 171c70.667 -46.667 129.667 -70 177 -70c130.667 0 196 87.333 196 262v933z" />
    <glyph glyph-name="K" unicode="K" horiz-adv-x="1157" 
d="M362 702l604 715l178 -83l-545 -632l545 -661l-204 -68l-578 707v-666l-198 -28v1366l198 27v-677z" />
    <glyph glyph-name="L" unicode="L" horiz-adv-x="955" 
d="M150 0v1351l198 28v-1195h607l-82 -184h-723z" />
    <glyph glyph-name="M" unicode="M" horiz-adv-x="1703" 
d="M430 838l-170 -852l-199 28l292 1397l497 -1032l500 1032l291 -1397l-203 -28l-172 852l-416 -867z" />
    <glyph glyph-name="N" unicode="N" horiz-adv-x="1424" 
d="M362 935v-921l-198 -28v1436l898 -979v909l198 27v-1427z" />
    <glyph glyph-name="O" unicode="O" horiz-adv-x="1591" 
d="M794 1399c202.667 0 372.834 -68.668 510.501 -206.001s206.5 -307.333 206.5 -510c0 -207.333 -68.667 -378.666 -206 -513.999s-310 -203 -518 -203c-198.667 0 -366.334 69.333 -503.001 208s-205 307.667 -205 507c0 202.667 68.667 373 206 511s307 207 509 207z
M795 1208c-143.333 0 -264.335 -51.334 -363.002 -154.001s-148 -226 -148 -370c0 -142 48 -264.667 144 -368c98.667 -106 218.334 -159 359.001 -159c146.667 0 269.834 49.833 369.501 149.5s149.5 222.834 149.5 369.501c0 144 -48.667 268 -146 372
c-100 106.667 -221.667 160 -365 160z" />
    <glyph glyph-name="P" unicode="P" horiz-adv-x="1069" 
d="M362 514v-500l-198 -28v1379c134.667 12 229 18 283 18c378.667 0 568 -146 568 -438c0 -128 -47.667 -233 -143 -315c-90.667 -77.333 -201 -116 -331 -116h-179zM362 1186v-488h121c218 0 327 81.333 327 244c0 168 -110.333 252 -331 252
c-41.333 0 -80.333 -2.66699 -117 -8z" />
    <glyph glyph-name="Q" unicode="Q" horiz-adv-x="1591" 
d="M1199 80c-110.667 -76 -244.998 -113.999 -402.998 -113.999c-202.667 0 -372.834 68.333 -510.501 205s-206.5 306.667 -206.5 510c0 202.667 68.5 373 205.5 511s306.833 207 509.5 207c203.333 0 373.666 -68.833 510.999 -206.5s206 -308.167 206 -511.5
c0 -184.667 -57.667 -343.334 -173 -476.001l227 -251l-175 -98zM1198 354.001c72 90.667 108 197.667 108 321c0 145.333 -49 270.5 -147 375.5s-219.333 157.5 -364 157.5c-143.333 0 -264.333 -51.333 -363 -154s-148 -226 -148 -370
c0 -144.667 48.833 -268.667 146.5 -372s218.5 -155 362.5 -155c94 0 182.667 24.333 266 73l-160 186l162 97z" />
    <glyph glyph-name="R" unicode="R" horiz-adv-x="1103" 
d="M362 650l0.000976562 -636l-198 -28v1379c89.333 6.66699 185.666 10 288.999 10c148 0 267 -30 357 -90c106.667 -70 160 -175.667 160 -317c0 -102 -28.833 -185.167 -86.5 -249.5s-137.167 -105.833 -238.5 -124.5l418 -564l-212 -60zM362.001 1186v-479h82
c86 0 156.333 19.667 211 59c62.667 45.333 94 109.333 94 192c0 81.333 -31.667 142.333 -95 183c-53.333 34.667 -123 52 -209 52c-23.333 0 -51 -2.33301 -83 -7z" />
    <glyph glyph-name="S" unicode="S" horiz-adv-x="1039" 
d="M61 186l154.002 128.999c49.333 -56 90.666 -94.667 123.999 -116c45.333 -28 99.333 -42 162 -42c70 0 128 17.333 174 52c51.333 38.667 77 92.334 77 161.001c0 90 -57.667 158.667 -173 206l-323 128c-115.333 68.667 -173 173.667 -173 315
c0 114.667 45.333 208.334 136 281.001c84 66.667 185 100 303 100c173.333 0 310.666 -65.333 411.999 -196l-143 -146c-43.333 53.333 -83 90.666 -119 111.999c-42.667 25.333 -95 38 -157 38c-63.333 0 -116 -16 -158 -48c-46.667 -35.333 -70 -83.666 -70 -144.999
c0 -78 58 -140 174 -186c206.667 -82.667 314 -126.334 322 -131.001c116 -71.333 174 -177 174 -317c0 -124 -46.667 -225.333 -140 -304c-88 -74 -195 -111 -321 -111c-177.333 0 -322.333 73.333 -435 220z" />
    <glyph glyph-name="T" unicode="T" horiz-adv-x="969" 
d="M584 1181v-1167l-198 -28v1195h-386l71 184h857v-184h-344z" />
    <glyph glyph-name="U" unicode="U" horiz-adv-x="1293" 
d="M348 1379v-935c0 -191.333 100 -287 300 -287c198 0 297 95.667 297 287v907l198 28v-935c0 -156 -46.667 -275.667 -140 -359c-88.667 -79.333 -212 -119 -370 -119c-154 0 -273 41.167 -357 123.5s-126 200.5 -126 354.5v907z" />
    <glyph glyph-name="V" unicode="V" horiz-adv-x="1199" 
d="M593 -41l-566 1406l207 27l359 -985l376 985l203 -27z" />
    <glyph glyph-name="W" unicode="W" horiz-adv-x="1827" 
d="M908 603l-277 -684l-617 1446l209 27l408 -986l173 401l-232 558l191 27l145 -355l153 355l187 -27l-228 -558l174 -425l414 1010l205 -27l-619 -1446z" />
    <glyph glyph-name="X" unicode="X" horiz-adv-x="1232" 
d="M617 569l-424 -610l-186 99l490 676l-419 590l201 68l338 -499l361 499l194 -68l-434 -590l487 -693l-197 -82z" />
    <glyph glyph-name="Y" unicode="Y" horiz-adv-x="1127" 
d="M514 520l-528 820l203 52l422 -654l298 654l204 -52l-641 -1381l-207 48z" />
    <glyph glyph-name="Z" unicode="Z" horiz-adv-x="1142" 
d="M352 184h763l-52 -184h-1025l736 1193h-707l46 172h972z" />
    <glyph glyph-name="bracketleft" unicode="[" horiz-adv-x="670" 
d="M175 1393h373v-126h-209v-1469h209v-126h-373v1721z" />
    <glyph glyph-name="backslash" unicode="\" horiz-adv-x="1011" 
d="M1032 -311l-133 -44l-783 1733l138 42z" />
    <glyph glyph-name="bracketright" unicode="]" horiz-adv-x="670" 
d="M494 -328h-373v126h209v1469h-209v126h373v-1721z" />
    <glyph glyph-name="asciicircum" unicode="^" 
d="M238 727h-200l351 644h247l351 -644h-201l-275 494z" />
    <glyph glyph-name="underscore" unicode="_" 
d="M0 -120h1024v-171h-1024v171z" />
    <glyph glyph-name="grave" unicode="`" 
d="M277 1481l385 -223l-51 -97l-395 195z" />
    <glyph glyph-name="a" unicode="a" horiz-adv-x="1073" 
d="M197 810l43 204.002c116.667 25.333 221 38 313 38c251.333 0 377 -127 377 -381v-657l-186 -28v119c-63.333 -88 -154 -132 -272 -132c-114 0 -208 33.667 -282 101c-76.667 69.333 -115 160.666 -115 273.999s38.667 206 116 278c75.333 70 170 105 284 105
c107.333 0 197 -33.333 269 -100v40c0 83.333 -19.333 139.666 -58 168.999c-32.667 24 -93 36 -181 36c-103.333 0 -206 -22 -308 -66zM505 548.002c-62.667 0 -116.333 -15.666 -161 -46.999c-50 -34.667 -75 -82.334 -75 -143.001c0 -65.333 23.667 -115.333 71 -150
c42 -31.333 97 -47 165 -47c65.333 0 121 15.333 167 46c52 36 78 85.333 78 148c0 60.667 -26.667 109 -80 145c-46.667 32 -101.667 48 -165 48z" />
    <glyph glyph-name="b" unicode="b" horiz-adv-x="1270" 
d="M304 893c106 106 224.667 159 356 159c150 0 277 -51.667 381 -155s156 -230 156 -380c0 -153.333 -54.333 -282.5 -163 -387.5s-240 -157.5 -394 -157.5c-160.667 0 -288.667 51.333 -384 154c-93.333 99.333 -140 230 -140 392v875l188 27v-527zM654 876
c-100.667 0 -185.333 -35.667 -254 -107s-103 -157.666 -103 -258.999c0 -98.667 33.5 -181.334 100.5 -248.001s149.833 -100 248.5 -100c102 0 187 34.667 255 104s102 155 102 257c0 100 -33.167 183.833 -99.5 251.5s-149.5 101.5 -249.5 101.5z" />
    <glyph glyph-name="c" unicode="c" horiz-adv-x="1044" 
d="M1003 140c-106.667 -111.333 -236 -167.001 -388 -167.001c-152.667 0 -281.334 52.5 -386.001 157.5s-157 233.833 -157 386.5c0 148 52.5 275.833 157.5 383.5s231.5 161.5 379.5 161.5c143.333 0 274.666 -50 393.999 -150l-127 -136c-86 66 -170.333 99 -253 99
c-99.333 0 -183.666 -33.667 -252.999 -101s-104 -150.666 -104 -249.999c0 -100 34.833 -185.167 104.5 -255.5s154.5 -105.5 254.5 -105.5c88.667 0 172.334 36.333 251.001 109z" />
    <glyph glyph-name="d" unicode="d" horiz-adv-x="1283" 
d="M952 152c-96 -119.333 -213.999 -178.999 -353.999 -178.999c-146.667 0 -270.834 52.667 -372.501 158s-152.5 231.666 -152.5 378.999c0 148.667 50.167 276.167 150.5 382.5s224.5 159.5 372.5 159.5c138 0 256.667 -45.333 356 -136v477l188 27v-1406l-188 -28v166z
M611.001 876.001c-98.667 0 -180.668 -34.168 -246.001 -102.501s-98 -152.166 -98 -251.499c0 -102.667 32.833 -188.167 98.5 -256.5s149.834 -102.5 252.501 -102.5c97.333 0 179.333 34.333 246 103s100 152 100 250c0 100 -34 185 -102 255s-151.667 105 -251 105z" />
    <glyph glyph-name="e" unicode="e" horiz-adv-x="1120" 
d="M1014 331l40.001 -200.999c-138 -104.667 -280.667 -157 -428 -157c-152 0 -282.333 51.667 -391 155s-163 230.666 -163 381.999c0 152 52.167 280.333 156.5 385s232.5 157 384.5 157c209.333 0 364.666 -94 465.999 -282l-745 -439c68.667 -112 166 -168 292 -168
c114.667 0 244 56 388 168zM272.001 495.001l526.999 311c-50 46.667 -113 70 -189 70c-92.667 0 -173.667 -34.5 -243 -103.5s-101.666 -148.5 -96.999 -238.5z" />
    <glyph glyph-name="f" unicode="f" horiz-adv-x="660" 
d="M17 847l62 176.999h74c2 264 145 395 429 393h17l48 -179l-53 2c-76 2.66699 -135 -7.66602 -177 -30.999c-53.333 -30 -79 -80.667 -77 -152l1 -33h257v-177h-257v-833l-188 -28v861h-136z" />
    <glyph glyph-name="g" unicode="g" horiz-adv-x="1011" 
d="M183 14c80 -119.333 176.666 -179.001 289.999 -179.001c71.333 0 133 20 185 60c57.333 43.333 86 99.333 86 168c0 72.667 -30 131 -90 175c-53.333 39.333 -117.666 59 -192.999 59c-67.333 0 -147.333 -25 -240 -75l46 145c-145.333 60 -218 166.667 -218 320
c0 94.667 32 176.667 96 246c50 54 111.667 91 185 111c46 12.667 115.333 21.334 208 26.001c98.667 4.66699 171 12.334 217 23.001c72.667 16 137.667 38.667 195 68l-48 -203l-120 -25c78 -66.667 117 -149.334 117 -248.001c0 -142.667 -68.333 -241.667 -205 -297
c162.667 -65.333 244 -179.333 244 -342c0 -123.333 -47 -221.333 -141 -294c-86 -66.667 -192.667 -100 -320 -100c-190 0 -335.667 82 -437 246zM477.999 898.999c-64 0 -118.667 -19.668 -164 -59.001c-47.333 -42 -71 -94.333 -71 -157c0 -63.333 22 -115.833 66 -157.5
s97.667 -62.5 161 -62.5s118.333 21.333 165 64s70 95.334 70 158.001c0 62 -22.167 113.167 -66.5 153.5s-97.833 60.5 -160.5 60.5z" />
    <glyph glyph-name="h" unicode="h" horiz-adv-x="1156" 
d="M331 929c98.667 82 201.333 123 308 123c125.333 0 220.333 -39.667 285 -119c59.333 -72 89 -172 89 -300v-619l-188 -28v647c0 162 -75 243 -225 243c-78 0 -141.667 -20.667 -191 -62c-52 -44 -78 -104.333 -78 -181v-619l-188 -28v1407l188 27v-491z" />
    <glyph glyph-name="i" unicode="i" horiz-adv-x="475" 
d="M143 -14v1025l188 27v-1024zM112 1300l127 160l124 -160l-124 -157z" />
    <glyph glyph-name="j" unicode="j" horiz-adv-x="475" 
d="M-142 -180c104.667 0 173.667 8.66797 207 26.001c52.667 27.333 79 87.666 79 180.999v983l188 28v-1024c0 -251.333 -114.333 -377 -343 -377h-53zM236 1137l-127 163l127 164l121 -164z" />
    <glyph glyph-name="k" unicode="k" horiz-adv-x="1008" 
d="M331 517v-503l-188 -28v1407l188 27v-863l446 517l160 -98l-385 -419l435 -483l-162 -106z" />
    <glyph glyph-name="l" unicode="l" horiz-adv-x="475" 
d="M143 -14v1407l188 27v-1407z" />
    <glyph glyph-name="m" unicode="m" horiz-adv-x="1621" 
d="M143 -14l0.00195312 1025l188 27v-132c62.667 97.333 147 146 253 146c121.333 0 207.666 -48.667 258.999 -146c68.667 97.333 167.667 146 297 146c224.667 0 337 -132.667 337 -398v-640l-188 -28v668c0 70 -9.66699 122 -29 156c-26 44 -72 66 -138 66
c-75.333 0 -132.333 -27.333 -171 -82c-34 -47.333 -51 -109.666 -51 -186.999v-593l-188 -28v621c0 84 -8 144.667 -24 182c-24.667 58 -73.334 87 -146.001 87c-140.667 0 -211 -89.667 -211 -269v-593z" />
    <glyph glyph-name="n" unicode="n" horiz-adv-x="1154" 
d="M143 -14l0.000976562 1025l188 27v-141c81.333 103.333 184.666 155 309.999 155c246 0 369 -140 369 -420v-618l-188 -28v646c0 82 -13.667 141.667 -41 179c-32 43.333 -88.333 65 -169 65c-90 0 -160 -28 -210 -84c-47.333 -54 -71 -126.333 -71 -217v-561z" />
    <glyph glyph-name="o" unicode="o" horiz-adv-x="1242" 
d="M621 1052c158.667 0 289.832 -52.167 393.499 -156.5s155.5 -235.833 155.5 -394.5c0 -152 -53.167 -278 -159.5 -378s-235.833 -150 -388.5 -150c-154 0 -284.167 51.333 -390.5 154s-159.5 230.667 -159.5 384c0 152 53.333 280.167 160 384.5
s236.334 156.5 389.001 156.5zM621.998 876c-99.333 0 -183.498 -34.333 -252.498 -103s-103.5 -152.667 -103.5 -252c0 -105.333 34.667 -191.333 104 -258s156.666 -100 261.999 -100c98.667 0 180.667 33 246 99s98 148.333 98 247c0 102.667 -33.333 189.5 -100 260.5
s-151.334 106.5 -254.001 106.5z" />
    <glyph glyph-name="p" unicode="p" horiz-adv-x="1290" 
d="M331 127v-455.002l-188 -27v1366l188 27v-149c105.333 108.667 225.333 163 360 163c150.667 0 276.667 -53.333 378 -160c99.333 -105.333 149 -233.666 149 -384.999c0 -147.333 -52.333 -273.166 -157 -377.499s-230.667 -156.5 -378 -156.5
c-124.667 0 -242 51.333 -352 154zM684 875.998c-98.667 0 -183.834 -34.499 -255.501 -103.499s-107.5 -152.5 -107.5 -250.5c0 -100.667 34.5 -185.667 103.5 -255s153.833 -104 254.5 -104c96.667 0 178.334 35.333 245.001 106s100 155 100 253
c0 99.333 -31.833 183.166 -95.5 251.499s-145.167 102.5 -244.5 102.5z" />
    <glyph glyph-name="q" unicode="q" horiz-adv-x="1292" 
d="M960 -355l0.000976562 484.999c-100 -104.667 -220.333 -157 -361 -157c-148.667 0 -273.5 52.5 -374.5 157.5s-151.5 231.833 -151.5 380.5s49.333 275.334 148 380.001c101.333 107.333 225.666 161 372.999 161c134 0 256 -50.333 366 -151v110l188 27v-1370z
M612.001 875.999c-98.667 0 -180.833 -34.668 -246.5 -104.001s-98.5 -153.666 -98.5 -252.999c0 -100.667 32.167 -185.167 96.5 -253.5s146.833 -102.5 247.5 -102.5c99.333 0 183 34.833 251 104.5s102 154.167 102 253.5c0 97.333 -34.333 180.833 -103 250.5
s-151.667 104.5 -249 104.5z" />
    <glyph glyph-name="r" unicode="r" horiz-adv-x="759" 
d="M670 861l-45.001 1.99902c-196 8.66699 -294 -152.666 -294 -483.999v-365l-188 -28v1025l188 27v-208c77.333 153.333 194 230 350 230c18.667 0 44.334 -2.66699 77.001 -8z" />
    <glyph glyph-name="s" unicode="s" horiz-adv-x="835" 
d="M55 149l136 115.001c62.667 -67.333 132.667 -101 210 -101c45.333 0 84 10.333 116 31c37.333 23.333 56 56.666 56 99.999c0 58 -43 101.667 -129 131c-150.667 52 -231 80.667 -241 86c-86 50 -129 128.333 -129 235c0 90 34.333 164.333 103 223
c64.667 55.333 143 83 235 83c130 0 237.333 -45.333 322 -136l-118 -134c-60.667 62.667 -126.667 94 -198 94c-41.333 0 -76 -10.333 -104 -31c-30.667 -23.333 -46 -55 -46 -95c0 -55.333 43 -97.333 129 -126c142.667 -47.333 223 -76.333 241 -87
c86 -51.333 129 -133 129 -245c0 -100 -36.667 -179.333 -110 -238c-67.333 -54 -152 -81 -254 -81c-142 0 -258 58.667 -348 176z" />
    <glyph glyph-name="t" unicode="t" horiz-adv-x="673" 
d="M623 854h-287v-515c0 -118 62.333 -177 187 -177c38.667 0 84 5.66699 136 17l-37 -186c-52 -9.33301 -99.667 -14 -143 -14c-220.667 0 -331 120.333 -331 361v514h-158l71 177h87v260l188 49v-309h287v-177z" />
    <glyph glyph-name="u" unicode="u" horiz-adv-x="1148" 
d="M1005 1038v-1024l-188 -28v142c-90 -104 -193 -156 -309 -156c-243.333 0 -365 140.333 -365 421v618l188 27v-645c0 -154 70 -231 210 -231c184 0 276 112.333 276 337v512z" />
    <glyph glyph-name="v" unicode="v" horiz-adv-x="972" 
d="M492 -87l-492 1086l182 39l310 -722l294 722l186 -39z" />
    <glyph glyph-name="w" unicode="w" horiz-adv-x="1641" 
d="M462 373l356 710l343 -710l287 665l193 -25l-453 -1071l-370 730l-370 -730l-448 1071l188 25z" />
    <glyph glyph-name="x" unicode="x" horiz-adv-x="962" 
d="M584 545l378 -500l-177 -75l-312 423l-294 -423l-179 75l355 500l-320 450l163 74l275 -384l260 384l170 -74z" />
    <glyph glyph-name="y" unicode="y" horiz-adv-x="993" 
d="M421 199l-428 799l177 54l344 -649l310 649l176 -54l-666 -1353l-186 23z" />
    <glyph glyph-name="z" unicode="z" horiz-adv-x="967" 
d="M20 0l619 856h-545l41 168h825l-622 -856h628l-50 -168h-896z" />
    <glyph glyph-name="braceleft" unicode="{" 
d="M468 497c47.333 -28 80 -63.333 98 -106c14 -34 21 -81 21 -141v-305c0 -74 13.667 -122 41 -144c24 -18.667 75 -27.334 153 -26.001v-163l-86 -1c-119.333 -1.33301 -202.666 30.334 -249.999 95.001c-36.667 50 -55 126.333 -55 229c0 30 2 74.833 6 134.5
s6 103.167 6 130.5c0 132 -40.667 207.667 -122 227v154c82 20 123 94 123 222c0 27.333 -2.16699 71 -6.5 131s-6.5 105 -6.5 135c0 100 18.333 174.333 55 223c48 63.333 131.667 95 251 95c9.33301 0 37.666 -1 84.999 -3v-162c-75.333 -0.666992 -125 -9.66699 -149 -27
c-30 -21.333 -45 -67.666 -45 -138.999v-314c0 -60.667 -7 -107.334 -21 -140.001c-17.333 -41.333 -50 -76.333 -98 -105z" />
    <glyph glyph-name="bar" unicode="|" 
d="M418 1365h188v-1706h-188v1706z" />
    <glyph glyph-name="braceright" unicode="}" 
d="M556 500c-47.333 28 -80 63.334 -98 106.001c-14 34 -21 81 -21 141v305c0 74.667 -14 122.667 -42 144c-23.333 18 -74 27 -152 27v162l88 1c118 1.33301 200.667 -30.334 248 -95.001c36 -49.333 54 -125.333 54 -228c0 -29.333 -1.83301 -73.5 -5.5 -132.5
s-5.5 -102.167 -5.5 -129.5c0 -133.333 40.667 -210.333 122 -231v-154c-82 -20 -123 -94 -123 -222c0 -26.667 2.16699 -70.167 6.5 -130.5s6.5 -105.5 6.5 -135.5c0 -100 -18.333 -174.333 -55 -223c-48 -63.333 -132 -95 -252 -95c-14 0 -42 1 -84 3v162
c75.333 0.666992 125 9.66699 149 27c30 21.333 45 67.666 45 138.999v314c0 60.667 7 107.334 21 140.001c17.333 41.333 50 76.333 98 105z" />
    <glyph glyph-name="asciitilde" unicode="~" horiz-adv-x="1365" 
d="M295 1177l-106.999 70c38 80.667 73.667 138.667 107 174c50 52 111 78 183 78c49.333 0 120.166 -20.833 212.499 -62.5s160.166 -62.5 203.499 -62.5c64.667 0 122 43 172 129l111 -64c-79.333 -163.333 -182 -245 -308 -245c-47.333 0 -115.666 20.667 -204.999 62
s-156.333 62 -201 62c-62 0 -118 -47 -168 -141z" />
    <glyph glyph-name="nonbreakingspace" unicode="&#xa0;" horiz-adv-x="512" 
 />
    <glyph glyph-name="sterling" unicode="&#xa3;" horiz-adv-x="1120" 
d="M110 810h119c0 16 -0.333008 40 -1 72s-1 55.667 -1 71c0 142 31.667 249.333 95 322c71.333 82 163 123 275 123c98 0 178.833 -27.667 242.5 -83s103.167 -131.333 118.5 -228l-174 -49c-24.667 120 -86 180 -184 180c-124.667 0 -187 -80.667 -187 -242v-166h257v-171
h-257v-466h189c110 0 183 30 219 90c22.667 38 39 117.333 49 238l181 -49c-7.33301 -177.333 -55.666 -299.333 -144.999 -366c-76.667 -57.333 -206.334 -86 -389.001 -86h-449v173h161v466h-161z" />
    <glyph glyph-name="currency" unicode="&#xa4;" horiz-adv-x="1120" 
d="M881 457l105 -105l-95 -96l-106 106c-68.667 -46 -144 -69 -226 -69c-80.667 0 -155.667 22.667 -225 68l-105 -105l-96 96l105 105c-45.333 64.667 -68 139.667 -68 225c0 83.333 22.667 159 68 227l-105 105l96 96l105 -106c68 46 143 69 225 69
c83.333 0 159 -22.667 227 -68l105 105l95 -96l-105 -105c46 -69.333 69 -145 69 -227c0 -82.667 -23 -157.667 -69 -225zM560 923c-63.333 0 -116.833 -23.998 -160.5 -71.998s-65.5 -104 -65.5 -168s21.833 -120 65.5 -168s97.167 -72 160.5 -72s116.833 23.667 160.5 71
s65.5 102.666 65.5 165.999c0 65.333 -21 121.666 -63 168.999c-44 49.333 -98.333 74 -163 74z" />
    <glyph glyph-name="brokenbar" unicode="&#xa6;" 
d="M418 1365h188v-691h-188v691zM418 314h188v-655h-188v655z" />
    <glyph glyph-name="section" unicode="&#xa7;" horiz-adv-x="1120" 
d="M907 1284l-96.0039 -119.998c-88 56 -169.333 84 -244 84c-52.667 0 -97.667 -12.333 -135 -37c-44 -28.667 -66 -67.667 -66 -117c0 -56.667 50 -109.667 150 -159c170.667 -83.333 263.334 -130.333 278.001 -141c100 -70 150 -159 150 -267
c0 -53.333 -15.833 -106.666 -47.5 -159.999s-71.167 -93.333 -118.5 -120c96 -68.667 144 -157.334 144 -266.001c0 -102 -36 -181 -108 -237c-65.333 -50.667 -150.333 -76 -255 -76c-161.333 0 -296.666 51.667 -405.999 155l80 132c102.667 -88 208 -132 316 -132
c54.667 0 99.667 11.333 135 34c42 26.667 63 65.667 63 117c0 70 -49.667 132.333 -149 187l-276 144c-99.333 66.667 -149 149.667 -149 249c0 123.333 58 219.666 174 288.999c-102.667 59.333 -154 140.666 -154 243.999c0 96 40 173.333 120 232
c72 53.333 157.667 80 257 80c54.667 0 114.334 -10.833 179.001 -32.5s117.334 -49.167 158.001 -82.5zM484.996 767.002c-96.667 -58.667 -145 -125.999 -145 -201.999c0 -48.667 39.333 -98.667 118 -150c18.667 -12 79.667 -44 183 -96c48 38 79 65.667 93 83
c28 34 42 72 42 114c0 56.667 -35.667 109 -107 157c-28 19.333 -89.333 50.666 -184 93.999z" />
    <glyph glyph-name="dieresis" unicode="&#xa8;" 
d="M569 1318l127 159l123 -159l-123 -157zM205 1318l127 159l124 -159l-124 -157z" />
    <glyph glyph-name="copyright" unicode="&#xa9;" horiz-adv-x="1570" 
d="M795 1393c192 0 356.667 -70.666 494 -211.999c135.333 -140 203 -306.333 203 -499c0 -195.333 -68.833 -362.5 -206.5 -501.5s-304.167 -208.5 -499.5 -208.5s-362.333 69.5 -501 208.5s-208 306.167 -208 501.5c0 199.333 69.833 367.666 209.5 504.999
s309.167 206 508.5 206zM794 1296c-171.333 0 -315.833 -59.5 -433.5 -178.5s-176.5 -264.167 -176.5 -435.5c0 -167.333 58.5 -311.333 175.5 -432s258.833 -181 425.5 -181c168 0 310 60 426 180s174 264.333 174 433c0 165.333 -56.667 308.333 -170 429
c-116 123.333 -256.333 185 -421 185zM1021 449.001l-27.998 -151c-58 -15.333 -109.333 -23 -154 -23c-120.667 0 -223.334 37.667 -308.001 113c-88.667 78 -133 176.667 -133 296c0 114.667 44 212 132 292c86 76.667 187 115 303 115
c37.333 0 84.666 -6.66699 141.999 -20l33 -142c-82 27.333 -138.333 41 -169 41c-84.667 0 -156 -26.667 -214 -80c-60 -54.667 -90 -124 -90 -208c0 -82 29.667 -150.167 89 -204.5s130.333 -81.5 213 -81.5c62.667 0 124 17.667 184 53z" />
    <glyph glyph-name="guillemotleft" unicode="&#xab;" horiz-adv-x="881" 
d="M386 811l79 -82l-212 -226l212 -213l-79 -77l-297 290zM700 811l79 -82l-212 -226l212 -213l-79 -77l-297 290z" />
    <glyph glyph-name="logicalnot" unicode="&#xac;" 
d="M767 0v371h-699v175h887v-546h-188z" />
    <glyph glyph-name="sfthyphen" unicode="&#xad;" horiz-adv-x="443" 
d="M0 431v162h443v-162h-443z" />
    <glyph glyph-name="sfthyphen" unicode="&#x2212;" horiz-adv-x="443" 
d="M0 431v162h443v-162h-443z" />
    <glyph glyph-name="registered" unicode="&#xae;" horiz-adv-x="1570" 
d="M795 1393c192 0 356.667 -70.666 494 -211.999c135.333 -140 203 -306.333 203 -499c0 -195.333 -68.833 -362.5 -206.5 -501.5s-304.167 -208.5 -499.5 -208.5s-362.333 69.5 -501 208.5s-208 306.167 -208 501.5c0 199.333 69.833 367.666 209.5 504.999
s309.167 206 508.5 206zM794 1296c-171.333 0 -315.833 -59.5 -433.5 -178.5s-176.5 -264.167 -176.5 -435.5c0 -167.333 58.5 -311.333 175.5 -432s258.833 -181 425.5 -181c168 0 310 60 426 180s174 264.333 174 433c0 165.333 -56.667 308.333 -170 429
c-116 123.333 -256.333 185 -421 185zM677 645.001l-0.000976562 -342.001l-132 -17v787c57.333 3.33301 119.333 5 186 5c86.667 0 157.334 -17 212.001 -51c66 -41.333 99 -102.666 99 -183.999c0 -118 -63.333 -189.333 -190 -214l251 -315l-142 -37zM676.999 960v-256
h43c116.667 0 175 44.667 175 134c0 44 -19 77 -57 99c-32.667 18.667 -71.667 27 -117 25z" />
    <glyph glyph-name="Zdotaccent" unicode="&#xaf;" horiz-adv-x="1142" 
d="M352 184h763l-52 -184h-1025l736 1193h-707l46 172h972zM596 1475l-135 163l135 164l134 -164z" />
    <glyph glyph-name="Zdotaccent" unicode="&#x2c9;" horiz-adv-x="1142" 
d="M352 184h763l-52 -184h-1025l736 1193h-707l46 172h972zM596 1475l-135 163l135 164l134 -164z" />
    <glyph glyph-name="degree" unicode="&#xb0;" 
d="M513 1365c82.667 0 153 -28 211 -84s87 -125.333 87 -208c0 -81.333 -29.333 -150.5 -88 -207.5s-128.667 -85.5 -210 -85.5c-83.333 0 -154 28.667 -212 86s-87 127.666 -87 210.999c0 80.667 29.667 148.834 89 204.501s129.333 83.5 210 83.5zM512 1251
c-49.333 0 -91.666 -17 -126.999 -51s-53 -75.333 -53 -124c0 -50.667 17.5 -93.5 52.5 -128.5s77.833 -52.5 128.5 -52.5c49.333 0 91.666 17.333 126.999 52s53 76.667 53 126s-17.667 91.333 -53 126s-78 52 -128 52z" />
    <glyph glyph-name="plusminus" unicode="&#xb1;" horiz-adv-x="1120" 
d="M630 752h369l-27 -140h-342v-355l-140 -28v383h-369l27 140h342v355l140 28v-383zM999 140l-28 -140h-850l27 140h851z" />
    <glyph glyph-name="acute" unicode="&#xb4;" 
d="M747 1481l61 -125l-395 -195l-51 97z" />
    <glyph glyph-name="mu" unicode="&#xb5;" horiz-adv-x="1148" 
d="M1005 14l-188 -28v142c-90 -103.333 -196 -155 -318 -155c-77.333 0 -138.333 18.333 -183 55l15 -348l-188 -35v1366l188 27v-645c0 -153.333 70 -230 210 -230c184 0 276 112 276 336v512l188 27v-1024z" />
    <glyph glyph-name="mu" unicode="&#x3bc;" horiz-adv-x="1148" 
d="M1005 14l-188 -28v142c-90 -103.333 -196 -155 -318 -155c-77.333 0 -138.333 18.333 -183 55l15 -348l-188 -35v1366l188 27v-645c0 -153.333 70 -230 210 -230c184 0 276 112 276 336v512l188 27v-1024z" />
    <glyph glyph-name="paragraph" unicode="&#xb6;" horiz-adv-x="1247" 
d="M447 -197l-0.000976562 845.999c-117.333 -0.666992 -211.666 28 -282.999 86c-78 62.667 -117 151.334 -117 266.001c0 242.667 152.667 364 458 364h595v-146h-131v-1416h-161v1416h-200v-1416h-161z" />
    <glyph glyph-name="periodcentered" unicode="&#xb7;" horiz-adv-x="539" 
d="M270 324l-140 181l140 183l139 -183z" />
    <glyph glyph-name="periodcentered" unicode="&#x2219;" horiz-adv-x="539" 
d="M270 324l-140 181l140 183l139 -183z" />
    <glyph glyph-name="cedilla" unicode="&#xb8;" 
d="M543 0l-43.001 -111c17.333 4 31.333 6 42 6c40.667 0 73.334 -13 98.001 -39s37 -59.333 37 -100c0 -54 -20.333 -96.667 -61 -128c-36.667 -28.667 -82.667 -43 -138 -43c-66 0 -127 21.333 -183 64l56 77c40.667 -35.333 82.667 -53 126 -53c54.667 0 82 24.667 82 74
c0 43.333 -20.667 65 -62 65c-14.667 0 -31.667 -5.66699 -51 -17l-76 23l70 182h103z" />
    <glyph glyph-name="guillemotright" unicode="&#xbb;" horiz-adv-x="888" 
d="M502 213l-79 82l212 226l-212 213l79 77l297 -290zM188 213l-79 82l212 226l-212 213l79 77l297 -290z" />
    <glyph glyph-name="zdotaccent" unicode="&#xbf;" horiz-adv-x="967" 
d="M20 0l619 856h-545l41 168h825l-622 -856h628l-50 -168h-896zM417 1318l127 159l124 -159l-124 -157z" />
    <glyph glyph-name="Aacute" unicode="&#xc1;" horiz-adv-x="1425" 
d="M-14 27l717 1422l735 -1422l-198 -54l-244 492h-562l-247 -492zM519 649h389l-195 384zM996 1803l62 -139l-423 -169l-51 108z" />
    <glyph glyph-name="Acircumflex" unicode="&#xc2;" horiz-adv-x="1425" 
d="M-14 27l717 1422l735 -1422l-198 -54l-244 492h-562l-247 -492zM519 649h389l-195 384zM704 1782l368 -264l-171 -30l-197 124l-198 -124l-171 30z" />
    <glyph glyph-name="Adieresis" unicode="&#xc4;" horiz-adv-x="1425" 
d="M-14 27l717 1422l735 -1422l-198 -54l-244 492h-562l-247 -492zM519 649h389l-195 384zM504 1475l-135 163l135 164l134 -164zM905 1475l-136 163l136 164l133 -164z" />
    <glyph glyph-name="Ccedilla" unicode="&#xc7;" horiz-adv-x="1153" 
d="M722 -30l-26.0029 -71c16.667 4.66699 30.334 7 41.001 7c42 0 75.5 -13.5 100.5 -40.5s37.5 -61.833 37.5 -104.5c0 -55.333 -20.333 -99.333 -61 -132c-37.333 -30.667 -84.333 -46 -141 -46c-67.333 0 -129.666 22.333 -186.999 67l57 79c41.333 -36 84 -54 128 -54
c55.333 0 83 25.667 83 77c0 44.667 -20.667 67 -62 67c-15.333 0 -32.666 -6 -51.999 -18l-77 24l61 163c-163.333 39.333 -295 123 -395 251s-150 276.333 -150 445c0 196 69.833 364.167 209.5 504.5s307.5 210.5 503.5 210.5c61.333 0 137.333 -11.333 228 -34l48 -224
c-101.333 44.667 -189.666 67 -264.999 67c-146.667 0 -269.834 -51 -369.501 -153s-149.5 -226.667 -149.5 -374c0 -145.333 49.833 -269 149.5 -371s221.834 -153 366.501 -153c107.333 0 204.333 28 291 84l-41 -236c-95.333 -26 -181 -39 -257 -39
c-24.667 0 -48.334 1.33301 -71.001 4z" />
    <glyph glyph-name="Eacute" unicode="&#xc9;" horiz-adv-x="1079" 
d="M164 0v1365h766l41 -184h-609v-381h496v-184h-496v-432h663l-54 -184h-807zM797 1789l62 -139l-423 -169l-51 108z" />
    <glyph glyph-name="Edieresis" unicode="&#xcb;" horiz-adv-x="1079" 
d="M164 0v1365h766l41 -184h-609v-381h496v-184h-496v-432h663l-54 -184h-807zM347 1475l-135 163l135 164l134 -164zM748 1475l-136 163l136 164l133 -164z" />
    <glyph glyph-name="Iacute" unicode="&#xcd;" horiz-adv-x="526" 
d="M164 -14v1365l198 28v-1365zM465 1789l62 -132l-355 -176l-51 108z" />
    <glyph glyph-name="Icircumflex" unicode="&#xce;" horiz-adv-x="526" 
d="M163 -14v1365l198 28v-1365zM262 1782l301 -264l-158 -30l-143 124l-143 -124l-157 30z" />
    <glyph glyph-name="Oacute" unicode="&#xd3;" horiz-adv-x="1591" 
d="M794 1399c202.667 0 372.834 -68.668 510.501 -206.001s206.5 -307.333 206.5 -510c0 -207.333 -68.667 -378.666 -206 -513.999s-310 -203 -518 -203c-198.667 0 -366.334 69.333 -503.001 208s-205 307.667 -205 507c0 202.667 68.667 373 206 511s307 207 509 207z
M795 1208c-143.333 0 -264.335 -51.334 -363.002 -154.001s-148 -226 -148 -370c0 -142 48 -264.667 144 -368c98.667 -106 218.334 -159 359.001 -159c146.667 0 269.834 49.833 369.501 149.5s149.5 222.834 149.5 369.501c0 144 -48.667 268 -146 372
c-100 106.667 -221.667 160 -365 160zM1066 1789l62 -139l-423 -169l-51 108z" />
    <glyph glyph-name="Ocircumflex" unicode="&#xd4;" horiz-adv-x="1591" 
d="M794 1399c202.667 0 372.834 -68.668 510.501 -206.001s206.5 -307.333 206.5 -510c0 -207.333 -68.667 -378.666 -206 -513.999s-310 -203 -518 -203c-198.667 0 -366.334 69.333 -503.001 208s-205 307.667 -205 507c0 202.667 68.667 373 206 511s307 207 509 207z
M795 1208c-143.333 0 -264.335 -51.334 -363.002 -154.001s-148 -226 -148 -370c0 -142 48 -264.667 144 -368c98.667 -106 218.334 -159 359.001 -159c146.667 0 269.834 49.833 369.501 149.5s149.5 222.834 149.5 369.501c0 144 -48.667 268 -146 372
c-100 106.667 -221.667 160 -365 160zM1256 1789l62 -139l-423 -169l-51 108zM815.998 1789l62 -139l-423 -169l-51 108z" />
    <glyph glyph-name="Ohungarumlaut" unicode="&#xd5;" horiz-adv-x="1591" 
d="M794 1399c202.667 0 372.834 -68.668 510.501 -206.001s206.5 -307.333 206.5 -510c0 -207.333 -68.667 -378.666 -206 -513.999s-310 -203 -518 -203c-198.667 0 -366.334 69.333 -503.001 208s-205 307.667 -205 507c0 202.667 68.667 373 206 511s307 207 509 207z
M795 1208c-143.333 0 -264.335 -51.334 -363.002 -154.001s-148 -226 -148 -370c0 -142 48 -264.667 144 -368c98.667 -106 218.334 -159 359.001 -159c146.667 0 269.834 49.833 369.501 149.5s149.5 222.834 149.5 369.501c0 144 -48.667 268 -146 372
c-100 106.667 -221.667 160 -365 160zM906.998 1575l342 214l69 -127l-358 -181zM503.998 1575l342 214l69 -127l-358 -181z" />
    <glyph glyph-name="Odieresis" unicode="&#xd6;" horiz-adv-x="1591" 
d="M794 1399c202.667 0 372.834 -68.668 510.501 -206.001s206.5 -307.333 206.5 -510c0 -207.333 -68.667 -378.666 -206 -513.999s-310 -203 -518 -203c-198.667 0 -366.334 69.333 -503.001 208s-205 307.667 -205 507c0 202.667 68.667 373 206 511s307 207 509 207z
M795 1208c-143.333 0 -264.335 -51.334 -363.002 -154.001s-148 -226 -148 -370c0 -142 48 -264.667 144 -368c98.667 -106 218.334 -159 359.001 -159c146.667 0 269.834 49.833 369.501 149.5s149.5 222.834 149.5 369.501c0 144 -48.667 268 -146 372
c-100 106.667 -221.667 160 -365 160zM595.998 1475l-135 163l135 164l134 -164zM996.998 1475l-136 163l136 164l133 -164z" />
    <glyph glyph-name="multiply" unicode="&#xd7;" horiz-adv-x="1120" 
d="M470 683l-303 303l89 90l304 -304l303 303l89 -89l-303 -303l303 -303l-89 -90l-304 304l-303 -303l-89 89z" />
    <glyph glyph-name="Uacute" unicode="&#xda;" horiz-adv-x="1293" 
d="M348 1379v-935c0 -191.333 100 -287 300 -287c198 0 297 95.667 297 287v907l198 28v-935c0 -156 -46.667 -275.667 -140 -359c-88.667 -79.333 -212 -119 -370 -119c-154 0 -273 41.167 -357 123.5s-126 200.5 -126 354.5v907zM909 1789l62 -139l-423 -169l-51 108z" />
    <glyph glyph-name="Uhungarumlaut" unicode="&#xdb;" horiz-adv-x="1293" 
d="M348 1379v-935c0 -191.333 100 -287 300 -287c198 0 297 95.667 297 287v907l198 28v-935c0 -156 -46.667 -275.667 -140 -359c-88.667 -79.333 -212 -119 -370 -119c-154 0 -273 41.167 -357 123.5s-126 200.5 -126 354.5v907zM756 1575l342 214l69 -127l-358 -181z
M353 1575l342 214l69 -127l-358 -181z" />
    <glyph glyph-name="Udieresis" unicode="&#xdc;" horiz-adv-x="1293" 
d="M348 1379v-935c0 -191.333 100 -287 300 -287c198 0 297 95.667 297 287v907l198 28v-935c0 -156 -46.667 -275.667 -140 -359c-88.667 -79.333 -212 -119 -370 -119c-154 0 -273 41.167 -357 123.5s-126 200.5 -126 354.5v907zM447 1475l-135 163l135 164l134 -164z
M848 1475l-136 163l136 164l133 -164z" />
    <glyph glyph-name="Yacute" unicode="&#xdd;" horiz-adv-x="1127" 
d="M514 520l-528 820l203 52l422 -654l298 654l204 -52l-641 -1381l-207 48zM832 1789l62 -139l-423 -169l-51 108z" />
    <glyph glyph-name="Tcommaaccent" unicode="&#xde;" horiz-adv-x="969" 
d="M584 1181v-1167l-198 -28v1195h-386l71 184h857v-184h-344zM377 -456c52.667 73.333 79 119.001 79 137.001c0 41.333 -26.333 74.666 -79 99.999l96 130c82 -64.667 123 -130.667 123 -198c0 -44 -41.333 -125 -124 -243z" />
    <glyph glyph-name="germandbls" unicode="&#xdf;" horiz-adv-x="1201" 
d="M42 857l118 -0.000976562c0 133.333 7.33301 223.666 22 270.999c28 92 82 165 162 219c76.667 51.333 164 77 262 77c114 0 211.333 -33.667 292 -101c86.667 -71.333 130 -162.666 130 -273.999c0 -133.333 -58 -232.333 -174 -297
c85.333 -26.667 152.5 -72.667 201.5 -138s73.5 -142.666 73.5 -231.999c0 -121.333 -42.667 -221 -128 -299c-83.333 -74.667 -186.333 -112 -309 -112c-139.333 0 -254 59.667 -344 179v-223l-188 -70v836h-172zM348 344.999l64.001 22.002c66 -142 159.667 -213 281 -213
c73.333 0 132 22.667 176 68s66 104.666 66 177.999c0 103.333 -42.333 174 -127 212c-57.333 26 -144.333 39 -261 39v171c191.333 0 287 68.667 287 206c0 65.333 -22.333 117.666 -67 156.999c-42.667 37.333 -97.334 56 -164.001 56c-107.333 0 -180 -41 -218 -123
c-24.667 -54 -37 -141 -37 -261v-512z" />
    <glyph glyph-name="aacute" unicode="&#xe1;" horiz-adv-x="1073" 
d="M197 810l43 204.002c116.667 25.333 221 38 313 38c251.333 0 377 -127 377 -381v-657l-186 -28v119c-63.333 -88 -154 -132 -272 -132c-114 0 -208 33.667 -282 101c-76.667 69.333 -115 160.666 -115 273.999s38.667 206 116 278c75.333 70 170 105 284 105
c107.333 0 197 -33.333 269 -100v40c0 83.333 -19.333 139.666 -58 168.999c-32.667 24 -93 36 -181 36c-103.333 0 -206 -22 -308 -66zM505 548.002c-62.667 0 -116.333 -15.666 -161 -46.999c-50 -34.667 -75 -82.334 -75 -143.001c0 -65.333 23.667 -115.333 71 -150
c42 -31.333 97 -47 165 -47c65.333 0 121 15.333 167 46c52 36 78 85.333 78 148c0 60.667 -26.667 109 -80 145c-46.667 32 -101.667 48 -165 48zM801.001 1481l61 -125l-395 -195l-51 97z" />
    <glyph glyph-name="acircumflex" unicode="&#xe2;" horiz-adv-x="1073" 
d="M197 810l43 204.002c116.667 25.333 221 38 313 38c251.333 0 377 -127 377 -381v-657l-186 -28v119c-63.333 -88 -154 -132 -272 -132c-114 0 -208 33.667 -282 101c-76.667 69.333 -115 160.666 -115 273.999s38.667 206 116 278c75.333 70 170 105 284 105
c107.333 0 197 -33.333 269 -100v40c0 83.333 -19.333 139.666 -58 168.999c-32.667 24 -93 36 -181 36c-103.333 0 -206 -22 -308 -66zM505 548.002c-62.667 0 -116.333 -15.666 -161 -46.999c-50 -34.667 -75 -82.334 -75 -143.001c0 -65.333 23.667 -115.333 71 -150
c42 -31.333 97 -47 165 -47c65.333 0 121 15.333 167 46c52 36 78 85.333 78 148c0 60.667 -26.667 109 -80 145c-46.667 32 -101.667 48 -165 48zM564.001 1475l348 -278l-161 -30l-187 142l-187 -142l-161 30z" />
    <glyph glyph-name="adieresis" unicode="&#xe4;" horiz-adv-x="1073" 
d="M197 810l43 204.002c116.667 25.333 221 38 313 38c251.333 0 377 -127 377 -381v-657l-186 -28v119c-63.333 -88 -154 -132 -272 -132c-114 0 -208 33.667 -282 101c-76.667 69.333 -115 160.666 -115 273.999s38.667 206 116 278c75.333 70 170 105 284 105
c107.333 0 197 -33.333 269 -100v40c0 83.333 -19.333 139.666 -58 168.999c-32.667 24 -93 36 -181 36c-103.333 0 -206 -22 -308 -66zM505 548.002c-62.667 0 -116.333 -15.666 -161 -46.999c-50 -34.667 -75 -82.334 -75 -143.001c0 -65.333 23.667 -115.333 71 -150
c42 -31.333 97 -47 165 -47c65.333 0 121 15.333 167 46c52 36 78 85.333 78 148c0 60.667 -26.667 109 -80 145c-46.667 32 -101.667 48 -165 48zM621.001 1318l127 159l123 -159l-123 -157zM257.001 1318l127 159l124 -159l-124 -157z" />
    <glyph glyph-name="ccedilla" unicode="&#xe7;" horiz-adv-x="1044" 
d="M614 -27l-31.998 -84c17.333 4 31.333 6 42 6c40 0 72.333 -13 97 -39s37 -59.333 37 -100c0 -54 -20.333 -96.667 -61 -128c-36.667 -28.667 -82.667 -43 -138 -43c-65.333 0 -126 21.333 -182 64l55 77c41.333 -35.333 83.333 -53 126 -53c54.667 0 82 24.667 82 74
c0 43.333 -20.333 65 -61 65c-14.667 0 -31.667 -5.66699 -51 -17l-76 23l63 163c-128 22 -233.833 84.167 -317.5 186.5s-125.5 218.833 -125.5 349.5c0 148 52.667 275.833 158 383.5s231.666 161.5 378.999 161.5c143.333 0 274.666 -50 393.999 -150l-127 -136
c-86 66 -170.333 99 -253 99c-99.333 0 -183.666 -33.667 -252.999 -101s-104 -150.666 -104 -249.999c0 -100 34.833 -185.167 104.5 -255.5s154.5 -105.5 254.5 -105.5c87.333 0 171 36.333 251 109l127 -132c-102.667 -112.667 -232.334 -168.334 -389.001 -167.001z" />
    <glyph glyph-name="eacute" unicode="&#xe9;" horiz-adv-x="1120" 
d="M1014 331l40.001 -200.999c-138 -104.667 -280.667 -157 -428 -157c-152 0 -282.333 51.667 -391 155s-163 230.666 -163 381.999c0 152 52.167 280.333 156.5 385s232.5 157 384.5 157c209.333 0 364.666 -94 465.999 -282l-745 -439c68.667 -112 166 -168 292 -168
c114.667 0 244 56 388 168zM272.001 495.001l526.999 311c-50 46.667 -113 70 -189 70c-92.667 0 -173.667 -34.5 -243 -103.5s-101.666 -148.5 -96.999 -238.5zM835 1481l61 -125l-395 -195l-51 97z" />
    <glyph glyph-name="edieresis" unicode="&#xeb;" horiz-adv-x="1120" 
d="M1014 331l40.001 -200.999c-138 -104.667 -280.667 -157 -428 -157c-152 0 -282.333 51.667 -391 155s-163 230.666 -163 381.999c0 152 52.167 280.333 156.5 385s232.5 157 384.5 157c209.333 0 364.666 -94 465.999 -282l-745 -439c68.667 -112 166 -168 292 -168
c114.667 0 244 56 388 168zM272.001 495.001l526.999 311c-50 46.667 -113 70 -189 70c-92.667 0 -173.667 -34.5 -243 -103.5s-101.666 -148.5 -96.999 -238.5zM653 1318l127 159l123 -159l-123 -157zM289 1318l127 159l124 -159l-124 -157z" />
    <glyph glyph-name="iacute" unicode="&#xed;" horiz-adv-x="475" 
d="M143 -14v1025l188 27v-1024zM427 1481l61 -119l-327 -201l-51 97z" />
    <glyph glyph-name="icircumflex" unicode="&#xee;" horiz-adv-x="475" 
d="M143 -14v1025l188 27v-1024zM238 1475l293 -278l-148 -30l-145 142l-146 -142l-148 30z" />
    <glyph glyph-name="oacute" unicode="&#xf3;" horiz-adv-x="1242" 
d="M621 1052c158.667 0 289.832 -52.167 393.499 -156.5s155.5 -235.833 155.5 -394.5c0 -152 -53.167 -278 -159.5 -378s-235.833 -150 -388.5 -150c-154 0 -284.167 51.333 -390.5 154s-159.5 230.667 -159.5 384c0 152 53.333 280.167 160 384.5
s236.334 156.5 389.001 156.5zM621.998 876c-99.333 0 -183.498 -34.333 -252.498 -103s-103.5 -152.667 -103.5 -252c0 -105.333 34.667 -191.333 104 -258s156.666 -100 261.999 -100c98.667 0 180.667 33 246 99s98 148.333 98 247c0 102.667 -33.333 189.5 -100 260.5
s-151.334 106.5 -254.001 106.5zM863 1481l61 -125l-395 -195l-51 97z" />
    <glyph glyph-name="ocircumflex" unicode="&#xf4;" horiz-adv-x="1242" 
d="M621 1052c158.667 0 289.832 -52.167 393.499 -156.5s155.5 -235.833 155.5 -394.5c0 -152 -53.167 -278 -159.5 -378s-235.833 -150 -388.5 -150c-154 0 -284.167 51.333 -390.5 154s-159.5 230.667 -159.5 384c0 152 53.333 280.167 160 384.5
s236.334 156.5 389.001 156.5zM621.998 876c-99.333 0 -183.498 -34.333 -252.498 -103s-103.5 -152.667 -103.5 -252c0 -105.333 34.667 -191.333 104 -258s156.666 -100 261.999 -100c98.667 0 180.667 33 246 99s98 148.333 98 247c0 102.667 -33.333 189.5 -100 260.5
s-151.334 106.5 -254.001 106.5zM993 1481l61 -125l-395 -195l-51 97zM633 1481l61 -125l-395 -195l-51 97z" />
    <glyph glyph-name="ohungarumlaut" unicode="&#xf5;" horiz-adv-x="1242" 
d="M621 1052c158.667 0 289.832 -52.167 393.499 -156.5s155.5 -235.833 155.5 -394.5c0 -152 -53.167 -278 -159.5 -378s-235.833 -150 -388.5 -150c-154 0 -284.167 51.333 -390.5 154s-159.5 230.667 -159.5 384c0 152 53.333 280.167 160 384.5
s236.334 156.5 389.001 156.5zM621.998 876c-99.333 0 -183.498 -34.333 -252.498 -103s-103.5 -152.667 -103.5 -252c0 -105.333 34.667 -191.333 104 -258s156.666 -100 261.999 -100c98.667 0 180.667 33 246 99s98 148.333 98 247c0 102.667 -33.333 189.5 -100 260.5
s-151.334 106.5 -254.001 106.5zM692 1248l301 233l69 -115l-317 -205zM371 1248l301 233l69 -115l-317 -205z" />
    <glyph glyph-name="odieresis" unicode="&#xf6;" horiz-adv-x="1242" 
d="M621 1052c158.667 0 289.832 -52.167 393.499 -156.5s155.5 -235.833 155.5 -394.5c0 -152 -53.167 -278 -159.5 -378s-235.833 -150 -388.5 -150c-154 0 -284.167 51.333 -390.5 154s-159.5 230.667 -159.5 384c0 152 53.333 280.167 160 384.5
s236.334 156.5 389.001 156.5zM621.998 876c-99.333 0 -183.498 -34.333 -252.498 -103s-103.5 -152.667 -103.5 -252c0 -105.333 34.667 -191.333 104 -258s156.666 -100 261.999 -100c98.667 0 180.667 33 246 99s98 148.333 98 247c0 102.667 -33.333 189.5 -100 260.5
s-151.334 106.5 -254.001 106.5zM678 1318l127 159l123 -159l-123 -157zM314 1318l127 159l124 -159l-124 -157z" />
    <glyph glyph-name="divide" unicode="&#xf7;" horiz-adv-x="1120" 
d="M683 360l-122 -129l-127 129l127 129zM683 1005l-122 -129l-127 129l127 130zM999 752l-28 -140h-850l27 140h851z" />
    <glyph glyph-name="uacute" unicode="&#xfa;" horiz-adv-x="1148" 
d="M1005 1038v-1024l-188 -28v142c-90 -104 -193 -156 -309 -156c-243.333 0 -365 140.333 -365 421v618l188 27v-645c0 -154 70 -231 210 -231c184 0 276 112.333 276 337v512zM808 1481l61 -125l-395 -195l-51 97z" />
    <glyph glyph-name="uhungarumlaut" unicode="&#xfb;" horiz-adv-x="1148" 
d="M1005 1038v-1024l-188 -28v142c-90 -104 -193 -156 -309 -156c-243.333 0 -365 140.333 -365 421v618l188 27v-645c0 -154 70 -231 210 -231c184 0 276 112.333 276 337v512zM635 1248l301 233l69 -115l-317 -205zM314 1248l301 233l69 -115l-317 -205z" />
    <glyph glyph-name="udieresis" unicode="&#xfc;" horiz-adv-x="1148" 
d="M1005 1038v-1024l-188 -28v142c-90 -104 -193 -156 -309 -156c-243.333 0 -365 140.333 -365 421v618l188 27v-645c0 -154 70 -231 210 -231c184 0 276 112.333 276 337v512zM631 1318l127 159l123 -159l-123 -157zM267 1318l127 159l124 -159l-124 -157z" />
    <glyph glyph-name="yacute" unicode="&#xfd;" horiz-adv-x="993" 
d="M421 199l-428 799l177 54l344 -649l310 649l176 -54l-666 -1353l-186 23zM754 1481l61 -125l-395 -195l-51 97z" />
    <glyph glyph-name="tcommaaccent" unicode="&#xfe;" horiz-adv-x="673" 
d="M623 854h-287v-515c0 -118 62.333 -177 187 -177c38.667 0 84 5.66699 136 17l-37 -186c-52 -9.33301 -99.667 -14 -143 -14c-220.667 0 -331 120.333 -331 361v514h-158l71 177h87v260l188 49v-309h287v-177zM272 -456c52.667 73.333 79 119.001 79 137.001
c0 41.333 -26.333 74.666 -79 99.999l96 130c82 -64.667 123 -130.667 123 -198c0 -44 -41.333 -125 -124 -243z" />
    <glyph glyph-name="Amacron" unicode="&#x100;" horiz-adv-x="1425" 
d="M-14 27l717 1422l735 -1422l-198 -54l-244 492h-562l-247 -492zM519 649h389l-195 384zM369 1551v135h668v-135h-668z" />
    <glyph glyph-name="amacron" unicode="&#x101;" horiz-adv-x="1073" 
d="M197 810l43 204.002c116.667 25.333 221 38 313 38c251.333 0 377 -127 377 -381v-657l-186 -28v119c-63.333 -88 -154 -132 -272 -132c-114 0 -208 33.667 -282 101c-76.667 69.333 -115 160.666 -115 273.999s38.667 206 116 278c75.333 70 170 105 284 105
c107.333 0 197 -33.333 269 -100v40c0 83.333 -19.333 139.666 -58 168.999c-32.667 24 -93 36 -181 36c-103.333 0 -206 -22 -308 -66zM505 548.002c-62.667 0 -116.333 -15.666 -161 -46.999c-50 -34.667 -75 -82.334 -75 -143.001c0 -65.333 23.667 -115.333 71 -150
c42 -31.333 97 -47 165 -47c65.333 0 121 15.333 167 46c52 36 78 85.333 78 148c0 60.667 -26.667 109 -80 145c-46.667 32 -101.667 48 -165 48zM252.001 1233v132h621v-132h-621z" />
    <glyph glyph-name="Abreve" unicode="&#x102;" horiz-adv-x="1425" 
d="M-14 27l717 1422l735 -1422l-198 -54l-244 492h-562l-247 -492zM519 649h389l-195 384zM373 1705l97.998 70c70 -83.333 147.667 -125 233 -125s163 41.667 233 125l98 -70c-89.333 -135.333 -199.666 -203 -330.999 -203s-241.666 67.667 -330.999 203z" />
    <glyph glyph-name="abreve" unicode="&#x103;" horiz-adv-x="1073" 
d="M197 810l43 204.002c116.667 25.333 221 38 313 38c251.333 0 377 -127 377 -381v-657l-186 -28v119c-63.333 -88 -154 -132 -272 -132c-114 0 -208 33.667 -282 101c-76.667 69.333 -115 160.666 -115 273.999s38.667 206 116 278c75.333 70 170 105 284 105
c107.333 0 197 -33.333 269 -100v40c0 83.333 -19.333 139.666 -58 168.999c-32.667 24 -93 36 -181 36c-103.333 0 -206 -22 -308 -66zM505 548.002c-62.667 0 -116.333 -15.666 -161 -46.999c-50 -34.667 -75 -82.334 -75 -143.001c0 -65.333 23.667 -115.333 71 -150
c42 -31.333 97 -47 165 -47c65.333 0 121 15.333 167 46c52 36 78 85.333 78 148c0 60.667 -26.667 109 -80 145c-46.667 32 -101.667 48 -165 48zM247.001 1391l98.001 70c66 -102 139 -153 219 -153c80.667 0 154 51 220 153l97 -70c-84 -149.333 -189.667 -224 -317 -224
c-124.667 0 -230.334 74.667 -317.001 224z" />
    <glyph glyph-name="Aogonek" unicode="&#x104;" horiz-adv-x="1425" 
d="M1464 -210l33.999 -87.001c-49.333 -28.667 -99.666 -43 -150.999 -43c-120.667 0 -181 50.667 -181 152c0 52.667 24.667 106.334 74 161.001l-244 492h-562l-247 -492l-201 55l717 1422l735 -1422c-84 -76 -126 -140 -126 -192c0 -46.667 22.667 -70 68 -70
c24 0 52 8 84 24zM518.999 648.999h389l-195 384z" />
    <glyph glyph-name="aogonek" unicode="&#x105;" horiz-adv-x="1073" 
d="M930 0c-66.667 -59.333 -100 -111.331 -100 -155.998c0 -45.333 22.333 -68 67 -68c24.667 0 52 7.33301 82 22l34 -83c-48.667 -27.333 -98 -41 -148 -41c-118.667 0 -178 48.667 -178 146c0 65.333 33.667 123 101 173l-44 -7v119c-63.333 -88 -154 -132 -272 -132
c-114 0 -208 33.667 -282 101c-76.667 69.333 -115 160.666 -115 273.999s38.667 206 116 278c76 70 170.667 105 284 105c107.333 0 197 -33.333 269 -100v40c0 83.333 -19.333 139.666 -58 168.999c-32.667 24 -93 36 -181 36c-103.333 0 -206 -22 -308 -66l43 204
c118 25.333 222.333 38 313 38c251.333 0 377 -127 377 -381v-671zM505 548.002c-62.667 0 -116.333 -15.666 -161 -46.999c-50 -34.667 -75 -82.334 -75 -143.001c0 -65.333 23.667 -115.333 71 -150c42 -31.333 97 -47 165 -47c65.333 0 121 15.333 167 46
c52 36 78 85.333 78 148c0 60.667 -26.667 109 -80 145c-46.667 32 -101.667 48 -165 48z" />
    <glyph glyph-name="Cacute" unicode="&#x106;" horiz-adv-x="1153" 
d="M1091 241l-41.001 -236c-94.667 -26 -177.334 -39 -248.001 -39c-203.333 0 -374.666 68.833 -513.999 206.5s-209 308.167 -209 511.5c0 196 69.833 364.167 209.5 504.5s307.5 210.5 503.5 210.5c61.333 0 137.333 -11.333 228 -34l48 -224
c-101.333 44.667 -189.666 67 -264.999 67c-146.667 0 -269.834 -51 -369.501 -153s-149.5 -226.667 -149.5 -374c0 -145.333 49.833 -269 149.5 -371s221.834 -153 366.501 -153c107.333 0 204.333 28 291 84zM1003 1789l62 -139l-423 -169l-51 108z" />
    <glyph glyph-name="cacute" unicode="&#x107;" horiz-adv-x="1044" 
d="M1003 140c-106.667 -111.333 -236 -167.001 -388 -167.001c-152.667 0 -281.334 52.5 -386.001 157.5s-157 233.833 -157 386.5c0 148 52.5 275.833 157.5 383.5s231.5 161.5 379.5 161.5c143.333 0 274.666 -50 393.999 -150l-127 -136c-86 66 -170.333 99 -253 99
c-99.333 0 -183.666 -33.667 -252.999 -101s-104 -150.666 -104 -249.999c0 -100 34.833 -185.167 104.5 -255.5s154.5 -105.5 254.5 -105.5c88.667 0 172.334 36.333 251.001 109zM856 1481l61 -125l-395 -195l-51 97z" />
    <glyph glyph-name="Ccaron" unicode="&#x10c;" horiz-adv-x="1153" 
d="M1091 241l-41.001 -236c-94.667 -26 -177.334 -39 -248.001 -39c-203.333 0 -374.666 68.833 -513.999 206.5s-209 308.167 -209 511.5c0 196 69.833 364.167 209.5 504.5s307.5 210.5 503.5 210.5c61.333 0 137.333 -11.333 228 -34l48 -224
c-101.333 44.667 -189.666 67 -264.999 67c-146.667 0 -269.834 -51 -369.501 -153s-149.5 -226.667 -149.5 -374c0 -145.333 49.833 -269 149.5 -371s221.834 -153 366.501 -153c107.333 0 204.333 28 291 84zM742.999 1481l-369 265l171 29l198 -123l197 123l171 -29z" />
    <glyph glyph-name="ccaron" unicode="&#x10d;" horiz-adv-x="1044" 
d="M1003 140c-106.667 -111.333 -236 -167.001 -388 -167.001c-152.667 0 -281.334 52.5 -386.001 157.5s-157 233.833 -157 386.5c0 148 52.5 275.833 157.5 383.5s231.5 161.5 379.5 161.5c143.333 0 274.666 -50 393.999 -150l-127 -136c-86 66 -170.333 99 -253 99
c-99.333 0 -183.666 -33.667 -252.999 -101s-104 -150.666 -104 -249.999c0 -100 34.833 -185.167 104.5 -255.5s154.5 -105.5 254.5 -105.5c88.667 0 172.334 36.333 251.001 109zM599 1161l-348 277l161 30l187 -141l187 141l161 -30z" />
    <glyph glyph-name="Dcaron" unicode="&#x10e;" horiz-adv-x="1292" 
d="M164 0v1362c134.667 8.66699 245 13 331 13c203.333 0 373 -63.333 509 -190c139.333 -130.667 209 -297.334 209 -500.001c0 -206 -73 -373 -219 -501c-139.333 -122.667 -313 -184 -521 -184h-309zM362 184.001l133.001 -0.000976562
c145.333 0 267.166 46.833 365.499 140.5s147.5 212.834 147.5 357.501c0 156 -57.333 281.667 -172 377c-106.667 88.667 -239.667 133 -399 133c-21.333 0 -46.333 -1.33301 -75 -4v-1004zM586.001 1481l-369 265l171 29l198 -123l197 123l171 -29z" />
    <glyph glyph-name="dcaron" unicode="&#x10f;" horiz-adv-x="1438" 
d="M952 152c-96 -119.333 -213.999 -178.999 -353.999 -178.999c-146.667 0 -270.834 52.667 -372.501 158s-152.5 231.666 -152.5 378.999c0 148.667 50.167 276.167 150.5 382.5s224.5 159.5 372.5 159.5c138 0 256.667 -45.333 356 -136v477l188 27v-1406l-188 -28v166z
M611.001 876.001c-98.667 0 -180.668 -34.168 -246.001 -102.501s-98 -152.166 -98 -251.499c0 -102.667 32.833 -188.167 98.5 -256.5s149.834 -102.5 252.501 -102.5c97.333 0 179.333 34.333 246 103s100 152 100 250c0 100 -34 185 -102 255s-151.667 105 -251 105z
M1219 1014c54.667 94 82 152.667 82 176c0 42.667 -26.333 76 -79 100l96 130c82 -64.667 123 -131 123 -199c0 -50.667 -41.667 -142.667 -125 -276z" />
    <glyph glyph-name="Dslash" unicode="&#x110;" horiz-adv-x="1292" 
d="M164 786v576.001c134.667 8.66699 245 13 331 13c203.333 0 373 -63.333 509 -190c139.333 -130.667 209 -297.334 209 -500.001c0 -206 -73 -373 -219 -501c-139.333 -122.667 -313 -184 -521 -184h-309v629h-164l34 157h130zM362 786.001h332v-157h-332v-445h133
c146 0 268 46.833 366 140.5s147 213.167 147 358.5c0 156 -57.333 281.333 -172 376c-107.333 88.667 -240.333 133 -399 133c-22 0 -47 -1.33301 -75 -4v-402z" />
    <glyph glyph-name="dcroat" unicode="&#x111;" horiz-adv-x="1283" 
d="M952 1289l0.000976562 104.001l188 27v-131h129v-147h-129v-1128l-188 -28v166c-95.333 -114.667 -213 -172 -353 -172c-147.333 0 -271.833 52.667 -373.5 158s-152.5 231.666 -152.5 378.999c0 148 50.167 275.167 150.5 381.5s224.166 159.5 371.499 159.5
c139.333 0 258.333 -47.333 357 -142v226h-285l47 147h238zM611.001 875.001c-98 0 -179.833 -34.332 -245.5 -102.999s-98.5 -152.334 -98.5 -251.001c0 -102.667 33 -188 99 -256s150 -102 252 -102c97.333 0 179.333 34.333 246 103s100 151.667 100 249
c0 100 -34 185 -102 255s-151.667 105 -251 105z" />
    <glyph glyph-name="Emacron" unicode="&#x112;" horiz-adv-x="1079" 
d="M164 0v1365h766l41 -184h-609v-381h496v-184h-496v-432h663l-54 -184h-807zM215 1551v135h668v-135h-668z" />
    <glyph glyph-name="emacron" unicode="&#x113;" horiz-adv-x="1120" 
d="M1014 331l40.001 -200.999c-138 -104.667 -280.667 -157 -428 -157c-152 0 -282.333 51.667 -391 155s-163 230.666 -163 381.999c0 152 52.167 280.333 156.5 385s232.5 157 384.5 157c209.333 0 364.666 -94 465.999 -282l-745 -439c68.667 -112 166 -168 292 -168
c114.667 0 244 56 388 168zM272.001 495.001l526.999 311c-50 46.667 -113 70 -189 70c-92.667 0 -173.667 -34.5 -243 -103.5s-101.666 -148.5 -96.999 -238.5zM286 1233v132h621v-132h-621z" />
    <glyph glyph-name="Eogonek" unicode="&#x118;" horiz-adv-x="1079" 
d="M971 0c-68 -62.667 -102 -116.999 -102 -162.999c0 -47.333 22.667 -71 68 -71c24.667 0 53 8 85 24l33 -87c-49.333 -28.667 -99.333 -43 -150 -43c-121.333 0 -182 51 -182 153c0 73.333 38.333 135.666 115 186.999h-674v1365h766l41 -184h-609v-381h496v-184h-496
v-432h663z" />
    <glyph glyph-name="eogonek" unicode="&#x119;" horiz-adv-x="1120" 
d="M973 -195l33.001 -83c-49.333 -28 -98.333 -42 -147 -42c-118.667 0 -178 49 -178 147c0 62 31.667 116.667 95 164c-51.333 -12 -100.666 -18 -147.999 -18c-152.667 0 -283 51 -391 153c-110 104 -165 232 -165 384s52.167 280.333 156.5 385s232.5 157 384.5 157
c209.333 0 364.666 -94 465.999 -282l-745 -439c69.333 -112 166.666 -168 291.999 -168c114.667 0 244 56 388 168l40 -201l-151 -114c-52.667 -49.333 -79 -104.333 -79 -165c0 -46 22.333 -69 67 -69c24.667 0 52 7.66699 82 23zM272.001 495l526.999 311
c-50 46.667 -113 70 -189 70c-92.667 0 -173.667 -34.5 -243 -103.5s-101.666 -148.5 -96.999 -238.5z" />
    <glyph glyph-name="Ecaron" unicode="&#x11a;" horiz-adv-x="1079" 
d="M164 0v1365h766l41 -184h-609v-381h496v-184h-496v-432h663l-54 -184h-807zM547 1481l-369 265l171 29l198 -123l197 123l171 -29z" />
    <glyph glyph-name="ecaron" unicode="&#x11b;" horiz-adv-x="1120" 
d="M1014 331l40.001 -200.999c-138 -104.667 -280.667 -157 -428 -157c-152 0 -282.333 51.667 -391 155s-163 230.666 -163 381.999c0 152 52.167 280.333 156.5 385s232.5 157 384.5 157c209.333 0 364.666 -94 465.999 -282l-745 -439c68.667 -112 166 -168 292 -168
c114.667 0 244 56 388 168zM272.001 495.001l526.999 311c-50 46.667 -113 70 -189 70c-92.667 0 -173.667 -34.5 -243 -103.5s-101.666 -148.5 -96.999 -238.5zM596 1161l-348 277l161 30l187 -141l187 141l161 -30z" />
    <glyph glyph-name="Imacron" unicode="&#x12a;" horiz-adv-x="526" 
d="M164 -14v1365l198 28v-1365zM38 1551v135h450v-135h-450z" />
    <glyph glyph-name="imacron" unicode="&#x12b;" horiz-adv-x="475" 
d="M144 -14v1025l188 27v-1024zM23 1233v132h430v-132h-430z" />
    <glyph glyph-name="Iogonek" unicode="&#x12e;" horiz-adv-x="526" 
d="M362 0c-54.667 -54.667 -82.001 -108.332 -82.001 -160.999c0 -48 20.667 -72 62 -72c14 0 37.333 7.66699 70 23l34 -87c-50 -28.667 -95.667 -43 -137 -43c-49.333 0 -89.666 13 -120.999 39c-33.333 28 -50 66.333 -50 115c0 67.333 29.667 127.666 89 180.999l-63 -9
v1365l198 28v-1379z" />
    <glyph glyph-name="iogonek" unicode="&#x12f;" horiz-adv-x="475" 
d="M331 0c-53.333 -47.333 -80 -96.001 -80 -146.001c0 -52 20 -78 60 -78c22 0 45 7.33301 69 22l34 -83c-46.667 -27.333 -90.667 -41 -132 -41c-110.667 0 -166 50.333 -166 151c0 64.667 29.667 121.334 89 170.001l-62 -9v1024l188 28v-1038zM112 1300l127 160
l124 -160l-124 -157z" />
    <glyph glyph-name="Lacute" unicode="&#x139;" horiz-adv-x="955" 
d="M150 0v1351l198 28v-1195h607l-82 -184h-723zM530 1789l62 -139l-423 -169l-51 108z" />
    <glyph glyph-name="lacute" unicode="&#x13a;" horiz-adv-x="475" 
d="M144 -14v1407l188 27v-1407zM438 1789l62 -125l-355 -176l-51 94z" />
    <glyph glyph-name="Lcaron" unicode="&#x13d;" horiz-adv-x="955" 
d="M150 0v1351l198 28v-1195h607l-82 -184h-723zM533 987c54.667 94 82 152.667 82 176c0 42 -26.333 75 -79 99l96 130c82 -64.667 123 -130.667 123 -198c0 -50 -41.667 -142.333 -125 -277z" />
    <glyph glyph-name="lcaron" unicode="&#x13e;" horiz-adv-x="629" 
d="M143 -14v1407l188 27v-1407zM411 1014c54.667 94 82 152.667 82 176c0 42.667 -26.333 76 -79 100l96 130c82 -64.667 123 -131 123 -199c0 -50.667 -41.667 -142.667 -125 -276z" />
    <glyph glyph-name="Lslash" unicode="&#x141;" horiz-adv-x="955" 
d="M349 622v-438h607l-82 -184h-723v517l-137 -106v181l137 107v652l198 28v-576l247 191v-182z" />
    <glyph glyph-name="lslash" unicode="&#x142;" horiz-adv-x="475" 
d="M332 687v-674l-188 -27v593l-130 -98v171l130 98v643l188 27v-562l130 98v-171z" />
    <glyph glyph-name="Nacute" unicode="&#x143;" horiz-adv-x="1424" 
d="M362 935v-921l-198 -28v1436l898 -979v909l198 27v-1427zM962 1789l62 -139l-423 -169l-51 108z" />
    <glyph glyph-name="nacute" unicode="&#x144;" horiz-adv-x="1154" 
d="M143 -14l0.000976562 1025l188 27v-141c81.333 103.333 184.666 155 309.999 155c246 0 369 -140 369 -420v-618l-188 -28v646c0 82 -13.667 141.667 -41 179c-32 43.333 -88.333 65 -169 65c-90 0 -160 -28 -210 -84c-47.333 -54 -71 -126.333 -71 -217v-561z
M810.001 1481l61 -125l-395 -195l-51 97z" />
    <glyph glyph-name="Ncaron" unicode="&#x147;" horiz-adv-x="1424" 
d="M362 935v-921l-198 -28v1436l898 -979v909l198 27v-1427zM699 1481l-369 265l171 29l198 -123l197 123l171 -29z" />
    <glyph glyph-name="ncaron" unicode="&#x148;" horiz-adv-x="1154" 
d="M143 -14l0.000976562 1025l188 27v-141c81.333 103.333 184.666 155 309.999 155c246 0 369 -140 369 -420v-618l-188 -28v646c0 82 -13.667 141.667 -41 179c-32 43.333 -88.333 65 -169 65c-90 0 -160 -28 -210 -84c-47.333 -54 -71 -126.333 -71 -217v-561z
M570.001 1161l-348 277l161 30l187 -141l187 141l161 -30z" />
    <glyph glyph-name="Omacron" unicode="&#x14c;" horiz-adv-x="1591" 
d="M794 1399c202.667 0 372.834 -68.668 510.501 -206.001s206.5 -307.333 206.5 -510c0 -207.333 -68.667 -378.666 -206 -513.999s-310 -203 -518 -203c-198.667 0 -366.334 69.333 -503.001 208s-205 307.667 -205 507c0 202.667 68.667 373 206 511s307 207 509 207z
M795 1208c-143.333 0 -264.335 -51.334 -363.002 -154.001s-148 -226 -148 -370c0 -142 48 -264.667 144 -368c98.667 -106 218.334 -159 359.001 -159c146.667 0 269.834 49.833 369.501 149.5s149.5 222.834 149.5 369.501c0 144 -48.667 268 -146 372
c-100 106.667 -221.667 160 -365 160zM460.998 1551v135h668v-135h-668z" />
    <glyph glyph-name="omacron" unicode="&#x14d;" horiz-adv-x="1242" 
d="M621 1052c158.667 0 289.832 -52.167 393.499 -156.5s155.5 -235.833 155.5 -394.5c0 -152 -53.167 -278 -159.5 -378s-235.833 -150 -388.5 -150c-154 0 -284.167 51.333 -390.5 154s-159.5 230.667 -159.5 384c0 152 53.333 280.167 160 384.5
s236.334 156.5 389.001 156.5zM621.998 876c-99.333 0 -183.498 -34.333 -252.498 -103s-103.5 -152.667 -103.5 -252c0 -105.333 34.667 -191.333 104 -258s156.666 -100 261.999 -100c98.667 0 180.667 33 246 99s98 148.333 98 247c0 102.667 -33.333 189.5 -100 260.5
s-151.334 106.5 -254.001 106.5zM311 1233v132h621v-132h-621z" />
    <glyph glyph-name="Odblacute" unicode="&#x150;" horiz-adv-x="1591" 
d="M794 1399c202.667 0 372.834 -68.668 510.501 -206.001s206.5 -307.333 206.5 -510c0 -207.333 -68.667 -378.666 -206 -513.999s-310 -203 -518 -203c-198.667 0 -366.334 69.333 -503.001 208s-205 307.667 -205 507c0 202.667 68.667 373 206 511s307 207 509 207z
M795 1208c-143.333 0 -264.335 -51.334 -363.002 -154.001s-148 -226 -148 -370c0 -142 48 -264.667 144 -368c98.667 -106 218.334 -159 359.001 -159c146.667 0 269.834 49.833 369.501 149.5s149.5 222.834 149.5 369.501c0 144 -48.667 268 -146 372
c-100 106.667 -221.667 160 -365 160zM1256 1789l62 -139l-423 -169l-51 108zM815.998 1789l62 -139l-423 -169l-51 108z" />
    <glyph glyph-name="odblacute" unicode="&#x151;" horiz-adv-x="1242" 
d="M621 1052c158.667 0 289.832 -52.167 393.499 -156.5s155.5 -235.833 155.5 -394.5c0 -152 -53.167 -278 -159.5 -378s-235.833 -150 -388.5 -150c-154 0 -284.167 51.333 -390.5 154s-159.5 230.667 -159.5 384c0 152 53.333 280.167 160 384.5
s236.334 156.5 389.001 156.5zM621.998 876c-99.333 0 -183.498 -34.333 -252.498 -103s-103.5 -152.667 -103.5 -252c0 -105.333 34.667 -191.333 104 -258s156.666 -100 261.999 -100c98.667 0 180.667 33 246 99s98 148.333 98 247c0 102.667 -33.333 189.5 -100 260.5
s-151.334 106.5 -254.001 106.5zM993 1481l61 -125l-395 -195l-51 97zM633 1481l61 -125l-395 -195l-51 97z" />
    <glyph glyph-name="Racute" unicode="&#x154;" horiz-adv-x="1103" 
d="M362 650l0.000976562 -636l-198 -28v1379c89.333 6.66699 185.666 10 288.999 10c148 0 267 -30 357 -90c106.667 -70 160 -175.667 160 -317c0 -102 -28.833 -185.167 -86.5 -249.5s-137.167 -105.833 -238.5 -124.5l418 -564l-212 -60zM362.001 1186v-479h82
c86 0 156.333 19.667 211 59c62.667 45.333 94 109.333 94 192c0 81.333 -31.667 142.333 -95 183c-53.333 34.667 -123 52 -209 52c-23.333 0 -51 -2.33301 -83 -7zM768.001 1789l62 -139l-423 -169l-51 108z" />
    <glyph glyph-name="racute" unicode="&#x155;" horiz-adv-x="759" 
d="M670 861l-45.001 1.99902c-196 8.66699 -294 -152.666 -294 -483.999v-365l-188 -28v1025l188 27v-208c77.333 153.333 194 230 350 230c18.667 0 44.334 -2.66699 77.001 -8zM666.999 1481l61 -125l-395 -195l-51 97z" />
    <glyph glyph-name="Rcaron" unicode="&#x158;" horiz-adv-x="1103" 
d="M362 650l0.000976562 -636l-198 -28v1379c89.333 6.66699 185.666 10 288.999 10c148 0 267 -30 357 -90c106.667 -70 160 -175.667 160 -317c0 -102 -28.833 -185.167 -86.5 -249.5s-137.167 -105.833 -238.5 -124.5l418 -564l-212 -60zM362.001 1186v-479h82
c86 0 156.333 19.667 211 59c62.667 45.333 94 109.333 94 192c0 81.333 -31.667 142.333 -95 183c-53.333 34.667 -123 52 -209 52c-23.333 0 -51 -2.33301 -83 -7zM516.001 1481l-369 265l171 29l198 -123l197 123l171 -29z" />
    <glyph glyph-name="rcaron" unicode="&#x159;" horiz-adv-x="759" 
d="M670 861l-45.001 1.99902c-196 8.66699 -294 -152.666 -294 -483.999v-365l-188 -28v1025l188 27v-208c77.333 153.333 194 230 350 230c18.667 0 44.334 -2.66699 77.001 -8zM419.999 1161l-348 277l161 30l187 -141l187 141l161 -30z" />
    <glyph glyph-name="Sacute" unicode="&#x15a;" horiz-adv-x="1039" 
d="M61 186l154.002 128.999c49.333 -56 90.666 -94.667 123.999 -116c45.333 -28 99.333 -42 162 -42c70 0 128 17.333 174 52c51.333 38.667 77 92.334 77 161.001c0 90 -57.667 158.667 -173 206l-323 128c-115.333 68.667 -173 173.667 -173 315
c0 114.667 45.333 208.334 136 281.001c84 66.667 185 100 303 100c173.333 0 310.666 -65.333 411.999 -196l-143 -146c-43.333 53.333 -83 90.666 -119 111.999c-42.667 25.333 -95 38 -157 38c-63.333 0 -116 -16 -158 -48c-46.667 -35.333 -70 -83.666 -70 -144.999
c0 -78 58 -140 174 -186c206.667 -82.667 314 -126.334 322 -131.001c116 -71.333 174 -177 174 -317c0 -124 -46.667 -225.333 -140 -304c-88 -74 -195 -111 -321 -111c-177.333 0 -322.333 73.333 -435 220zM787.002 1789l62 -139l-423 -169l-51 108z" />
    <glyph glyph-name="sacute" unicode="&#x15b;" horiz-adv-x="835" 
d="M55 149l136 115.001c62.667 -67.333 132.667 -101 210 -101c45.333 0 84 10.333 116 31c37.333 23.333 56 56.666 56 99.999c0 58 -43 101.667 -129 131c-150.667 52 -231 80.667 -241 86c-86 50 -129 128.333 -129 235c0 90 34.333 164.333 103 223
c64.667 55.333 143 83 235 83c130 0 237.333 -45.333 322 -136l-118 -134c-60.667 62.667 -126.667 94 -198 94c-41.333 0 -76 -10.333 -104 -31c-30.667 -23.333 -46 -55 -46 -95c0 -55.333 43 -97.333 129 -126c142.667 -47.333 223 -76.333 241 -87
c86 -51.333 129 -133 129 -245c0 -100 -36.667 -179.333 -110 -238c-67.333 -54 -152 -81 -254 -81c-142 0 -258 58.667 -348 176zM662 1481l61 -125l-395 -195l-51 97z" />
    <glyph glyph-name="Scedilla" unicode="&#x15e;" horiz-adv-x="1039" 
d="M535 -33l-31 -83c16.667 4.66699 30.667 7 42 7c42 0 75.5 -13.667 100.5 -41s37.5 -62 37.5 -104c0 -55.333 -20.333 -99.333 -61 -132c-37.333 -30.667 -84.333 -46 -141 -46c-68 0 -130.333 22.333 -187 67l56 79c42 -36 85 -54 129 -54c55.333 0 83 25.667 83 77
c0 44.667 -20.667 67 -62 67c-15.333 0 -33 -6 -53 -18l-77 24l60 159c-151.333 20 -274.666 92.333 -369.999 217l154 129c48.667 -56 90 -94.667 124 -116c45.333 -28 99.333 -42 162 -42c70 0 128 17.333 174 52c51.333 39.333 77 93 77 161
c0 90 -57.667 158.667 -173 206l-323 128c-115.333 68.667 -173 173.667 -173 315c0 114.667 45.333 208.334 136 281.001c84 66.667 185 100 303 100c173.333 0 310.666 -65.333 411.999 -196l-143 -146c-43.333 53.333 -83 90.666 -119 111.999
c-42.667 25.333 -95 38 -157 38c-63.333 0 -116 -16 -158 -48c-46.667 -35.333 -70 -83.666 -70 -144.999c0 -78 58 -140 174 -186c206.667 -82.667 314 -126.334 322 -131.001c116 -71.333 174 -177 174 -317c0 -118 -41.667 -214.667 -125 -290
c-77.333 -70.667 -176.333 -112 -297 -124z" />
    <glyph glyph-name="scedilla" unicode="&#x15f;" horiz-adv-x="835" 
d="M439 -26l-32.0039 -84.998c16.667 4 30.334 6 41.001 6c40.667 0 73.334 -13 98.001 -39s37 -59.333 37 -100c0 -54 -20.333 -96.667 -61 -128c-36.667 -28.667 -82.667 -43 -138 -43c-66 0 -127 21.333 -183 64l56 77c40.667 -35.333 82.667 -53 126 -53
c54.667 0 82 24.667 82 74c0 43.333 -20.667 65 -62 65c-14.667 0 -31.667 -5.66699 -51 -17l-75 23l60 159c-114 14 -208 71.333 -282 172l136 115c62.667 -67.333 132.667 -101 210 -101c45.333 0 84 10 116 30c37.333 24 56 57.667 56 101c0 58 -43 102 -129 132
c-151.333 51.333 -231.666 79.666 -240.999 84.999c-86 49.333 -129 127.666 -129 234.999c0 90 34.333 164.333 103 223c64.667 55.333 143 83 235 83c130 0 237.333 -45.333 322 -136l-118 -134c-60.667 62.667 -126.667 94 -198 94c-41.333 0 -76 -10.333 -104 -31
c-30.667 -23.333 -46 -55 -46 -95c0 -55.333 43 -97.333 129 -126c142.667 -47.333 223 -76.333 241 -87c86 -51.333 129 -133 129 -245c0 -93.333 -32 -168.666 -96 -225.999c-59.333 -52.667 -136.666 -83.334 -231.999 -92.001z" />
    <glyph glyph-name="Scaron" unicode="&#x160;" horiz-adv-x="1039" 
d="M61 186l154.002 128.999c49.333 -56 90.666 -94.667 123.999 -116c45.333 -28 99.333 -42 162 -42c70 0 128 17.333 174 52c51.333 38.667 77 92.334 77 161.001c0 90 -57.667 158.667 -173 206l-323 128c-115.333 68.667 -173 173.667 -173 315
c0 114.667 45.333 208.334 136 281.001c84 66.667 185 100 303 100c173.333 0 310.666 -65.333 411.999 -196l-143 -146c-43.333 53.333 -83 90.666 -119 111.999c-42.667 25.333 -95 38 -157 38c-63.333 0 -116 -16 -158 -48c-46.667 -35.333 -70 -83.666 -70 -144.999
c0 -78 58 -140 174 -186c206.667 -82.667 314 -126.334 322 -131.001c116 -71.333 174 -177 174 -317c0 -124 -46.667 -225.333 -140 -304c-88 -74 -195 -111 -321 -111c-177.333 0 -322.333 73.333 -435 220zM520.002 1481l-369 265l171 29l198 -123l197 123l171 -29z" />
    <glyph glyph-name="scaron" unicode="&#x161;" horiz-adv-x="835" 
d="M55 149l136 115.001c62.667 -67.333 132.667 -101 210 -101c45.333 0 84 10.333 116 31c37.333 23.333 56 56.666 56 99.999c0 58 -43 101.667 -129 131c-150.667 52 -231 80.667 -241 86c-86 50 -129 128.333 -129 235c0 90 34.333 164.333 103 223
c64.667 55.333 143 83 235 83c130 0 237.333 -45.333 322 -136l-118 -134c-60.667 62.667 -126.667 94 -198 94c-41.333 0 -76 -10.333 -104 -31c-30.667 -23.333 -46 -55 -46 -95c0 -55.333 43 -97.333 129 -126c142.667 -47.333 223 -76.333 241 -87
c86 -51.333 129 -133 129 -245c0 -100 -36.667 -179.333 -110 -238c-67.333 -54 -152 -81 -254 -81c-142 0 -258 58.667 -348 176zM425 1161l-348 277l161 30l187 -141l187 141l161 -30z" />
    <glyph glyph-name="Tcaron" unicode="&#x164;" horiz-adv-x="969" 
d="M584 1181v-1167l-198 -28v1195h-386l71 184h857v-184h-344zM485 1481l-369 265l171 29l198 -123l197 123l171 -29z" />
    <glyph glyph-name="tcaron" unicode="&#x165;" horiz-adv-x="673" 
d="M623 854h-287v-515c0 -118 62.333 -177 187 -177c38.667 0 84 5.66699 136 17l-37 -186c-52 -9.33301 -99.667 -14 -143 -14c-220.667 0 -331 120.333 -331 361v514h-158l71 177h87v260l188 49v-309h287v-177zM419 1183c54.667 94 82 152.667 82 176
c0 42.667 -26.333 76 -79 100l96 130c82 -64.667 123 -131 123 -199c0 -50.667 -41.667 -142.667 -125 -276z" />
    <glyph glyph-name="Umacron" unicode="&#x16a;" horiz-adv-x="1293" 
d="M348 1379v-935c0 -191.333 100 -287 300 -287c198 0 297 95.667 297 287v907l198 28v-935c0 -156 -46.667 -275.667 -140 -359c-88.667 -79.333 -212 -119 -370 -119c-154 0 -273 41.167 -357 123.5s-126 200.5 -126 354.5v907zM312 1551v135h668v-135h-668z" />
    <glyph glyph-name="umacron" unicode="&#x16b;" horiz-adv-x="1148" 
d="M1005 1038v-1024l-188 -28v142c-90 -104 -193 -156 -309 -156c-243.333 0 -365 140.333 -365 421v618l188 27v-645c0 -154 70 -231 210 -231c184 0 276 112.333 276 337v512zM263 1233v132h621v-132h-621z" />
    <glyph glyph-name="Uring" unicode="&#x16e;" horiz-adv-x="1293" 
d="M348 1379v-935c0 -191.333 100 -287 300 -287c198 0 297 95.667 297 287v907l198 28v-935c0 -156 -46.667 -275.667 -140 -359c-88.667 -79.333 -212 -119 -370 -119c-154 0 -273 41.167 -357 123.5s-126 200.5 -126 354.5v907zM643 1861
c52.667 0 98.667 -19.5 138 -58.5s59 -84.833 59 -137.5c0 -55.333 -19 -100.833 -57 -136.5s-84.667 -53.5 -140 -53.5c-52.667 0 -97.5 19 -134.5 57s-55.5 83.333 -55.5 136c0 52 18.667 97.167 56 135.5s82 57.5 134 57.5zM645 1750
c-22 0 -40.999 -8.16699 -56.999 -24.5s-24 -35.5 -24 -57.5c0 -23.333 8 -42.833 24 -58.5s35.667 -23.5 59 -23.5c54.667 0 82 26 82 78c0 22.667 -8.33301 42.667 -25 60s-36.334 26 -59.001 26z" />
    <glyph glyph-name="uring" unicode="&#x16f;" horiz-adv-x="1148" 
d="M1005 1038v-1024l-188 -28v142c-90 -104 -193 -156 -309 -156c-243.333 0 -365 140.333 -365 421v618l188 27v-645c0 -154 70 -231 210 -231c184 0 276 112.333 276 337v512zM570 1533c52.667 0 98.667 -19.5 138 -58.5s59 -84.833 59 -137.5
c0 -55.333 -19 -100.833 -57 -136.5s-84.667 -53.5 -140 -53.5c-52.667 0 -97.5 19 -134.5 57s-55.5 83.333 -55.5 136c0 52 18.667 97.167 56 135.5s82 57.5 134 57.5zM572 1422c-22 0 -40.999 -8.16699 -56.999 -24.5s-24 -35.5 -24 -57.5c0 -22.667 8.16699 -42 24.5 -58
s35.833 -24 58.5 -24c54.667 0 82 26 82 78c0 22.667 -8.33301 42.667 -25 60s-36.334 26 -59.001 26z" />
    <glyph glyph-name="Udblacute" unicode="&#x170;" horiz-adv-x="1293" 
d="M348 1379v-935c0 -191.333 100 -287 300 -287c198 0 297 95.667 297 287v907l198 28v-935c0 -156 -46.667 -275.667 -140 -359c-88.667 -79.333 -212 -119 -370 -119c-154 0 -273 41.167 -357 123.5s-126 200.5 -126 354.5v907zM1136 1789l62 -139l-423 -169l-51 108z
M696 1789l62 -139l-423 -169l-51 108z" />
    <glyph glyph-name="udblacute" unicode="&#x171;" horiz-adv-x="1148" 
d="M1005 1038v-1024l-188 -28v142c-90 -104 -193 -156 -309 -156c-243.333 0 -365 140.333 -365 421v618l188 27v-645c0 -154 70 -231 210 -231c184 0 276 112.333 276 337v512zM993 1481l61 -125l-395 -195l-51 97zM633 1481l61 -125l-395 -195l-51 97z" />
    <glyph glyph-name="Uogonek" unicode="&#x172;" horiz-adv-x="1293" 
d="M1000 -196l34 -87.001c-50 -28.667 -100.333 -43 -151 -43c-121.333 0 -182 50.333 -182 151c0 58 27 110 81 156c-50.667 -10 -100.667 -15 -150 -15c-153.333 0 -272 41.167 -356 123.5s-126 200.5 -126 354.5v907l198 28v-935c0 -191.333 100 -287 300 -287
c198 0 297 95.667 297 287v907l198 28v-935c0 -112 -25.667 -207 -77 -285c-15.333 -23.333 -62.666 -75.666 -141.999 -156.999c-51.333 -52.667 -77 -103.667 -77 -153c0 -46 22.667 -69 68 -69c25.333 0 53.666 8 84.999 24z" />
    <glyph glyph-name="uogonek" unicode="&#x173;" horiz-adv-x="1148" 
d="M1005 0c-66.667 -60 -100 -112 -100 -156c0 -45.333 22.333 -68 67 -68c24.667 0 52 7.33301 82 22l34 -83c-48.667 -27.333 -98 -41 -148 -41c-118.667 0 -178 48.667 -178 146c0 63.333 34 121 102 173l-47 -7v142c-90 -104 -193 -156 -309 -156
c-243.333 0 -365 140.333 -365 421v617l188 28v-645c0 -154 70 -231 210 -231c184 0 276 112.333 276 337v511l188 28v-1038z" />
    <glyph glyph-name="Zacute" unicode="&#x179;" horiz-adv-x="1142" 
d="M352 184h763l-52 -184h-1025l736 1193h-707l46 172h972zM863 1789l62 -139l-423 -169l-51 108z" />
    <glyph glyph-name="zacute" unicode="&#x17a;" horiz-adv-x="967" 
d="M20 0l619 856h-545l41 168h825l-622 -856h628l-50 -168h-896zM780 1481l61 -125l-395 -195l-51 97z" />
    <glyph glyph-name="Zcaron" unicode="&#x17d;" horiz-adv-x="1142" 
d="M352 184h763l-52 -184h-1025l736 1193h-707l46 172h972zM597 1481l-369 265l171 29l198 -123l197 123l171 -29z" />
    <glyph glyph-name="zcaron" unicode="&#x17e;" horiz-adv-x="967" 
d="M20 0l619 856h-545l41 168h825l-622 -856h628l-50 -168h-896zM544 1161l-348 277l161 30l187 -141l187 141l161 -30z" />
    <glyph glyph-name="caron" unicode="&#x2c7;" 
d="M512 1161l-348 277l161 30l187 -141l187 141l161 -30z" />
    <glyph glyph-name="breve" unicode="&#x2d8;" 
d="M195 1391l98.001 70c66 -102 139 -153 219 -153c80.667 0 154 51 220 153l97 -70c-84 -149.333 -189.667 -224 -317 -224c-124.667 0 -230.334 74.667 -317.001 224z" />
    <glyph glyph-name="dotaccent" unicode="&#x2d9;" 
d="M387 1318l127 159l124 -159l-124 -157z" />
    <glyph glyph-name="ogonek" unicode="&#x2db;" 
d="M808 0h131c-66.667 -59.333 -100 -111.333 -100 -156c0 -45.333 22.333 -68 67 -68c24.667 0 52 7.33301 82 22l33 -83c-48 -27.333 -97 -41 -147 -41c-118.667 0 -178 48.667 -178 146c0 72.667 37.333 132.667 112 180z" />
    <glyph glyph-name="hungarumlaut" unicode="&#x2dd;" 
d="M594 1248l301 233l69 -115l-317 -205zM273 1248l301 233l69 -115l-317 -205z" />
    <glyph glyph-name="Delta" unicode="&#x394;" horiz-adv-x="1365" 
d="M49 0l530 1365h202l536 -1365h-1268zM318 175h726l-363 962z" />
    <glyph glyph-name="Delta" unicode="&#x2206;" horiz-adv-x="1365" 
d="M49 0l530 1365h202l536 -1365h-1268zM318 175h726l-363 962z" />
    <glyph glyph-name="endash" unicode="&#x2013;" horiz-adv-x="1120" 
d="M126 431v163h867v-163h-867z" />
    <glyph glyph-name="emdash" unicode="&#x2014;" horiz-adv-x="1334" 
d="M0 431v162h1334v-162h-1334z" />
    <glyph glyph-name="quoteleft" unicode="&#x2018;" horiz-adv-x="444" 
d="M368 1297c-65.333 -86.667 -98 -142.332 -98 -166.999c0 -47.333 32.667 -84.666 98 -111.999l-118 -144c-51.333 35.333 -87 65.666 -107 90.999c-30.667 37.333 -46 80.666 -46 129.999c0 38.667 19.333 88.667 58 150l95 134z" />
    <glyph glyph-name="quoteright" unicode="&#x2019;" horiz-adv-x="444" 
d="M75 955c65.333 88 97.999 143.667 97.999 167c0 48 -32.667 85.333 -98 112l119 145c50.667 -36 86.334 -66.333 107.001 -91c30 -38 45 -81.333 45 -130c0 -38 -19.333 -88 -58 -150c-2.66699 -4 -34 -48.667 -94 -134z" />
    <glyph glyph-name="quotesinglbase" unicode="&#x201a;" horiz-adv-x="447" 
d="M75 -101l60 84.002c24 38 36 70.333 36 97c0 27.333 -10 49.666 -30 66.999c-9.33301 8 -31.333 21 -66 39l135 134c92 -56 138 -127 138 -213c0 -42.667 -20.667 -95.334 -62 -158.001c-10 -14.667 -44.667 -60 -104 -136z" />
    <glyph glyph-name="quotedblleft" unicode="&#x201c;" horiz-adv-x="763" 
d="M359 1293c-64 -98 -96 -158.335 -96 -181.002c0 -27.333 10.333 -49.666 31 -66.999c7.33301 -6.66699 29 -19.667 65 -39l-116 -135c-96.667 62.667 -145 131.334 -145 206.001c0 46 17.333 99 52 159l93 143zM687 1293l-59.999 -84c-24 -38.667 -36 -71 -36 -97
c0 -27.333 10 -49.666 30 -66.999c8.66699 -8 30.667 -21 66 -39l-134 -135c-92.667 56.667 -139 128 -139 214c0 41.333 21 93.666 63 156.999c9.33301 14.667 43.666 60 102.999 136z" />
    <glyph glyph-name="quotedblright" unicode="&#x201d;" horiz-adv-x="763" 
d="M403 957c64 95.333 96 155.667 96 181c0 38 -32 73.333 -96 106l116 135c96.667 -62.667 145 -131.667 145 -207c0 -44.667 -17.333 -97.667 -52 -159l-93 -142zM75 957.001l60 84c24 38 36 70.333 36 97c0 27.333 -10 49.666 -30 66.999c-9.33301 8 -31.333 21 -66 39
l135 135c92 -57.333 138 -128.666 138 -213.999c0 -42 -20.667 -94.667 -62 -158c-10 -14.667 -44.667 -60 -104 -136z" />
    <glyph glyph-name="quotedblbase" unicode="&#x201e;" horiz-adv-x="763" 
d="M403 -101c64 95.333 96 155.334 96 180.001c0 28 -10 50.667 -30 68l-66 39l116 134c96.667 -62.667 145 -131.334 145 -206.001c0 -45.333 -17.333 -98.333 -52 -159l-93 -142zM75 -100.999l60 84.002c24 38 36 70.333 36 97c0 27.333 -10 49.666 -30 66.999
c-9.33301 8 -31.333 21 -66 39l135 134c92 -56 138 -127 138 -213c0 -42.667 -20.667 -95.334 -62 -158.001c-10 -14.667 -44.667 -60 -104 -136z" />
    <glyph glyph-name="dagger" unicode="&#x2020;" horiz-adv-x="1120" 
d="M467 -355v1154h-329l34 169h295v383l185 28v-411h329l-34 -169h-295v-1127z" />
    <glyph glyph-name="daggerdbl" unicode="&#x2021;" horiz-adv-x="1120" 
d="M467 799h-329l34 169h295v383l185 28v-411h329l-34 -169h-295v-574h329l-34 -169h-295v-384l-185 -27v411h-329l34 169h295v574z" />
    <glyph glyph-name="bullet" unicode="&#x2022;" horiz-adv-x="1365" 
d="M689 978c77.333 0 143.333 -28 198 -84s82 -122.667 82 -200c0 -78.667 -27.667 -145.667 -83 -201s-122.333 -83 -201 -83c-78 0 -144.833 27.667 -200.5 83s-83.5 122 -83.5 200c0 80 28 147.5 84 202.5s124 82.5 204 82.5z" />
    <glyph glyph-name="ellipsis" unicode="&#x2026;" horiz-adv-x="1616" 
d="M270 -45l-140 181l140 183l139 -183zM809 -45l-140 181l140 183l139 -183zM1347 -45l-140 181l140 183l139 -183z" />
    <glyph glyph-name="perthousand" unicode="&#x2030;" horiz-adv-x="2361" 
d="M330 13l599 1120c-38.667 -20 -71.667 -30 -99 -30c-28.667 0 -64 10 -106 30c3.33301 -24.667 5 -45.334 5 -62.001c0 -96 -32 -176 -96 -240s-143.667 -96 -239 -96c-92 0 -169.333 31.333 -232 94s-94 140 -94 232c0 90 31.667 167.5 95 232.5s140 97.5 230 97.5
c58.667 0 132.5 -27.667 221.5 -83s161.833 -83 218.5 -83c60 0 111 17 153 51c14.667 12.667 50.667 53 108 121l104 -30l-742 -1385zM396 1248c-50.667 0 -93.999 -18 -129.999 -54s-54 -79.333 -54 -130c0 -53.333 18 -98 54 -134s80.667 -54 134 -54
s97.5 17.5 132.5 52.5s52.5 79.167 52.5 132.5c0 52 -18.333 96.167 -55 132.5s-81.334 54.5 -134.001 54.5zM1123 633.001c91.333 0 169.166 -32.1689 233.499 -96.502s96.5 -142.166 96.5 -233.499c0 -93.333 -32.167 -172.166 -96.5 -236.499
s-143.166 -96.5 -236.499 -96.5c-94 0 -172.667 32.5 -236 97.5s-95 144.833 -95 239.5c0 91.333 32.833 168.5 98.5 231.5s144.167 94.5 235.5 94.5zM1122 487.999c-50.667 0 -94.5 -18 -131.5 -54s-55.5 -79.333 -55.5 -130c0 -52 18.167 -96.667 54.5 -134
s80.5 -56 132.5 -56s95.833 18.667 131.5 56s53.5 82 53.5 134c0 50.667 -18.167 94 -54.5 130s-79.833 54 -130.5 54zM1917 632.999c92 0 170.167 -32.001 234.5 -96.001s96.5 -142 96.5 -234c0 -93.333 -32.333 -172.166 -97 -236.499s-143.667 -96.5 -237 -96.5
c-94 0 -172.667 32.5 -236 97.5s-95 144.833 -95 239.5c0 91.333 32.833 168.5 98.5 231.5s144.167 94.5 235.5 94.5zM1916 487.998c-50.667 0 -94.499 -18 -131.499 -54s-55.5 -79.333 -55.5 -130c0 -52 18.167 -96.667 54.5 -134s80.5 -56 132.5 -56s96 18.667 132 56
s54 82 54 134c0 50.667 -18.333 94 -55 130s-80.334 54 -131.001 54z" />
    <glyph glyph-name="guilsinglleft" unicode="&#x2039;" horiz-adv-x="567" 
d="M386 811l79 -82l-212 -226l212 -213l-79 -77l-297 290z" />
    <glyph glyph-name="guilsinglright" unicode="&#x203a;" horiz-adv-x="567" 
d="M181 213l-79 82l212 226l-212 213l79 77l297 -290z" />
    <glyph glyph-name="trademark" unicode="&#x2122;" horiz-adv-x="1933" 
d="M457 1205v-677l-181 -21v698h-274l66 160h624v-160h-235zM989 961l-108 -453l-181 21l218 881l349 -609l350 609l218 -881l-184 -21l-109 453l-275 -484z" />
    <glyph glyph-name="summation" unicode="&#x2211;" horiz-adv-x="1365" 
d="M1239 1536v-484h-169l-19 308h-788l515 -809l-515 -888h807l11 305h177v-480h-1206v195l505 868l-505 791v194h1187z" />
    <glyph glyph-name="radical" unicode="&#x221a;" horiz-adv-x="1365" 
d="M1365 1699v-175h-389l-408 -1524h-239l-151 593h-178v175h332c48.667 -182.667 85.667 -357.667 111 -525h14c34 206.667 87.667 450.667 161 732l195 724h552z" />
    <glyph glyph-name="lessequal" unicode="&#x2264;" 
d="M955 1289v-179l-687 -308l687 -309v-178l-887 404v160zM955 255v-175h-887v175h887z" />
    <glyph glyph-name="greaterequal" unicode="&#x2265;" 
d="M68 315v178l687 309l-687 308v179l887 -410v-161zM68 80v175h887v-175h-887z" />
    <glyph glyph-name="lozenge" unicode="&#x25ca;" horiz-adv-x="1365" 
d="M683 1419l532 -736l-532 -736l-532 736zM683 1237l-404 -554l404 -555l403 555z" />
    <glyph glyph-name=".null" horiz-adv-x="0" 
 />
    <glyph glyph-name="nonmarkingreturn" horiz-adv-x="512" 
 />
    <glyph glyph-name="Otilde" horiz-adv-x="1591" 
d="M794 1399c202.667 0 372.834 -68.668 510.501 -206.001s206.5 -307.333 206.5 -510c0 -207.333 -68.667 -378.666 -206 -513.999s-310 -203 -518 -203c-198.667 0 -366.334 69.333 -503.001 208s-205 307.667 -205 507c0 202.667 68.667 373 206 511s307 207 509 207z
M795 1208c-143.333 0 -264.335 -51.334 -363.002 -154.001s-148 -226 -148 -370c0 -142 48 -264.667 144 -368c98.667 -106 218.334 -159 359.001 -159c146.667 0 269.834 49.833 369.501 149.5s149.5 222.834 149.5 369.501c0 144 -48.667 268 -146 372
c-100 106.667 -221.667 160 -365 160zM1256 1789l62 -139l-423 -169l-51 108zM815.998 1789l62 -139l-423 -169l-51 108z" />
    <glyph glyph-name="Ucircumflex" horiz-adv-x="1293" 
d="M348 1379v-935c0 -191.333 100 -287 300 -287c198 0 297 95.667 297 287v907l198 28v-935c0 -156 -46.667 -275.667 -140 -359c-88.667 -79.333 -212 -119 -370 -119c-154 0 -273 41.167 -357 123.5s-126 200.5 -126 354.5v907zM1136 1789l62 -139l-423 -169l-51 108z
M696 1789l62 -139l-423 -169l-51 108z" />
    <glyph glyph-name="otilde" horiz-adv-x="1242" 
d="M621 1052c158.667 0 289.832 -52.167 393.499 -156.5s155.5 -235.833 155.5 -394.5c0 -152 -53.167 -278 -159.5 -378s-235.833 -150 -388.5 -150c-154 0 -284.167 51.333 -390.5 154s-159.5 230.667 -159.5 384c0 152 53.333 280.167 160 384.5
s236.334 156.5 389.001 156.5zM621.998 876c-99.333 0 -183.498 -34.333 -252.498 -103s-103.5 -152.667 -103.5 -252c0 -105.333 34.667 -191.333 104 -258s156.666 -100 261.999 -100c98.667 0 180.667 33 246 99s98 148.333 98 247c0 102.667 -33.333 189.5 -100 260.5
s-151.334 106.5 -254.001 106.5zM993 1481l61 -125l-395 -195l-51 97zM633 1481l61 -125l-395 -195l-51 97z" />
    <glyph glyph-name="ucircumflex" horiz-adv-x="1148" 
d="M1005 1038v-1024l-188 -28v142c-90 -104 -193 -156 -309 -156c-243.333 0 -365 140.333 -365 421v618l188 27v-645c0 -154 70 -231 210 -231c184 0 276 112.333 276 337v512zM993 1481l61 -125l-395 -195l-51 97zM633 1481l61 -125l-395 -195l-51 97z" />
    <glyph glyph-name="glyph233" horiz-adv-x="512" 
 />
    <glyph glyph-name="glyph234" horiz-adv-x="512" 
 />
    <glyph glyph-name="glyph226" horiz-adv-x="512" 
 />
    <glyph glyph-name="glyph227" horiz-adv-x="512" 
 />
    <glyph glyph-name="glyph228" horiz-adv-x="512" 
 />
    <glyph glyph-name="glyph229" horiz-adv-x="512" 
 />
    <glyph glyph-name="glyph235" horiz-adv-x="512" 
 />
    <glyph glyph-name="glyph246" horiz-adv-x="512" 
 />
    <glyph glyph-name="glyph236" horiz-adv-x="512" 
 />
    <glyph glyph-name="glyph237" horiz-adv-x="512" 
 />
    <glyph glyph-name="glyph249" horiz-adv-x="512" 
 />
    <glyph glyph-name="glyph230" horiz-adv-x="512" 
 />
    <glyph glyph-name="glyph231" horiz-adv-x="512" 
 />
    <glyph glyph-name="glyph242" horiz-adv-x="512" 
 />
    <glyph glyph-name="glyph243" horiz-adv-x="512" 
 />
    <glyph glyph-name="glyph239" horiz-adv-x="512" 
 />
    <glyph glyph-name="glyph244" horiz-adv-x="512" 
 />
    <glyph glyph-name="glyph241" horiz-adv-x="512" 
 />
    <glyph glyph-name="glyph240" horiz-adv-x="512" 
 />
    <glyph glyph-name="glyph232" horiz-adv-x="512" 
 />
    <glyph glyph-name="glyph238" horiz-adv-x="512" 
 />
    <glyph glyph-name="Edotaccent" horiz-adv-x="1079" 
d="M164 0v1365h766l41 -184h-609v-381h496v-184h-496v-432h663l-54 -184h-807zM564 1475l-135 163l135 164l134 -164z" />
    <glyph glyph-name="edotaccent" horiz-adv-x="1120" 
d="M1014 331l40.001 -200.999c-138 -104.667 -280.667 -157 -428 -157c-152 0 -282.333 51.667 -391 155s-163 230.666 -163 381.999c0 152 52.167 280.333 156.5 385s232.5 157 384.5 157c209.333 0 364.666 -94 465.999 -282l-745 -439c68.667 -112 166 -168 292 -168
c114.667 0 244 56 388 168zM272.001 495.001l526.999 311c-50 46.667 -113 70 -189 70c-92.667 0 -173.667 -34.5 -243 -103.5s-101.666 -148.5 -96.999 -238.5zM469 1318l127 159l124 -159l-124 -157z" />
    <glyph glyph-name="gcommaaccent" horiz-adv-x="1011" 
d="M183 14c80 -119.333 176.666 -179.001 289.999 -179.001c71.333 0 133 20 185 60c57.333 43.333 86 99.333 86 168c0 72.667 -30 131 -90 175c-53.333 39.333 -117.666 59 -192.999 59c-67.333 0 -147.333 -25 -240 -75l46 145c-145.333 60 -218 166.667 -218 320
c0 94.667 32 176.667 96 246c50 54 111.667 91 185 111c46 12.667 115.333 21.334 208 26.001c98.667 4.66699 171 12.334 217 23.001c72.667 16 137.667 38.667 195 68l-48 -203l-120 -25c78 -66.667 117 -149.334 117 -248.001c0 -142.667 -68.333 -241.667 -205 -297
c162.667 -65.333 244 -179.333 244 -342c0 -123.333 -47 -221.333 -141 -294c-86 -66.667 -192.667 -100 -320 -100c-190 0 -335.667 82 -437 246zM477.999 898.999c-64 0 -118.667 -19.668 -164 -59.001c-47.333 -42 -71 -94.333 -71 -157c0 -63.333 22 -115.833 66 -157.5
s97.667 -62.5 161 -62.5s118.333 21.333 165 64s70 95.334 70 158.001c0 62 -22.167 113.167 -66.5 153.5s-97.833 60.5 -160.5 60.5zM603.999 1514c-53.333 -72.667 -80 -118.333 -80 -137c0 -42.667 26.667 -76 80 -100l-96 -130c-82.667 64 -124 130 -124 198
c0 38 14.667 81.333 44 130c6.66699 10 33.667 47.667 81 113z" />
    <glyph glyph-name="Kcommaaccent" horiz-adv-x="1157" 
d="M362 702l604 715l178 -83l-545 -632l545 -661l-204 -68l-578 707v-666l-198 -28v1366l198 27v-677zM498 -456c52.667 73.333 79 119.001 79 137.001c0 41.333 -26.333 74.666 -79 99.999l96 130c82 -64.667 123 -130.667 123 -198c0 -44 -41.333 -125 -124 -243z" />
    <glyph glyph-name="Lcommaaccent" horiz-adv-x="955" 
d="M150 0v1351l198 28v-1195h607l-82 -184h-723zM418 -456c52.667 73.333 79 119.001 79 137.001c0 41.333 -26.333 74.666 -79 99.999l96 130c82 -64.667 123 -130.667 123 -198c0 -44 -41.333 -125 -124 -243z" />
    <glyph glyph-name="lcommaaccent" horiz-adv-x="475" 
d="M144 -14v1407l188 27v-1407zM130 -456c52.667 73.333 79 119.001 79 137.001c0 41.333 -26.333 74.666 -79 99.999l96 130c82 -64.667 123 -130.667 123 -198c0 -44 -41.333 -125 -124 -243z" />
    <glyph glyph-name="Ncommaaccent" horiz-adv-x="1424" 
d="M362 935v-921l-198 -28v1436l898 -979v909l198 27v-1427zM604 -456c52.667 73.333 79 119.001 79 137.001c0 41.333 -26.333 74.666 -79 99.999l96 130c82 -64.667 123 -130.667 123 -198c0 -44 -41.333 -125 -124 -243z" />
    <glyph glyph-name="ncommaaccent" horiz-adv-x="1154" 
d="M143 -14l0.000976562 1025l188 27v-141c81.333 103.333 184.666 155 309.999 155c246 0 369 -140 369 -420v-618l-188 -28v646c0 82 -13.667 141.667 -41 179c-32 43.333 -88.333 65 -169 65c-90 0 -160 -28 -210 -84c-47.333 -54 -71 -126.333 -71 -217v-561z
M462.001 -456c52.667 73.333 79 119.001 79 137.001c0 41.333 -26.333 74.666 -79 99.999l96 130c82 -64.667 123 -130.667 123 -198c0 -44 -41.333 -125 -124 -243z" />
    <glyph glyph-name="glyph172" horiz-adv-x="1120" 
 />
    <glyph glyph-name="Rcommaaccent" horiz-adv-x="1103" 
d="M362 650l0.000976562 -636l-198 -28v1379c89.333 6.66699 185.666 10 288.999 10c148 0 267 -30 357 -90c106.667 -70 160 -175.667 160 -317c0 -102 -28.833 -185.167 -86.5 -249.5s-137.167 -105.833 -238.5 -124.5l418 -564l-212 -60zM362.001 1186v-479h82
c86 0 156.333 19.667 211 59c62.667 45.333 94 109.333 94 192c0 81.333 -31.667 142.333 -95 183c-53.333 34.667 -123 52 -209 52c-23.333 0 -51 -2.33301 -83 -7zM471.001 -456c52.667 73.333 79 119.001 79 137.001c0 41.333 -26.333 74.666 -79 99.999l96 130
c82 -64.667 123 -130.667 123 -198c0 -44 -41.333 -125 -124 -243z" />
    <glyph glyph-name="rcommaaccent" horiz-adv-x="759" 
d="M670 861l-45.001 1.99902c-196 8.66699 -294 -152.666 -294 -483.999v-365l-188 -28v1025l188 27v-208c77.333 153.333 194 230 350 230c18.667 0 44.334 -2.66699 77.001 -8zM145.999 -456.001c52.667 73.333 79 119.001 79 137.001c0 41.333 -26.333 74.666 -79 99.999
l96 130c82 -64.667 123 -130.667 123 -198c0 -44 -41.333 -125 -124 -243z" />
    <glyph glyph-name="kcommaaccent" horiz-adv-x="1008" 
d="M331 517v-503l-188 -28v1407l188 27v-863l446 517l160 -98l-385 -419l435 -483l-162 -106zM423 -456c52.667 73.333 79 119.001 79 137.001c0 41.333 -26.333 74.666 -79 99.999l96 130c82 -64.667 123 -130.667 123 -198c0 -44 -41.333 -125 -124 -243z" />
    <glyph glyph-name="Gcommaaccent" horiz-adv-x="1507" 
d="M737 589l64.999 184.001h575v-618c-178 -126 -363.667 -189 -557 -189c-200 0 -372.667 68 -518 204c-148.667 139.333 -223 308.666 -223 507.999c0 206 74.667 378.667 224 518c146 135.333 322.667 203 530 203c188.667 0 361.334 -62 518.001 -186l-127 -145
c-115.333 93.333 -242.333 140 -381 140c-152.667 0 -283 -48 -391 -144c-112 -100 -168 -226 -168 -378c0 -150 54 -276.333 162 -379c106 -100.667 234.333 -151 385 -151c116 0 232 36.667 348 110v323h-442zM674.999 -455.999c52.667 73.333 79 119.001 79 137.001
c0 41.333 -26.333 74.666 -79 99.999l96 130c82 -64.667 123 -130.667 123 -198c0 -44 -41.333 -125 -124 -243z" />
    <glyph glyph-name="glyph245" horiz-adv-x="512" 
 />
    <glyph glyph-name="glyph246" horiz-adv-x="512" 
 />
    <glyph glyph-name="glyph247" horiz-adv-x="512" 
 />
    <glyph glyph-name="glyph248" horiz-adv-x="512" 
 />
    <glyph glyph-name="glyph249" horiz-adv-x="512" 
 />
    <glyph glyph-name="glyph250" horiz-adv-x="512" 
 />
    <glyph glyph-name="glyph251" horiz-adv-x="512" 
 />
    <glyph glyph-name="glyph252" horiz-adv-x="512" 
 />
    <glyph glyph-name="glyph253" horiz-adv-x="512" 
 />
    <glyph glyph-name="glyph254" horiz-adv-x="512" 
 />
    <glyph glyph-name="glyph255" horiz-adv-x="512" 
 />
    <glyph glyph-name="glyph256" horiz-adv-x="512" 
 />
    <glyph glyph-name="glyph257" horiz-adv-x="512" 
 />
    <glyph glyph-name="glyph288" 
d="M181 1691l97.998 70c70 -83.333 147.667 -125 233 -125s163 41.667 233 125l98 -70c-89.333 -135.333 -199.666 -203 -330.999 -203s-241.666 67.667 -330.999 203z" />
    <glyph glyph-name="glyph289" 
d="M513 1475l-135 163l135 164l134 -164z" />
    <glyph glyph-name="glyph290" 
d="M512 1782l368 -264l-171 -30l-197 124l-198 -124l-171 30z" />
    <glyph glyph-name="glyph291" 
d="M768 1399l94.002 -75c-56.667 -83.333 -127.667 -125 -213 -125c-36.667 0 -82.167 12.333 -136.5 37s-94.5 37 -120.5 37c-48.667 0 -94 -24.333 -136 -73l-94 72c59.333 89.333 136.666 134 231.999 134c36.667 0 82.167 -12.167 136.5 -36.5
s92.166 -36.5 113.499 -36.5c46 0 87.333 22 124 66z" />
    <glyph glyph-name="glyph292" 
d="M404 -456c52.667 73.333 79 119.001 79 137.001c0 41.333 -26.333 74.666 -79 99.999l96 130c82 -64.667 123 -130.667 123 -198c0 -44 -41.333 -125 -124 -243z" />
    <glyph glyph-name="glyph293" 
d="M767 1789l62 -139l-423 -169l-51 108z" />
    <glyph glyph-name="glyph294" 
d="M512 1481l-369 265l171 29l198 -123l197 123l171 -29z" />
    <glyph glyph-name="glyph295" 
d="M509 1861c52.667 0 98.667 -19.5 138 -58.5s59 -84.833 59 -137.5c0 -55.333 -19 -100.833 -57 -136.5s-84.667 -53.5 -140 -53.5c-52.667 0 -97.5 19 -134.5 57s-55.5 83.333 -55.5 136c0 52 18.667 97.167 56 135.5s82 57.5 134 57.5zM511 1750
c-22 0 -40.999 -8.16699 -56.999 -24.5s-24 -35.5 -24 -57.5c0 -23.333 8 -42.833 24 -58.5s35.667 -23.5 59 -23.5c54.667 0 82 26 82 78c0 22.667 -8.33301 42.667 -25 60s-36.334 26 -59.001 26z" />
    <glyph glyph-name="glyph296" 
d="M312 1475l-135 163l135 164l134 -164zM713 1475l-136 163l136 164l133 -164z" />
    <glyph glyph-name="glyph297" 
d="M404 -456c52.667 73.333 79 119.001 79 137.001c0 41.333 -26.333 74.666 -79 99.999l96 130c82 -64.667 123 -130.667 123 -198c0 -44 -41.333 -125 -124 -243z" />
    <glyph glyph-name="glyph298" 
d="M512 1475l348 -278l-161 -30l-187 142l-187 -142l-161 30z" />
    <glyph glyph-name="glyph299" 
d="M202 1233v132h621v-132h-621z" />
    <glyph glyph-name="glyph300" 
d="M641 1575l342 214l69 -127l-358 -181zM238 1575l342 214l69 -127l-358 -181z" />
    <glyph glyph-name="glyph301" 
d="M777 1720l98.0029 -77c-62.667 -84.667 -139.334 -127 -230.001 -127c-34.667 0 -78.834 12.5 -132.501 37.5s-94.834 37.5 -123.501 37.5c-49.333 0 -97 -25 -143 -75l-96 74c63.333 91.333 143.333 137 240 137c37.333 0 84 -12.5 140 -37.5s95 -37.5 117 -37.5
c46.667 0 90 22.667 130 68z" />
    <glyph glyph-name="glyph302" 
d="M178 1551v135h668v-135h-668z" />
    <glyph glyph-name="glyph303" 
d="M509 1533c52.667 0 98.667 -19.5 138 -58.5s59 -84.833 59 -137.5c0 -55.333 -19 -100.833 -57 -136.5s-84.667 -53.5 -140 -53.5c-52.667 0 -97.5 19 -134.5 57s-55.5 83.333 -55.5 136c0 52 18.667 97.167 56 135.5s82 57.5 134 57.5zM511 1422
c-22 0 -40.999 -8.16699 -56.999 -24.5s-24 -35.5 -24 -57.5c0 -22.667 8.16699 -42 24.5 -58s35.833 -24 58.5 -24c54.667 0 82 26 82 78c0 22.667 -8.33301 42.667 -25 60s-36.334 26 -59.001 26z" />
    <glyph glyph-name="glyph304" 
d="M656 1014c54.667 94 82 152.667 82 176c0 42.667 -26.333 76 -79 100l96 130c82 -64.667 123 -131 123 -199c0 -50.667 -41.667 -142.667 -125 -276z" />
    <glyph glyph-name="glyph305" 
d="M620 1514c-53.333 -72.667 -80 -118.333 -80 -137c0 -42.667 26.667 -76 80 -100l-96 -130c-82.667 64 -124 130 -124 198c0 38 14.667 81.333 44 130c6.66699 10 33.667 47.667 81 113z" />
    <glyph glyph-name="glyph306" 
d="M629 987c54.667 94 82 152.667 82 176c0 42 -26.333 75 -79 99l96 130c82 -64.667 123 -130.667 123 -198c0 -50 -41.667 -142.333 -125 -277z" />
    <glyph glyph-name="glyph307" horiz-adv-x="512" 
 />
    </font>
</defs>
</svg>
