<?xml version="1.0" standalone="no"?>
<!DOCTYPE svg PUBLIC "-//W3C//DTD SVG 1.1//EN" "http://www.w3.org/Graphics/SVG/1.1/DTD/svg11.dtd" >
<svg xmlns="http://www.w3.org/2000/svg">
<metadata></metadata>
<defs>
<font id="steelfishregular" horiz-adv-x="520" >
<font-face units-per-em="2048" ascent="1743" descent="-305" />
<missing-glyph horiz-adv-x="233" />
<glyph horiz-adv-x="2048" />
<glyph horiz-adv-x="2048" />
<glyph unicode="&#xd;" horiz-adv-x="233" />
<glyph horiz-adv-x="233" />
<glyph unicode=" "  horiz-adv-x="233" />
<glyph unicode="&#x09;" horiz-adv-x="233" />
<glyph unicode="&#xa0;" horiz-adv-x="233" />
<glyph unicode="!" horiz-adv-x="274" d="M69 862v554h138v-552l-28 -590h-84zM71 0v187h134v-187h-134z" />
<glyph unicode="&#x22;" horiz-adv-x="441" d="M53 1263v153h121v-153l-26 -239h-69zM268 1263v153h121v-153l-26 -239h-69z" />
<glyph unicode="#" horiz-adv-x="678" d="M36 509v112h124l34 211h-128v112h147l78 472h95l-82 -472h145l79 472h93l-81 -472h103v-112h-120l-36 -211h124v-112h-143l-84 -509h-92l87 509h-147l-86 -509h-89l84 509h-105zM251 621h145l36 211h-146z" />
<glyph unicode="$" horiz-adv-x="491" d="M53 248v271h100v-212q0 -73 9.5 -118t57.5 -53v512q-38 38 -65 66t-47 51q-31 40 -43 82.5t-12 117.5v203q0 109 42.5 165t122.5 64v98h54v-98q84 -8 122.5 -63.5t38.5 -165.5v-229h-98v205q0 56 -11 91.5t-56 44.5v-500q28 -25 57 -49t54 -53q33 -41 46 -95.5t13 -145.5 v-189q0 -104 -41 -164t-125 -69v-104h-54v106q-85 8 -125 67.5t-40 163.5zM153 963q0 -47 16.5 -81t50.5 -66v464q-36 -7 -51.5 -33.5t-15.5 -71.5v-212zM268 136q65 10 65 102v185q0 73 -13 115.5t-52 77.5v-480z" />
<glyph unicode="%" horiz-adv-x="825" d="M53 0l623 1416h88l-622 -1416h-89zM54 838v483q0 120 116 120q117 0 117 -120v-483q0 -120 -117 -121q-115 0 -116 121zM134 836q0 -39 36 -40q38 0 38 40v487q0 39 -38 39q-36 0 -36 -39v-487zM537 95v483q0 120 116 120q117 0 117 -120v-483q0 -120 -117 -121 q-115 0 -116 121zM617 93q0 -39 36 -40q38 0 38 40v487q0 39 -38 39q-36 0 -36 -39v-487z" />
<glyph unicode="&#x26;" horiz-adv-x="646" d="M46 279v98q0 59 7 106t21.5 90t39.5 84t62 88q-32 84 -49 140t-25.5 95.5t-10.5 69.5t-2 61v86q0 123 43.5 177t141.5 54q51 0 85.5 -16.5t55 -46.5t30 -72t9.5 -92v-100q0 -57 -11 -105t-31 -93t-47.5 -88.5t-62.5 -92.5l164 -464q20 46 27.5 101.5t7.5 110.5v55h100 v-60q0 -95 -18.5 -183t-59.5 -154q7 -5 18 -10t25 -5q36 0 51 23v-123q-13 -8 -32 -14t-52 -6q-31 0 -54 10t-39 28q-29 -24 -69.5 -35t-88.5 -11q-72 0 -118 18t-71.5 55t-36 92t-10.5 129zM174 281q0 -95 24.5 -134.5t93.5 -39.5q64 0 99 29l-166 476q-15 -24 -25.5 -46.5 t-15.5 -48.5t-7.5 -59t-2.5 -76v-101zM202 1105q0 -66 15 -130.5t39 -127.5q40 51 66.5 115t26.5 153v72q0 49 -15.5 82t-54.5 33q-41 0 -59 -26.5t-18 -81.5v-89z" />
<glyph unicode="'" horiz-adv-x="226" d="M53 1263v153h121v-153l-26 -239h-69z" />
<glyph unicode="(" horiz-adv-x="440" d="M128 160v1096q0 156 64 226.5t197 70.5h13v-96h-13q-86 0 -126.5 -49t-40.5 -152v-1096q0 -105 40 -154t127 -49h13v-95h-13q-133 0 -197 70.5t-64 227.5z" />
<glyph unicode=")" horiz-adv-x="440" d="M128 -43h13q86 0 126.5 49t40.5 154v1096q0 103 -40.5 152t-126.5 49h-13v96h13q133 0 197 -70.5t64 -226.5v-1096q0 -157 -64 -227.5t-197 -70.5h-13v95z" />
<glyph unicode="*" horiz-adv-x="576" d="M26 1195l25 78l205 -78l-12 221h84l-11 -221l206 80l24 -80l-212 -58l138 -170l-66 -48l-121 184l-119 -184l-65 48l136 170z" />
<glyph unicode="+" horiz-adv-x="794" d="M64 673v98h285v283h98v-283h285v-98h-285v-287h-98v287h-285z" />
<glyph unicode="," horiz-adv-x="230" d="M53 38v177h124v-222q0 -44 -21.5 -70t-71.5 -26h-13v57h10q29 0 29 31v53h-57z" />
<glyph unicode="-" horiz-adv-x="312" d="M23 662v102h271v-102h-271z" />
<glyph unicode="." horiz-adv-x="228" d="M53 0v215h123v-215h-123z" />
<glyph unicode="/" horiz-adv-x="414" d="M10 0l297 1416h95l-295 -1416h-97z" />
<glyph unicode="0" horiz-adv-x="563" d="M53 225v965q0 119 55.5 180t173.5 61q119 0 174 -60.5t55 -180.5v-965q0 -118 -55 -179t-174 -61q-118 0 -173.5 61t-55.5 179zM184 222q0 -110 98 -110q100 0 100 110v970q0 110 -100 110q-98 0 -98 -110v-970z" />
<glyph unicode="1" horiz-adv-x="302" d="M29 1184v127h38q28 0 39.5 14.5t11.5 48.5v42h116v-1416h-129v1184h-76z" />
<glyph unicode="2" horiz-adv-x="530" d="M46 0v260q0 60 3.5 107.5t16.5 90.5t39 87.5t69 101.5q57 75 92.5 127t56.5 92t28 79t7 89v151q0 114 -93 114q-53 0 -71 -29t-18 -86v-245h-130v245q0 131 53.5 189t165.5 58q113 0 168.5 -60t55.5 -187v-158q0 -57 -10.5 -107t-29.5 -96.5t-49 -92t-68 -95.5 q-53 -67 -84 -114.5t-46.5 -87t-20 -80t-4.5 -93.5v-131h312v-129h-443z" />
<glyph unicode="3" horiz-adv-x="532" d="M45 223v279h132v-279q0 -51 20.5 -80.5t68.5 -29.5q50 0 72 29.5t22 82.5v324q0 57 -18.5 84t-76.5 27h-67v123h74q53 0 69.5 28t16.5 84v292q0 59 -19 85.5t-73 26.5q-51 0 -70 -26.5t-19 -85.5v-250h-129v250q0 129 52.5 186.5t165.5 57.5q114 0 165.5 -57.5 t51.5 -188.5v-304q0 -69 -25.5 -105t-75.5 -55q48 -12 76.5 -47.5t28.5 -112.5v-336q0 -108 -53 -174t-168 -66q-111 0 -166 65t-55 173z" />
<glyph unicode="4" horiz-adv-x="548" d="M17 291v113l318 1012h124v-1001h69v-124h-69v-291h-120v291h-322zM134 415h205l4 667z" />
<glyph unicode="5" horiz-adv-x="543" d="M53 701l18 715h412v-132h-294l-15 -457q19 30 53 50.5t95 20.5q82 0 126 -50t44 -168v-458q0 -120 -51.5 -178.5t-164.5 -58.5q-221 0 -221 237v297h127v-297q0 -109 94 -109q91 0 90 110v458q0 100 -94 100q-82 0 -103 -86z" />
<glyph unicode="6" horiz-adv-x="548" d="M53 223v967q0 114 55.5 177.5t167.5 63.5q113 0 164 -63.5t51 -177.5v-244h-126v244q0 52 -21.5 80.5t-67.5 28.5q-45 0 -68.5 -28.5t-23.5 -80.5v-373q17 31 49.5 52t88.5 21q91 0 134 -52.5t43 -173.5v-439q0 -113 -55 -176.5t-168 -63.5q-112 0 -167.5 63.5 t-55.5 174.5zM184 256q0 -67 19 -105t73 -38q49 0 70.5 29.5t21.5 82.5v410q0 66 -21.5 97.5t-70.5 31.5q-42 0 -65.5 -22.5t-26.5 -61.5v-424z" />
<glyph unicode="7" horiz-adv-x="494" d="M24 1284v132h447v-122q-57 -128 -99 -265.5t-68.5 -295t-40.5 -339t-14 -394.5h-131q0 294 28 513t64 375t74.5 252.5t63.5 143.5h-324z" />
<glyph unicode="8" horiz-adv-x="541" d="M48 220v339q0 78 29.5 117.5t75.5 54.5q-43 17 -68.5 54t-25.5 110v292q0 118 48.5 181t160.5 63q113 0 161.5 -63t48.5 -181v-292q0 -73 -25 -110t-67 -54q44 -15 74.5 -54.5t30.5 -117.5v-339q0 -115 -54.5 -175t-168.5 -60q-112 0 -166 60t-54 175zM177 222 q0 -56 20.5 -82.5t70.5 -26.5t71.5 27t21.5 82v346q0 48 -21.5 70t-71.5 22q-92 0 -91 -92v-346zM179 877q0 -50 20.5 -72t68.5 -22q92 0 92 94v310q0 60 -18.5 86t-73.5 26q-53 0 -71 -26t-18 -86v-310z" />
<glyph unicode="9" horiz-adv-x="548" d="M50 773v417q0 117 55 179t165 62q114 0 169 -62t55 -177v-967q0 -113 -55 -176.5t-169 -63.5q-105 0 -162 63.5t-57 176.5v245h128v-245q0 -53 23 -82.5t68 -29.5q47 0 70 29.5t23 82.5v394q-17 -31 -49.5 -50.5t-86.5 -19.5q-93 0 -135 51.5t-42 172.5zM179 780 q0 -102 91 -102q43 0 66.5 22t26.5 62v427q0 58 -22.5 84t-70.5 26q-47 0 -69 -24t-22 -86v-409z" />
<glyph unicode=":" horiz-adv-x="228" d="M53 0v215h123v-215h-123zM53 630v213h123v-213h-123z" />
<glyph unicode=";" horiz-adv-x="230" d="M53 38v177h124v-222q0 -44 -21.5 -70t-71.5 -26h-13v57h10q29 0 29 31v53h-57zM53 630v213h123v-213h-123z" />
<glyph unicode="&#x3c;" horiz-adv-x="794" d="M64 660v121l668 220v-100l-568 -177l568 -187v-99z" />
<glyph unicode="=" horiz-adv-x="794" d="M64 511v100h668v-100h-668zM64 832v100h668v-100h-668z" />
<glyph unicode="&#x3e;" horiz-adv-x="794" d="M64 438v99l569 187l-569 177v100l668 -220v-121z" />
<glyph unicode="?" horiz-adv-x="514" d="M41 939v248q0 126 51.5 185t165.5 59q112 0 164.5 -59t52.5 -187v-148q0 -105 -20 -168.5t-64 -116.5q-31 -35 -48.5 -59.5t-26.5 -49t-11.5 -53.5t-2.5 -74v-194h-121v190q0 50 4 89t14.5 71t27.5 61t43 58q25 28 40 50.5t23 47t10.5 59t2.5 89.5v150q0 112 -88 112 q-92 0 -91 -110v-250h-126zM181 0v215h121v-215h-121z" />
<glyph unicode="@" horiz-adv-x="885" d="M50 251v601q0 213 94 304t296 91q196 0 286.5 -86.5t90.5 -275.5v-525q0 -81 -39.5 -133.5t-111.5 -52.5q-46 0 -81 20.5t-48 53.5q-7 -26 -34.5 -46.5t-74.5 -20.5q-63 0 -102 34t-39 128v373q0 51 10.5 85.5t28.5 54t44.5 27.5t57.5 8q38 0 63 -18t37 -47q0 15 1 29 t3 28h64v-539q3 -32 14 -58t50 -26q30 0 48.5 20.5t18.5 73.5v532q0 120 -66.5 189t-220.5 69q-82 0 -138 -19.5t-89.5 -59t-47.5 -99.5t-14 -139v-579q0 -92 20.5 -152t60.5 -97.5t97 -53.5t130 -16q81 0 136 10.5t88.5 29.5t48.5 47.5t15 64.5q0 19 -2 27h86q5 -15 5 -37 q0 -52 -18 -97t-63.5 -78.5t-121 -53t-189.5 -19.5q-92 0 -164 21.5t-123.5 71.5t-79 131.5t-27.5 203.5zM375 365q0 -56 18 -79t60 -23q49 0 63 57v402q-5 38 -19 56t-44 18q-38 0 -58 -19.5t-20 -65.5v-346z" />
<glyph unicode="A" horiz-adv-x="576" d="M21 0l194 1416h153l184 -1416h-130l-31 238h-212l-31 -238h-127zM194 358h181q-23 182 -45 362t-43 364q-22 -184 -45.5 -364t-47.5 -362z" />
<glyph unicode="B" horiz-adv-x="558" d="M64 0v1416h225q113 0 161.5 -58t48.5 -185v-283q0 -133 -86 -158q41 -8 72 -43t31 -113v-337q0 -126 -57 -182.5t-170 -56.5h-225zM194 129h95q93 0 93 110v315q0 60 -18 87t-73 27h-97v-539zM194 783h97q46 0 66 22t20 72v298q0 61 -20 85t-68 24h-95v-501z" />
<glyph unicode="C" horiz-adv-x="530" d="M53 223v964q0 244 226 244q207 0 207 -241v-251h-120v250q0 57 -19 83.5t-68 26.5q-93 0 -93 -110v-964q0 -112 93 -112q48 0 67.5 28t19.5 84v294h120v-292q0 -124 -49.5 -183t-157.5 -59q-225 0 -226 238z" />
<glyph unicode="D" horiz-adv-x="560" d="M64 0v1416h220q112 0 167.5 -64.5t55.5 -178.5v-932q0 -241 -223 -241h-220zM194 129h90q93 0 93 112v931q0 53 -23.5 82.5t-69.5 29.5h-90v-1155z" />
<glyph unicode="E" horiz-adv-x="481" d="M64 0v1416h374v-132h-244v-498h172v-131h-172v-526h253v-129h-383z" />
<glyph unicode="F" horiz-adv-x="463" d="M64 0v1416h383v-132h-253v-504h174v-132h-174v-648h-130z" />
<glyph unicode="G" horiz-adv-x="553" d="M53 225v964q0 116 56 179t168 63q114 0 164.5 -63t50.5 -179v-250h-117v250q0 55 -22.5 82.5t-75.5 27.5q-49 0 -71 -27.5t-22 -82.5v-964q0 -55 26 -83.5t66 -28.5q93 0 101 102v322h-109v123h234v-668h-21l-43 77q-21 -41 -67 -62.5t-105 -21.5q-46 0 -84.5 11.5 t-67 40.5t-45 75t-16.5 113z" />
<glyph unicode="H" horiz-adv-x="570" d="M64 0v1416h130v-631h183v631h130v-1416h-130v655h-183v-655h-130z" />
<glyph unicode="I" horiz-adv-x="264" d="M67 0v1416h131v-1416h-131z" />
<glyph unicode="J" horiz-adv-x="372" d="M17 2v131q31 -12 83 -13q84 0 84 110v1186h131v-1186q0 -126 -55 -183t-160 -57q-53 0 -83 12z" />
<glyph unicode="K" horiz-adv-x="599" d="M64 0v1416h130v-611l239 611h142l-268 -645l285 -771h-150l-248 696v-696h-130z" />
<glyph unicode="L" horiz-adv-x="463" d="M64 0v1416h130v-1287h253v-129h-383z" />
<glyph unicode="M" horiz-adv-x="775" d="M60 0v1416h176l150 -1106l149 1106h181v-1416h-122v428q0 155 1 306.5t2 306.5l-153 -1041h-116l-151 1041q2 -155 3 -306.5t1 -306.5v-428h-121z" />
<glyph unicode="N" horiz-adv-x="606" d="M60 0v1416h157l216 -1037q-1 146 -1 288v285v464h115v-1416h-130l-245 1034q2 -158 2 -314v-314v-406h-114z" />
<glyph unicode="O" horiz-adv-x="551" d="M53 225v965q0 119 55.5 180t167.5 61q113 0 168 -60.5t55 -180.5v-965q0 -118 -55 -179t-168 -61q-112 0 -167.5 61t-55.5 179zM184 225q0 -112 92 -112q93 0 92 112v965q0 109 -92 109t-92 -109v-965z" />
<glyph unicode="P" horiz-adv-x="553" d="M64 0v1416h220q123 0 183 -62t60 -195v-232q0 -134 -59 -194t-182 -60h-92v-673h-130zM194 800h92q57 0 84 29t27 95v235q0 64 -25.5 94.5t-87.5 30.5h-90v-484z" />
<glyph unicode="Q" horiz-adv-x="551" d="M53 248v942q0 119 54.5 180t168.5 61q113 0 168 -60.5t55 -180.5v-942q0 -102 -45 -166.5t-144 -71.5q0 -29 20.5 -50.5t70.5 -21.5q65 0 98 43v-104q-13 -17 -42 -29.5t-73 -12.5q-41 0 -72 14.5t-51 39t-30.5 56t-10.5 67.5q-167 27 -167 236zM184 241q0 -108 92 -108 q93 0 92 108v949q0 109 -92 109t-92 -109v-949z" />
<glyph unicode="R" horiz-adv-x="568" d="M64 0v1416h215q123 0 184.5 -58t61.5 -197v-282q0 -154 -105 -208q34 -169 63 -337.5t55 -333.5h-142q-23 164 -47 322.5t-53 320.5q-9 -1 -15.5 -1h-15.5h-71v-642h-130zM194 760h87q60 0 85.5 28.5t25.5 88.5v267q0 76 -22 108t-91 32h-85v-524z" />
<glyph unicode="S" horiz-adv-x="532" d="M46 218v301h126v-281q0 -56 20 -90.5t71 -34.5q49 0 71 27t22 78v202q0 31 -1.5 52.5t-6.5 37t-14 28t-21 28.5q-26 31 -51.5 57.5t-53 53.5t-56.5 57t-59 67q-34 40 -40.5 82.5t-6.5 102.5v211q0 234 220 234q119 0 167 -57.5t48 -176.5v-258h-121v241q0 53 -18.5 86 t-71.5 33q-91 0 -91 -102v-209q0 -45 6 -66t25 -45q51 -66 105.5 -115.5t109.5 -114.5q38 -45 50 -93t12 -132v-204q0 -113 -50.5 -173t-170.5 -60q-115 0 -167.5 60t-52.5 173z" />
<glyph unicode="T" horiz-adv-x="483" d="M19 1284v132h446v-132h-158v-1284h-130v1284h-158z" />
<glyph unicode="U" horiz-adv-x="560" d="M59 225v1191h130v-1191q0 -112 92 -112q91 0 90 112v1191h131v-1191q0 -240 -219 -240h-2q-222 0 -222 240z" />
<glyph unicode="V" horiz-adv-x="581" d="M21 1416h135q10 -87 24 -200t27 -234.5t27 -242t25 -223.5t18 -180.5t10 -110.5q4 35 12.5 111.5t20.5 179.5t26 223.5t28.5 242t28.5 234t25 200.5h131l-188 -1416h-175z" />
<glyph unicode="W" horiz-adv-x="904" d="M21 1416h135q10 -87 21.5 -194t23 -219.5t21.5 -223t18.5 -204.5t14.5 -166t10 -107q3 35 10 107t17 166t22.5 204.5t24.5 223t25 219t23 194.5h130q9 -87 20.5 -194t22.5 -219.5t21.5 -223t19 -204.5t14.5 -166t9 -107q3 35 11 107t17.5 166t21.5 204.5t24.5 223 t25.5 219t23 194.5h138l-179 -1416h-159q-9 76 -19.5 175t-20.5 205.5t-20.5 213.5t-18 198t-13.5 158.5t-8 98.5q-2 -31 -8 -98.5t-15 -158.5t-19.5 -198t-22 -213.5t-22.5 -205.5t-21 -175h-160z" />
<glyph unicode="X" horiz-adv-x="582" d="M8 0l207 755l-176 661h140q15 -57 32 -132.5t33.5 -148.5t29.5 -134.5t18 -92.5q5 31 18 92.5t30.5 134.5t34.5 148.5t32 132.5h136l-178 -657l210 -759h-142q-21 72 -44 166.5t-43.5 184t-37 162t-21.5 101.5q-5 -29 -20.5 -101.5t-36 -162t-43.5 -183t-44 -167.5h-135z " />
<glyph unicode="Y" horiz-adv-x="570" d="M15 1416h138q17 -70 38 -155.5t39.5 -168t34.5 -152.5t22 -108q7 38 22.5 108t35.5 152.5t41 168t41 155.5h127l-206 -781v-635h-133v635z" />
<glyph unicode="Z" horiz-adv-x="527" d="M43 0v131l313 1158h-301v127h432v-119l-308 -1164h308v-133h-444z" />
<glyph unicode="[" horiz-adv-x="424" d="M128 -138v1691h259v-96h-165v-1500h165v-95h-259z" />
<glyph unicode="\" horiz-adv-x="414" d="M10 1416h97l295 -1416h-95z" />
<glyph unicode="]" horiz-adv-x="424" d="M128 -43h164v1500h-164v96h259v-1691h-259v95z" />
<glyph unicode="^" horiz-adv-x="540" d="M64 872l148 544h118l145 -544h-94l-107 438l-116 -438h-94z" />
<glyph unicode="_" horiz-adv-x="510" d="M-2 -98h514v-88h-514v88z" />
<glyph unicode="`" horiz-adv-x="472" d="M64 1405h151l194 -277h-115z" />
<glyph unicode="a" horiz-adv-x="488" d="M39 153v157q0 77 21.5 129.5t58.5 88.5t87 61t107 49v232q0 45 -16 69t-61 24q-46 0 -62 -23.5t-16 -69.5v-223h-105v225q0 105 45 157.5t141 52.5q188 0 188 -210v-750q0 -38 1.5 -70.5t6.5 -51.5h-108q-4 13 -5.5 29t-1.5 35q-43 -79 -128 -79q-72 0 -112.5 39.5 t-40.5 128.5zM155 187q0 -87 81 -87q26 0 47 15.5t30 51.5v376q-51 -19 -83 -40.5t-48.5 -50.5t-21.5 -66t-5 -85v-114z" />
<glyph unicode="b" d="M64 0v1416h118v-403q20 31 53 50t77 19q80 0 117 -45.5t37 -150.5v-681q0 -112 -41 -164.5t-134 -52.5q-53 0 -88.5 25.5t-56.5 65.5q-3 -21 -7.5 -40.5t-10.5 -38.5h-64zM182 184q12 -34 37 -52.5t55 -18.5q39 0 57 20t18 70v674q0 81 -75 81q-30 0 -55 -17t-37 -51 v-706z" />
<glyph unicode="c" horiz-adv-x="486" d="M53 202v660q0 98 48.5 159t146.5 61t141.5 -60t43.5 -158v-231h-106v232q0 45 -20 70t-59 25q-40 0 -59.5 -26t-19.5 -70v-662q0 -97 79 -97t79 95v235h110v-237q0 -96 -45.5 -154.5t-143.5 -58.5t-146.5 59t-48.5 158z" />
<glyph unicode="d" d="M53 187v699q0 105 38 150.5t119 45.5q41 0 74.5 -19t54.5 -50v403h117v-1416h-100q-2 19 -2.5 39t-0.5 40q-20 -43 -55 -67t-93 -24q-151 0 -152 199zM172 203q0 -49 17.5 -69.5t56.5 -20.5q30 0 54.5 18.5t38.5 52.5v707q-14 35 -38.5 53t-54.5 18q-39 0 -56.5 -20 t-17.5 -68v-671z" />
<glyph unicode="e" horiz-adv-x="481" d="M53 200v664q0 108 47.5 163t137.5 55q190 0 190 -218v-342h-264v-322q0 -95 74 -95q79 0 79 95v233h111v-233q0 -215 -190 -215q-184 0 -185 215zM164 607h153v257q0 94 -79 94q-74 0 -74 -94v-257z" />
<glyph unicode="f" horiz-adv-x="328" d="M17 960v105h52v148q0 100 35 156t128 56q21 0 41.5 -2.5t36.5 -8.5v-101q-19 5 -44 5q-41 0 -60.5 -25t-19.5 -83v-145h121v-105h-121v-960h-117v960h-52z" />
<glyph unicode="g" d="M53 244v631q0 104 39 152t113 48q55 0 90 -23t58 -68q0 21 0.5 41.5t2.5 39.5h100v-1120q0 -99 -47.5 -150t-147.5 -51q-55 0 -92.5 14t-60 39.5t-32 62.5t-9.5 85v43h107v-48q0 -45 20.5 -69t65.5 -24q82 0 83 93v177q-20 -31 -55 -49t-80 -18q-80 0 -117.5 44.5 t-37.5 149.5zM171 248q0 -45 16 -64.5t59 -19.5q31 0 56.5 17t40.5 51v647q-14 35 -40 52.5t-57 17.5q-44 0 -59.5 -21.5t-15.5 -58.5v-621z" />
<glyph unicode="h" horiz-adv-x="519" d="M64 0v1416h118v-411q25 34 61 55.5t80 21.5q73 0 105.5 -46t32.5 -150v-886h-118v879q0 47 -15.5 66.5t-53.5 19.5q-26 0 -52 -15.5t-40 -49.5v-900h-118z" />
<glyph unicode="i" horiz-adv-x="252" d="M67 0v1065h119v-1065h-119zM67 1201v215h119v-215h-119z" />
<glyph unicode="j" horiz-adv-x="279" d="M-55 -123q13 -4 30 -6t32 -2q85 0 86 108v1088h119v-1088q0 -118 -51 -171.5t-154 -53.5q-20 0 -34 2t-28 5v118zM93 1201v215h119v-215h-119z" />
<glyph unicode="k" horiz-adv-x="515" d="M64 0v1416h115v-810l192 459h126l-208 -471l213 -594h-131l-192 547v-547h-115z" />
<glyph unicode="l" horiz-adv-x="245" d="M64 0v1416h118v-1416h-118z" />
<glyph unicode="m" horiz-adv-x="755" d="M64 0v1065h100q5 -39 5 -79q23 45 58.5 70.5t80.5 25.5q94 0 115 -92q23 42 59.5 67t83.5 25q67 0 98 -49t31 -145v-888h-117v886q0 79 -61 79q-24 0 -44 -15.5t-35 -49.5v-900h-118v886q0 79 -60 79q-23 0 -43.5 -15.5t-34.5 -49.5v-900h-118z" />
<glyph unicode="n" horiz-adv-x="519" d="M64 0v1065h100q5 -39 5 -81q24 44 63.5 71t89.5 27q72 0 105.5 -47t33.5 -149v-886h-118v879q0 47 -15.5 66.5t-53.5 19.5q-26 0 -52 -15.5t-40 -49.5v-900h-118z" />
<glyph unicode="o" horiz-adv-x="498" d="M53 196v673q0 103 48.5 158t147.5 55t147.5 -55t48.5 -158v-673q0 -104 -48.5 -157.5t-147.5 -53.5t-147.5 54t-48.5 157zM169 196q0 -45 16.5 -68t63.5 -23q48 0 64.5 24t16.5 71v665q0 45 -16.5 70t-64.5 25q-47 0 -63.5 -25t-16.5 -70v-669z" />
<glyph unicode="p" d="M64 -239v1304h100q5 -39 5 -81q19 44 53 67.5t93 23.5q74 0 112.5 -48t38.5 -152v-696q0 -107 -37 -150.5t-117 -43.5q-43 0 -76.5 18t-53.5 47v-289h-118zM182 172q12 -34 37 -51.5t55 -17.5q39 0 57 20t18 66v671q0 50 -18 69.5t-57 19.5q-30 0 -55 -16.5t-37 -51.5 v-709z" />
<glyph unicode="q" d="M53 179v696q0 104 39 152t113 48q57 0 92.5 -25.5t55.5 -65.5q0 41 5 81h98v-1304h-117v289q-21 -30 -54.5 -47.5t-74.5 -17.5q-81 0 -119 43.5t-38 150.5zM172 189q0 -46 17.5 -66t56.5 -20q30 0 54.5 17.5t38.5 51.5v711q-14 34 -38.5 52t-54.5 18q-39 0 -56.5 -21 t-17.5 -68v-675z" />
<glyph unicode="r" horiz-adv-x="355" d="M64 0v1065h100q5 -39 5 -77q23 46 54.5 66.5t73.5 20.5q20 0 36 -7v-132q-8 6 -23.5 9t-28.5 3q-28 0 -54.5 -13t-44.5 -50v-885h-118z" />
<glyph unicode="s" horiz-adv-x="477" d="M46 182v174h107v-170q0 -40 23.5 -63t57.5 -23q78 0 78 86v122q0 35 -10 59.5t-42 64.5q-37 43 -81.5 81.5t-76.5 78.5q-35 38 -45.5 76t-10.5 99v110q0 110 48.5 157.5t141.5 47.5q108 0 148.5 -49t40.5 -156v-173h-108v173q0 39 -22.5 62.5t-55.5 23.5q-77 0 -77 -86 v-125q0 -38 9.5 -59.5t38.5 -52.5q34 -38 77 -72.5t76 -71.5q39 -47 53 -91t14 -113v-115q0 -101 -49 -146.5t-149 -45.5q-186 0 -186 197z" />
<glyph unicode="t" horiz-adv-x="328" d="M17 960v105h50v337h119v-337h121v-105h-121v-755q0 -66 23 -92.5t78 -26.5h11t12 1v-94q-8 -3 -25 -5.5t-30 -2.5q-95 0 -141.5 58.5t-46.5 161.5v755h-50z" />
<glyph unicode="u" horiz-adv-x="515" d="M59 172v893h118v-874q0 -48 15.5 -67t50.5 -19q27 0 52 14.5t38 49.5v896h119v-1065h-101q-2 19 -2.5 38t-0.5 39q-25 -43 -63.5 -66t-88.5 -23q-138 0 -137 184z" />
<glyph unicode="v" horiz-adv-x="476" d="M19 1065h119q13 -96 28.5 -209.5t28.5 -222t23 -199t16 -142.5q5 52 17 142.5t26.5 199t31 222t32.5 209.5h113l-162 -1065h-118z" />
<glyph unicode="w" horiz-adv-x="719" d="M23 1065h111l68 -837l97 837h116l87 -837l81 837h112l-117 -1065h-143l-79 795l-90 -795h-140z" />
<glyph unicode="x" horiz-adv-x="488" d="M12 0l155 566l-134 499h123q10 -44 24 -101.5t27 -114t23.5 -106.5t15.5 -77q5 28 15.5 77.5t23 106t26.5 113.5t24 102h119l-134 -497l156 -568h-123q-15 57 -32 124t-32 133t-28 124.5t-20 99.5q-8 -41 -20.5 -99.5t-28 -124.5t-31 -133t-30.5 -124h-119z" />
<glyph unicode="y" horiz-adv-x="476" d="M19 1065h124q8 -60 18 -134t19 -153.5t18 -157.5t16.5 -148t12.5 -124t9 -85q3 31 9 85t14.5 123t19 148t21 158.5t20.5 153.5t21 134h113l-162 -1078q-8 -58 -20 -100.5t-33.5 -73t-56 -46t-85.5 -15.5q-17 0 -34 2.5t-30 6.5v119q24 -9 59 -9q36 0 52 29t25 79l7 44z " />
<glyph unicode="z" horiz-adv-x="440" d="M43 0v110l243 838h-240v117h353v-110l-237 -835h235v-120h-354z" />
<glyph unicode="{" horiz-adv-x="448" d="M28 707l127 165q13 17 19.5 33t6.5 50v373q0 110 52.5 167.5t170.5 57.5h14v-96h-12q-71 0 -100.5 -30t-29.5 -101v-356q0 -57 -10.5 -88.5t-35.5 -62.5l-87 -112l87 -111q25 -33 35.5 -66t10.5 -88v-355q0 -70 29.5 -100t100.5 -30h12v-95h-14q-118 0 -170.5 56 t-52.5 166v377q0 33 -6 48.5t-20 33.5z" />
<glyph unicode="|" horiz-adv-x="331" d="M117 -138v1691h96v-1691h-96z" />
<glyph unicode="}" horiz-adv-x="448" d="M28 -43h11q71 0 101.5 30t30.5 100v355q0 55 10 88t34 66l87 111l-87 112q-24 31 -34 62.5t-10 88.5v356q0 71 -30.5 101t-101.5 30h-11v96h13q119 0 171.5 -57.5t52.5 -167.5v-373q0 -34 6 -49.5t20 -33.5l127 -165l-127 -164q-14 -19 -20 -34t-6 -48v-377 q0 -110 -52.5 -166t-171.5 -56h-13v95z" />
<glyph unicode="~" horiz-adv-x="796" d="M64 628v119q26 29 67 49t101 20q48 0 90.5 -14t81 -29.5t74.5 -29.5t74 -14q57 0 100 22t82 66v-116q-36 -35 -79.5 -52t-105.5 -17q-43 0 -82.5 13.5t-77.5 29t-75.5 29t-75.5 13.5q-46 0 -89.5 -19.5t-84.5 -69.5z" />
<glyph unicode="&#xa2;" horiz-adv-x="483" d="M53 368v656q0 93 41.5 150t127.5 67v175h54v-175q84 -9 120.5 -67.5t36.5 -147.5v-233h-94v234q0 36 -17.5 62t-47.5 31v-846q65 8 65 92v231h98v-232q0 -89 -38.5 -146t-122.5 -66v-153h-54v151q-86 7 -127.5 66.5t-41.5 150.5zM158 368q0 -86 67 -94v846 q-34 -7 -50.5 -32t-16.5 -61v-659z" />
<glyph unicode="&#xa3;" horiz-adv-x="491" d="M34 -15v118q17 25 39 41t49 20q3 38 6 69.5t4 65.5t1.5 76t0.5 101v325h-95v100h95v257q0 134 53.5 203.5t155.5 69.5q22 0 43 -2.5t41 -8.5v-121q-31 11 -59 12q-61 0 -90.5 -40t-29.5 -112v-258h179v-100h-179v-325q0 -59 -2 -103.5t-4.5 -83t-7 -73.5t-9.5 -73 q24 -9 56 -27t68 -18q33 0 57 12t43 45h7v-116q-39 -52 -117 -52q-30 0 -55.5 10t-48.5 23t-44.5 23t-44.5 10q-28 0 -52.5 -14.5t-52.5 -53.5h-7z" />
<glyph unicode="&#xa5;" horiz-adv-x="584" d="M21 1416h141l132 -582l136 582h131l-212 -786v-97h196v-105h-196v-165h196v-105h-196v-158h-124v158h-196v105h196v165h-196v105h196v99z" />
<glyph unicode="&#xa8;" horiz-adv-x="504" d="M64 1149v215h118v-215h-118zM322 1149v215h118v-215h-118z" />
<glyph unicode="&#xa9;" horiz-adv-x="887" d="M53 381v655q0 106 23.5 182t70.5 123.5t121.5 68.5t175.5 21t175 -21t121.5 -68.5t70.5 -123.5t23 -182v-655q0 -107 -23 -183t-70.5 -123t-121.5 -68.5t-175 -21.5q-102 0 -176 21.5t-121 68.5t-70.5 123t-23.5 183zM143 368q0 -81 16.5 -137.5t52.5 -92t92.5 -51.5 t139.5 -16q82 0 140 16t93 51.5t51.5 92t16.5 137.5v676q0 84 -16.5 142t-51.5 93.5t-92.5 51t-140.5 15.5t-140.5 -15.5t-93.5 -51t-51.5 -93.5t-15.5 -142v-676zM304 411v605q0 155 141 156q130 0 130 -154v-158h-76v158q0 67 -54 67q-55 0 -54 -69v-605q0 -67 54 -67 q53 0 54 67v186h76v-184q0 -77 -30.5 -114.5t-99.5 -37.5q-141 0 -141 150z" />
<glyph unicode="&#xab;" horiz-adv-x="670" d="M33 509v129l269 193v-112l-205 -144l205 -152v-116zM368 509v129l269 193v-112l-205 -144l205 -152v-116z" />
<glyph unicode="&#xad;" horiz-adv-x="312" d="M23 662v102h271v-102h-271z" />
<glyph unicode="&#xae;" horiz-adv-x="887" d="M53 381v655q0 106 23.5 182t70.5 123.5t121.5 68.5t175.5 21t175 -21t121.5 -68.5t70.5 -123.5t23 -182v-655q0 -107 -23 -183t-70.5 -123t-121.5 -68.5t-175 -21.5q-102 0 -176 21.5t-121 68.5t-70.5 123t-23.5 183zM143 368q0 -81 16.5 -137.5t52.5 -92t92.5 -51.5 t139.5 -16q82 0 140 16t93 51.5t51.5 92t16.5 137.5v676q0 84 -16.5 142t-51.5 93.5t-92.5 51t-140.5 15.5t-140.5 -15.5t-93.5 -51t-51.5 -93.5t-15.5 -142v-676zM307 270v891h135q79 0 117 -37t38 -126v-177q0 -104 -64 -133q23 -105 41 -210t33 -208h-93q-13 104 -28 202 t-33 197h-62v-399h-84zM391 748h51q38 0 54 20t16 54v166q0 44 -14.5 65.5t-55.5 21.5h-51v-327z" />
<glyph unicode="&#xb4;" horiz-adv-x="472" d="M64 1128l192 277h153l-232 -277h-113z" />
<glyph unicode="&#xb8;" horiz-adv-x="228" d="M64 -34h100v-155q0 -33 -15.5 -50t-51.5 -17h-20v43h15q19 0 18 21v34h-46v124z" />
<glyph unicode="&#xbb;" horiz-adv-x="670" d="M33 307v116l206 152l-206 144v112l269 -193v-129zM368 307v116l206 152l-206 144v112l269 -193v-129z" />
<glyph unicode="&#xc1;" horiz-adv-x="576" d="M21 0l194 1416h153l184 -1416h-130l-31 238h-212l-31 -238h-127zM194 358h181q-23 182 -45 362t-43 364q-22 -184 -45.5 -364t-47.5 -362zM202 1479l192 277h153l-232 -277h-113z" />
<glyph unicode="&#xc9;" horiz-adv-x="481" d="M64 0v1416h374v-132h-244v-498h172v-131h-172v-526h253v-129h-383zM153 1479l192 277h153l-232 -277h-113z" />
<glyph unicode="&#xcd;" horiz-adv-x="264" d="M49 1479l192 277h153l-232 -277h-113zM67 0v1416h131v-1416h-131z" />
<glyph unicode="&#xd3;" horiz-adv-x="551" d="M53 225v965q0 119 55.5 180t167.5 61q113 0 168 -60.5t55 -180.5v-965q0 -118 -55 -179t-168 -61q-112 0 -167.5 61t-55.5 179zM184 225q0 -112 92 -112q93 0 92 112v965q0 109 -92 109t-92 -109v-965zM190 1479l192 277h153l-232 -277h-113z" />
<glyph unicode="&#xd6;" horiz-adv-x="551" d="M53 225v965q0 119 55.5 180t167.5 61q113 0 168 -60.5t55 -180.5v-965q0 -118 -55 -179t-168 -61q-112 0 -167.5 61t-55.5 179zM88 1500v215h118v-215h-118zM184 225q0 -112 92 -112q93 0 92 112v965q0 109 -92 109t-92 -109v-965zM346 1500v215h118v-215h-118z" />
<glyph unicode="&#xda;" horiz-adv-x="560" d="M59 225v1191h130v-1191q0 -112 92 -112q91 0 90 112v1191h131v-1191q0 -241 -221 -240q-222 0 -222 240zM193 1479l192 277h153l-232 -277h-113z" />
<glyph unicode="&#xdc;" horiz-adv-x="560" d="M59 225v1191h130v-1191q0 -112 92 -112q91 0 90 112v1191h131v-1191q0 -241 -221 -240q-222 0 -222 240zM92 1500v215h118v-215h-118zM350 1500v215h118v-215h-118z" />
<glyph unicode="&#xe1;" horiz-adv-x="488" d="M39 153v157q0 77 21.5 129.5t58.5 88.5t87 61t107 49v232q0 45 -16 69t-61 24q-46 0 -62 -23.5t-16 -69.5v-223h-105v225q0 105 45 157.5t141 52.5q188 0 188 -210v-750q0 -38 1.5 -70.5t6.5 -51.5h-108q-4 13 -5.5 29t-1.5 35q-43 -79 -128 -79q-72 0 -112.5 39.5 t-40.5 128.5zM155 187q0 -87 81 -87q26 0 47 15.5t30 51.5v376q-51 -19 -83 -40.5t-48.5 -50.5t-21.5 -66t-5 -85v-114zM157 1128l192 277h153l-232 -277h-113z" />
<glyph unicode="&#xe9;" horiz-adv-x="481" d="M53 200v664q0 108 47.5 163t137.5 55q190 0 190 -218v-342h-264v-322q0 -95 74 -95q79 0 79 95v233h111v-233q0 -215 -190 -215q-184 0 -185 215zM153 1128l192 277h153l-232 -277h-113zM164 607h153v257q0 94 -79 94q-74 0 -74 -94v-257z" />
<glyph unicode="&#xed;" horiz-adv-x="271" d="M41 1128l192 277h153l-232 -277h-113zM67 0v1065h119v-1065h-119z" />
<glyph unicode="&#xf3;" horiz-adv-x="498" d="M53 196v673q0 103 48.5 158t147.5 55t147.5 -55t48.5 -158v-673q0 -104 -48.5 -157.5t-147.5 -53.5t-147.5 54t-48.5 157zM162 1128l192 277h153l-232 -277h-113zM169 196q0 -45 16.5 -68t63.5 -23q48 0 64.5 24t16.5 71v665q0 45 -16.5 70t-64.5 25q-47 0 -63.5 -25 t-16.5 -70v-669z" />
<glyph unicode="&#xf6;" horiz-adv-x="498" d="M53 196v673q0 103 48.5 158t147.5 55t147.5 -55t48.5 -158v-673q0 -104 -48.5 -157.5t-147.5 -53.5t-147.5 54t-48.5 157zM64 1149v215h118v-215h-118zM169 196q0 -45 16.5 -68t63.5 -23q48 0 64.5 24t16.5 71v665q0 45 -16.5 70t-64.5 25q-47 0 -63.5 -25t-16.5 -70 v-669zM322 1149v215h118v-215h-118z" />
<glyph unicode="&#xfa;" horiz-adv-x="515" d="M59 172v893h118v-874q0 -48 15.5 -67t50.5 -19q27 0 52 14.5t38 49.5v896h120v-1065h-102q-2 19 -2.5 38t-0.5 39q-25 -43 -63.5 -66t-88.5 -23q-138 0 -137 184zM171 1128l192 277h153l-232 -277h-113z" />
<glyph unicode="&#xfc;" horiz-adv-x="515" d="M59 172v893h118v-874q0 -48 15.5 -67t50.5 -19q27 0 52 14.5t38 49.5v896h120v-1065h-102q-2 19 -2.5 38t-0.5 39q-25 -43 -63.5 -66t-88.5 -23q-138 0 -137 184zM69 1149v215h118v-215h-118zM327 1149v215h118v-215h-118z" />
<glyph unicode="&#x150;" horiz-adv-x="551" d="M52 1479l192 277h153l-232 -277h-113zM53 225v965q0 119 55.5 180t167.5 61q113 0 168 -60.5t55 -180.5v-965q0 -118 -55 -179t-168 -61q-112 0 -167.5 61t-55.5 179zM184 225q0 -112 92 -112q93 0 92 112v965q0 109 -92 109t-92 -109v-965zM331 1479l192 277h155 l-232 -277h-115z" />
<glyph unicode="&#x151;" horiz-adv-x="498" d="M25 1128l192 277h153l-232 -277h-113zM53 196v673q0 103 48.5 158t147.5 55t147.5 -55t48.5 -158v-673q0 -104 -48.5 -157.5t-147.5 -53.5t-147.5 54t-48.5 157zM169 196q0 -45 16.5 -68t63.5 -23q48 0 64.5 24t16.5 71v665q0 45 -16.5 70t-64.5 25q-47 0 -63.5 -25 t-16.5 -70v-669zM304 1128l192 277h155l-232 -277h-115z" />
<glyph unicode="&#x170;" horiz-adv-x="560" d="M56 1479l192 277h153l-232 -277h-113zM59 225v1191h130v-1191q0 -112 92 -112q91 0 90 112v1191h131v-1191q0 -241 -221 -240q-222 0 -222 240zM335 1479l192 277h155l-232 -277h-115z" />
<glyph unicode="&#x171;" horiz-adv-x="515" d="M33 1128l192 277h153l-232 -277h-113zM59 172v893h118v-874q0 -48 15.5 -67t50.5 -19q27 0 52 14.5t38 49.5v896h120v-1065h-102q-2 19 -2.5 38t-0.5 39q-25 -43 -63.5 -66t-88.5 -23q-138 0 -137 184zM312 1128l192 277h155l-232 -277h-115z" />
<glyph unicode="&#x2c6;" horiz-adv-x="661" d="M79 1128l186 277h137l179 -277h-115l-136 212l-141 -212h-110z" />
<glyph unicode="&#x2da;" horiz-adv-x="458" d="M64 1268q0 60 41 98.5t123 38.5q83 0 125.5 -38.5t42.5 -98.5q0 -59 -42 -96.5t-126 -37.5q-82 0 -123 38t-41 96zM129 1268q0 -78 99 -78t99 78q0 79 -99 79t-99 -79z" />
<glyph unicode="&#x2dc;" horiz-adv-x="540" d="M64 1185v105q17 20 42 33t61 13q31 0 56.5 -8t50.5 -19.5t49.5 -20t53.5 -8.5q28 0 53.5 13.5t44.5 37.5v-105q-16 -19 -42.5 -31.5t-62.5 -12.5q-30 0 -55.5 8.5t-50.5 19.5t-50 20t-52 9q-28 0 -54 -14t-44 -40z" />
<glyph unicode="&#x2000;" horiz-adv-x="878" />
<glyph unicode="&#x2001;" horiz-adv-x="1756" />
<glyph unicode="&#x2002;" horiz-adv-x="878" />
<glyph unicode="&#x2003;" horiz-adv-x="1756" />
<glyph unicode="&#x2004;" horiz-adv-x="585" />
<glyph unicode="&#x2005;" horiz-adv-x="439" />
<glyph unicode="&#x2006;" horiz-adv-x="292" />
<glyph unicode="&#x2007;" horiz-adv-x="292" />
<glyph unicode="&#x2008;" horiz-adv-x="219" />
<glyph unicode="&#x2009;" horiz-adv-x="351" />
<glyph unicode="&#x200a;" horiz-adv-x="97" />
<glyph unicode="&#x2010;" horiz-adv-x="312" d="M23 662v102h271v-102h-271z" />
<glyph unicode="&#x2011;" horiz-adv-x="312" d="M23 662v102h271v-102h-271z" />
<glyph unicode="&#x2012;" horiz-adv-x="312" d="M23 662v102h271v-102h-271z" />
<glyph unicode="&#x2013;" horiz-adv-x="479" d="M23 662v102h435v-102h-435z" />
<glyph unicode="&#x2014;" horiz-adv-x="753" d="M23 662v102h709v-102h-709z" />
<glyph unicode="&#x2018;" horiz-adv-x="230" d="M53 1110v223q0 43 22 69t71 26h14v-57h-12q-14 0 -21 -6t-7 -25v-53h57v-177h-124z" />
<glyph unicode="&#x2019;" horiz-adv-x="230" d="M53 1239v177h124v-222q0 -45 -21.5 -70.5t-71.5 -25.5h-13v56h10q29 0 29 31v54h-57z" />
<glyph unicode="&#x201a;" horiz-adv-x="236" d="M57 38v177h124v-222q0 -44 -21.5 -70t-72.5 -26h-13v57h10q29 0 29 31v53h-56z" />
<glyph unicode="&#x201c;" horiz-adv-x="460" d="M53 1110v223q0 43 22 69t71 26h14v-57h-12q-14 0 -21 -6t-7 -25v-53h57v-177h-124zM283 1110v223q0 43 22 69t71 26h14v-57h-12q-14 0 -21 -6t-7 -25v-53h57v-177h-124z" />
<glyph unicode="&#x201d;" horiz-adv-x="460" d="M53 1239v177h124v-222q0 -45 -21.5 -70.5t-71.5 -25.5h-13v56h10q29 0 29 31v54h-57zM283 1239v177h124v-222q0 -45 -21.5 -70.5t-71.5 -25.5h-13v56h10q29 0 29 31v54h-57z" />
<glyph unicode="&#x201e;" horiz-adv-x="474" d="M57 38v177h124v-222q0 -44 -21.5 -70t-72.5 -26h-13v57h10q29 0 29 31v53h-56zM295 38v177h124v-222q0 -44 -21.5 -70t-72.5 -26h-13v57h10q29 0 29 31v53h-56z" />
<glyph unicode="&#x2026;" horiz-adv-x="1143" d="M53 0v215h123v-215h-123zM511 0v215h123v-215h-123zM969 0v215h123v-215h-123z" />
<glyph unicode="&#x202f;" horiz-adv-x="351" />
<glyph unicode="&#x2039;" horiz-adv-x="335" d="M33 509v129l269 193v-112l-205 -144l205 -152v-116z" />
<glyph unicode="&#x203a;" horiz-adv-x="335" d="M33 307v116l206 152l-206 144v112l269 -193v-129z" />
<glyph unicode="&#x205f;" horiz-adv-x="439" />
<glyph unicode="&#x20ac;" horiz-adv-x="588" d="M17 509l16 100h64v222h-80l16 101h64v224q0 69 14.5 121.5t49.5 86t92 50.5t143 17q49 0 94 -2.5t81 -5.5l-21 -133q-77 10 -151 10q-53 0 -86.5 -9t-52.5 -27t-26 -45t-7 -63v-224h269l-18 -101h-251v-222h218l-17 -100h-201v-287q0 -45 27.5 -77.5t72.5 -32.5 q59 0 78.5 35t19.5 106v105h129v-133q0 -118 -54.5 -179t-172.5 -61q-119 0 -174.5 61t-55.5 179v284h-80z" />
<glyph unicode="&#x2122;" horiz-adv-x="832" d="M46 1352v64h269v-64h-93v-590h-83v590h-93zM373 762v654h108l90 -511l86 511h110v-654h-74v220v128t2 127l-88 -475h-72l-90 475q2 -64 3 -127.5t1 -127.5v-220h-76z" />
<glyph unicode="&#xe000;" horiz-adv-x="1065" d="M0 0v1067h1067v-1067h-1067z" />
</font>
</defs>
</svg>
